<svg width="52" height="52" viewBox="0 0 52 52" fill="none" xmlns="http://www.w3.org/2000/svg">
<circle cx="26" cy="26" r="25" fill="#007DE8" stroke="#121212" stroke-width="2"/>
<path d="M36 19.15V22.85C36 25.1 35.1 26 32.85 26H30.15C27.9 26 27 25.1 27 22.85V19.15C27 16.9 27.9 16 30.15 16H32.85C35.1 16 36 16.9 36 19.15Z" fill="white"/>
<path d="M25 29.15V32.85C25 35.1 24.1 36 21.85 36H19.15C16.9 36 16 35.1 16 32.85V29.15C16 26.9 16.9 26 19.15 26H21.85C24.1 26 25 26.9 25 29.15Z" fill="white"/>
<path d="M28.78 36C28.51 36 28.26 35.85 28.13 35.62C28 35.38 28 35.1 28.14 34.86L29.11 33.24C29.32 32.88 29.78 32.77 30.14 32.98C30.5 33.19 30.61 33.65 30.4 34.01L30.22 34.31C32.69 33.67 34.51 31.43 34.51 28.77C34.51 28.36 34.85 28.02 35.26 28.02C35.67 28.02 36 28.36 36 28.78C36 32.76 32.76 36 28.78 36Z" fill="white"/>
<path d="M16.75 23.97C16.34 23.97 16 23.64 16 23.22C16 19.24 19.24 16 23.22 16C23.5 16 23.74 16.15 23.88 16.38C24.01 16.62 24.01 16.9 23.87 17.14L22.9 18.75C22.68 19.11 22.22 19.23 21.87 19.01C21.51 18.8 21.4 18.34 21.61 17.98L21.79 17.68C19.33 18.32 17.5 20.56 17.5 23.22C17.5 23.64 17.16 23.97 16.75 23.97Z" fill="white"/>
</svg>
