<svg width="52" height="52" viewBox="0 0 52 52" fill="none" xmlns="http://www.w3.org/2000/svg">
<circle cx="26" cy="26" r="25" fill="#E800A7" stroke="#121212" stroke-width="2"/>
<path d="M36 24.75C36.41 24.75 36.75 24.41 36.75 24V23C36.75 18.59 35.41 17.25 31 17.25H24.75V19.5C24.75 19.91 24.41 20.25 24 20.25C23.59 20.25 23.25 19.91 23.25 19.5V17.25H21C16.59 17.25 15.25 18.59 15.25 23V23.5C15.25 23.91 15.59 24.25 16 24.25C16.96 24.25 17.75 25.04 17.75 26C17.75 26.96 16.96 27.75 16 27.75C15.59 27.75 15.25 28.09 15.25 28.5V29C15.25 33.41 16.59 34.75 21 34.75H23.25V32.5C23.25 32.09 23.59 31.75 24 31.75C24.41 31.75 24.75 32.09 24.75 32.5V34.75H31C35.41 34.75 36.75 33.41 36.75 29C36.75 28.59 36.41 28.25 36 28.25C35.04 28.25 34.25 27.46 34.25 26.5C34.25 25.54 35.04 24.75 36 24.75ZM24.75 28.17C24.75 28.58 24.41 28.92 24 28.92C23.59 28.92 23.25 28.58 23.25 28.17V23.83C23.25 23.42 23.59 23.08 24 23.08C24.41 23.08 24.75 23.42 24.75 23.83V28.17Z" fill="white"/>
</svg>
