<svg width="52" height="52" viewBox="0 0 52 52" fill="none" xmlns="http://www.w3.org/2000/svg">
<circle cx="26" cy="26" r="25" fill="#C800E8" stroke="#121212" stroke-width="2"/>
<path fill-rule="evenodd" clip-rule="evenodd" d="M25.7281 35.9137C25.8388 35.9715 25.9627 36.0009 26.0865 36C26.2103 35.999 26.3331 35.9686 26.4449 35.9097L30.0128 34.0025C31.0245 33.4631 31.8168 32.8601 32.435 32.1579C33.779 30.6282 34.5129 28.6758 34.4998 26.6626L34.4575 20.022C34.4535 19.2571 33.9511 18.5746 33.2082 18.3265L26.5707 16.0996C26.1711 15.9642 25.7331 15.9672 25.3405 16.1064L18.7282 18.4128C17.9893 18.6707 17.496 19.3581 17.5 20.124L17.5423 26.7597C17.5554 28.7758 18.3145 30.7194 19.6806 32.2335C20.3048 32.9258 21.1041 33.52 22.127 34.0505L25.7281 35.9137ZM24.7836 28.1089C24.9326 28.2521 25.1259 28.3227 25.3192 28.3207C25.5125 28.3198 25.7047 28.2472 25.8517 28.1021L29.7508 24.2581C30.0438 23.9688 30.0408 23.504 29.7448 23.2187C29.4478 22.9333 28.9696 22.9353 28.6766 23.2245L25.3081 26.5449L23.9289 25.2191C23.6319 24.9337 23.1547 24.9367 22.8607 25.226C22.5677 25.5152 22.5708 25.98 22.8678 26.2654L24.7836 28.1089Z" fill="white"/>
</svg>
