<svg width="361" height="184" viewBox="0 0 361 184" fill="none" xmlns="http://www.w3.org/2000/svg">
<g clip-path="url(#clip0_1465_7991)">
<rect width="361" height="184" rx="16" fill="#F9F9F9"/>
<g opacity="0.02" clip-path="url(#clip1_1465_7991)">
<path d="M31.762 157.315C31.762 156.632 31.7665 156.08 31.762 155.522C31.7303 152.994 31.5992 150.46 31.6806 147.932C31.762 145.366 33.173 143.558 35.1131 143.174C37.0306 142.796 38.9708 143.979 39.7079 146.344C40.2461 148.068 40.5401 149.94 40.7074 151.774C41.3993 159.407 40.635 166.935 39.2105 174.384C38.9572 175.709 38.4371 177.007 37.8537 178.2C37.1392 179.667 35.9814 180.513 34.4619 180.261C32.9559 180.009 31.866 178.852 31.6987 177.212C31.4273 174.489 31.364 171.708 31.5132 168.969C31.5992 167.413 31.3233 166.693 30.0525 166.141C24.6255 163.786 19.0584 162.509 13.2651 163.071C4.70861 163.902 -2.02533 168.549 -6.88698 176.734C-11.2195 184.025 -9.08489 192.804 -2.12935 196.599C1.56098 198.612 5.51813 199.212 9.5386 199.001C21.9347 198.35 33.1278 193.645 42.9144 184.824C49.2729 179.094 54.4286 172.123 56.8571 162.95C58.4671 156.868 59.3083 150.634 58.2772 144.294C57.0697 136.835 53.8768 130.805 48.3413 126.563C40.7029 120.707 32.481 118.678 23.5401 121.374C20.9216 122.168 18.3212 123.077 15.7525 124.076C14.9113 124.402 14.2374 125.264 13.4189 125.716C12.8716 126.016 12.1571 126.242 11.6008 126.095C10.1672 125.716 9.32152 123.824 9.78733 122.126C10.0044 121.327 10.3843 120.533 10.8546 119.902C11.4652 119.082 12.1616 118.262 12.9621 117.731C23.2778 110.882 33.9554 107.985 45.4515 113.726C54.4466 118.22 61.3298 125.101 64.8212 136.041C67.3628 144.005 67.0281 152.032 65.5809 160.169C63.3288 172.812 57.1194 182.553 48.8026 190.554C37.4558 201.467 24.2321 207.302 9.60644 208.842C4.93021 209.336 0.303734 208.774 -4.06949 206.661C-11.8119 202.923 -16.2982 196.121 -17.5329 186.522C-18.0846 182.238 -17.1304 178.174 -15.4932 174.326C-9.27936 159.749 4.17044 151.27 18.0589 153.152C22.5316 153.756 26.8958 154.829 31.0067 157.052C31.1921 157.157 31.3956 157.194 31.762 157.315Z" fill="#121212"/>
<path d="M74.73 180.045C75.9148 179.21 77.1811 178.5 78.262 177.512C80.3921 175.561 82.4227 173.474 84.4804 171.419C87.2346 168.67 90.1199 166.152 93.5615 164.654C95.3524 163.87 97.1568 163.618 98.9432 164.659C100.987 165.852 101.96 167.944 102.435 170.42C103.104 173.89 102.575 177.301 101.792 180.613C100.259 187.1 98.4955 193.513 96.9081 199.985C95.3614 206.293 94.3484 212.732 93.9911 219.277C93.869 221.537 94.0002 223.866 94.3348 226.1C94.7645 228.986 96.2524 231.01 98.7804 231.825C99.1377 231.941 99.4633 232.177 99.7844 232.556C98.5452 233.486 97.2292 233.796 95.8499 233.528C93.2947 233.039 91.5535 231.236 90.4139 228.634C88.7813 224.902 88.1164 220.875 88.0984 216.722C88.0712 209.1 89.3556 201.725 91.4224 194.523C92.6841 190.133 94.1132 185.802 95.3298 181.396C95.9674 179.089 96.3247 176.681 96.795 174.31C96.8674 173.942 96.8719 173.548 96.8719 173.17C96.8584 170.809 96.4016 170.368 94.6921 171.572C92.2093 173.322 89.8259 175.283 87.4743 177.265C85.1814 179.199 83.0739 181.433 80.7132 183.236C79.1982 184.393 77.4344 185.25 75.6797 185.802C72.9029 186.674 70.7502 185.113 69.8321 181.922C68.9819 178.968 69.2216 175.977 69.7598 173.007C70.8406 167.014 73.2602 161.704 76.1726 156.695C78.4926 152.7 81.1247 148.946 83.395 144.914C86.6919 139.069 87.4245 132.519 86.6828 125.695C86.5019 124.04 85.9366 122.715 84.5256 121.816C82.789 120.712 82.2237 118.72 82.8206 116.964C83.4267 115.171 85.0593 114.314 87.0491 114.751C87.2527 114.793 87.4562 114.835 87.6506 114.914C99.4362 119.729 109.684 126.873 115.871 140.136C117.897 144.483 119.358 149.088 120.429 153.867C120.502 154.182 120.592 154.492 120.805 155.312C121.108 154.729 121.243 154.392 121.438 154.114C126.386 147.148 132.274 141.624 139.501 138.144C150.807 132.697 162.108 127.241 173.415 121.8C177.381 119.892 181.293 117.884 184.273 114.125C185.187 112.974 186.032 111.718 186.729 110.382C187.597 108.716 187.317 107.396 185.784 106.613C184.463 105.935 182.966 105.399 181.546 105.394C177.711 105.383 173.935 105.951 170.43 108.038C169.932 108.337 168.992 108.422 168.648 108.075C168.282 107.707 168.11 106.571 168.327 106.024C168.698 105.078 169.295 103.99 170.045 103.554C175.147 100.62 180.47 99.2116 186.114 101.204C187 101.519 187.859 102.071 188.624 102.692C191.509 105.031 192.477 108.674 190.74 112.222C189.483 114.793 187.778 117.137 186.001 119.282C183.436 122.384 180.198 124.45 176.82 126.132C167.911 130.568 158.965 134.905 150.047 139.321C146.497 141.082 142.929 142.812 139.469 144.804C132.106 149.041 126.263 155.265 122.116 163.539C121.47 164.832 121.153 166.357 120.696 167.776C120.398 168.712 120.221 169.721 119.81 170.578C119.113 172.034 117.77 172.66 116.45 172.328C115.129 172.003 114.107 170.799 113.976 169.153C113.894 168.123 113.976 167.051 114.121 166.026C114.627 162.472 114.424 159.013 113.469 155.565C110.996 146.596 106.993 138.764 100.834 132.556C99.3005 131.01 97.582 129.717 95.9041 128.271C93.4891 138.501 88.2883 146.57 83.2277 154.723C79.5057 160.721 76.1681 166.951 74.7164 174.263C74.3636 176.029 74.3455 177.885 74.1782 179.699C74.3636 179.835 74.5491 179.94 74.73 180.045Z" fill="#121212"/>
<path d="M186.163 63.581C186.792 63.8176 187.289 64.0278 187.801 64.196C194.919 66.5353 200.599 71.524 205.538 77.6535C209.504 82.5791 211.489 88.6507 212.014 95.3794C212.113 96.6463 212.647 97.8659 212.742 99.1327C212.896 101.193 212.878 103.28 212.878 105.352C212.878 105.709 212.624 106.066 212.452 106.524C212.181 106.282 212.023 106.203 211.941 106.061C210.169 103.086 208.437 100.074 206.632 97.1246C201.499 88.7032 194.602 84.6818 185.648 85.9119C180.266 86.6478 174.898 87.6151 169.498 88.1355C158.215 89.2184 148.473 84.8553 140.505 75.7032C134.417 68.7064 132.541 59.8066 133.866 50.1078C135.051 41.4288 138.062 33.5068 142.675 26.5626C150.45 14.8662 166.197 5.0623 183.341 10.5346C194.684 14.1513 202.675 30.0636 198.682 44.1151C197.035 49.9133 194.345 54.8968 190.478 59.0234C189.094 60.5005 187.692 61.9672 186.163 63.581ZM198.677 79.8403C196.221 76.9701 193.847 74.0736 190.704 72.2232C186.498 69.7472 182.138 68.1176 177.354 68.3174C176.3 68.3594 175.386 67.9021 175.156 66.5143C174.966 65.3631 175.572 64.317 176.829 63.9122C178.005 63.5284 179.235 63.2393 180.452 63.1657C181.623 63.0921 182.536 62.619 183.206 61.5782C184.829 59.0602 186.444 56.5316 188 53.9558C189.989 50.665 191.197 46.9853 191.821 43.0322C193.39 33.0495 188.913 23.6293 181.112 20.3018C166.925 14.2512 154.479 21.9261 147.646 32.5449C144.317 37.7228 142.201 43.6472 140.998 49.9711C139.682 56.8628 140.676 63.3918 144.593 68.7274C149.626 75.577 156.148 79.6248 164.04 80.2819C168.675 80.6709 173.207 79.6773 177.765 78.9834C184.757 77.911 191.776 76.2289 198.677 79.8403Z" fill="#121212"/>
<path d="M365.149 181.186C362.363 182.779 359.839 182.905 357.28 182.143C351.513 180.419 347.859 174.936 347.755 167.702C347.647 160.096 350.139 153.662 354.647 148.231C357.121 145.251 360.007 142.901 363.118 140.898C363.579 140.604 364.063 139.92 364.149 139.342C365.176 132.282 366.202 125.222 367.075 118.141C367.564 114.178 367.799 110.172 368.097 106.177C368.156 105.399 367.984 104.6 367.889 103.406C366.46 104.137 365.149 104.584 364.041 105.409C359.925 108.464 355.887 111.665 351.798 114.766C348.746 117.085 345.688 119.398 342.568 121.595C341.605 122.273 340.461 122.678 339.353 122.993C336.237 123.876 333.749 122.441 332.686 118.909C331.985 116.585 331.732 114.088 331.194 111.691C330.995 110.808 330.665 109.92 330.217 109.178C329.584 108.132 329.322 107.144 329.941 106.014C330.511 104.973 331.786 104.416 332.763 105.115C333.663 105.756 334.568 106.697 335.038 107.759C335.739 109.347 336.074 111.16 336.544 112.884C336.779 113.747 336.983 114.624 337.164 115.508C337.403 116.68 337.978 117.032 338.864 116.422C341.654 114.514 344.486 112.685 347.185 110.619C351.744 107.134 356.149 103.364 360.762 99.9738C362.634 98.5965 364.805 97.5662 366.962 96.9511C370.548 95.9208 373.181 98.1129 373.922 102.313C374.605 106.166 374.257 110.041 373.782 113.862C372.887 121.09 371.828 128.287 370.842 135.499C370.775 136.004 370.738 136.519 370.675 137.192C372.281 136.771 373.741 136.351 375.211 136.02C379.44 135.063 383.686 134.837 387.946 135.783C392.826 136.871 396.946 139.6 400.383 143.726C406.452 151.017 405.796 161.641 398.859 167.787C395.318 170.925 391.361 173.201 386.938 173.995C377.364 175.714 366.813 169.311 364.556 156.085C364.479 155.628 364.38 155.181 364.244 154.503C361.056 157.967 358.677 161.767 357.465 166.462C355.954 172.318 356.56 174.515 360.748 178.158C361.662 178.952 362.706 179.546 363.692 180.224C364.063 180.471 364.439 180.713 365.149 181.186ZM384.301 143.879C380.028 143.942 376.007 145.382 372.217 147.7C369.422 149.409 369.965 148.82 370.264 152.058C370.634 156.111 371.548 159.933 374.216 162.892C381.303 170.767 390.981 168.712 396.892 161.499C399.546 158.261 399.289 153.383 396.553 150.076C393.233 146.086 389.167 143.957 384.301 143.879Z" fill="#121212"/>
<path d="M329.186 146.549C330.231 145.924 331.23 145.54 331.995 144.825C333.487 143.421 334.902 141.892 336.25 140.299C337.72 138.569 338.964 136.556 340.528 134.963C341.668 133.807 343.106 132.945 344.531 132.303C345.747 131.756 346.973 132.324 347.868 133.496C348.737 134.637 349.049 136.109 348.416 137.365C347.086 140.025 346.928 143.001 346.448 145.871C344.187 159.455 343.065 173.175 342.857 187.005C342.749 194.16 343.902 200.957 346.901 207.276C347.71 208.984 348.343 210.798 348.226 213.148C347.516 212.864 346.873 212.743 346.367 212.37C345.648 211.839 344.947 211.202 344.382 210.461C339.791 204.421 336.933 197.509 336.363 189.366C335.753 180.645 336.436 171.997 337.281 163.36C337.792 158.104 338.548 152.878 339.221 147.416C338.837 147.8 338.52 148.11 338.213 148.431C336.015 150.718 333.595 152.584 330.719 153.509C327.327 154.597 324.786 153.231 323.402 149.467C322.678 147.495 322.185 145.414 321.557 143.395C320.991 141.571 320.526 141.334 319.128 142.38C318.133 143.122 317.251 144.073 316.342 144.962C314.235 147.017 312.204 149.183 310.02 151.123C308.826 152.179 307.447 153.036 306.049 153.677C301.658 155.701 297.529 153.33 296.33 148.021C295.824 145.776 295.819 143.39 295.458 141.093C295.136 139.037 294.757 136.976 294.178 135.005C293.735 133.491 293.327 133.486 292.156 134.406C289.922 136.162 288.683 138.664 288.113 141.676C287.34 145.766 287.548 149.856 288.24 153.909C288.742 156.842 289.217 159.78 290.501 162.488C291.627 164.869 290.198 167.518 287.756 167.95C285.748 168.302 283.993 167.503 282.853 165.658C281.501 163.466 280.14 161.163 279.326 158.666C277.033 151.643 276.784 144.389 278.516 137.134C279.982 131 283.052 126.242 288.05 123.409C293.251 120.46 298.212 122.2 301.26 127.909C303.394 131.904 303.869 136.398 304.168 140.945C304.24 142.07 304.308 143.19 304.403 144.693C305.412 143.816 306.248 143.222 306.949 142.459C308.568 140.698 310.02 138.716 311.725 137.082C313.353 135.52 315.076 133.907 316.998 132.987C321.629 130.763 326.278 133.481 327.766 139.032C328.241 140.798 328.44 142.664 328.77 144.488C328.874 145.077 329.005 145.666 329.186 146.549Z" fill="#121212"/>
<path d="M276.373 233.654C275.989 234.89 275.695 236.088 275.256 237.213C273.094 242.738 268.49 245.587 263.981 244.22C261.458 243.453 259.64 241.587 258.265 239.095C256.438 235.788 255.438 232.119 254.828 228.282C254.769 227.919 254.701 227.562 254.602 227.01C254.122 227.351 253.761 227.63 253.381 227.872C251.002 229.37 248.714 231.147 246.217 232.298C236.494 236.777 227.34 230.737 225.473 218.772C224.64 213.447 225.224 208.316 227.055 203.359C228.901 198.371 231.569 194.055 234.965 190.349C239.533 185.365 244.566 181.076 249.812 177.112C251.337 175.961 252.644 175.94 253.702 176.912C254.679 177.811 255.081 179.719 254.647 181.386C254.249 182.895 253.177 183.389 252.074 182.463C251.563 182.032 251.219 181.927 250.681 182.353C240.677 190.212 233.907 200.5 232.541 214.861C232.455 215.76 232.46 216.669 232.437 217.579C232.243 225.816 239.139 229.265 243.816 227.335C245.494 226.642 247.126 225.638 248.596 224.465C250.314 223.093 251.924 221.49 253.394 219.771C254.407 218.588 255.104 217.037 255.922 215.634C256.176 215.203 256.325 214.688 256.583 214.262C257.691 212.417 259.576 211.828 261.123 212.821C262.62 213.778 263.271 215.918 262.493 217.926C260.413 223.277 261.105 228.545 262.738 233.786C263.054 234.795 263.561 235.783 264.158 236.603C265.7 238.727 268.264 238.659 269.472 236.272C270.209 234.816 270.607 232.992 270.738 231.289C270.937 228.734 270.729 226.137 270.774 223.561C270.806 221.716 271.733 220.323 273.058 219.871C274.419 219.408 275.817 219.971 276.762 221.411C277.06 221.863 277.291 222.373 277.54 222.867C278.015 223.819 278.363 224.886 278.964 225.706C280.475 227.761 281.931 229.953 283.717 231.641C286.539 234.311 289.646 233.917 292.283 231.015C297.895 224.833 299.483 216.065 296.457 207.796C291.378 193.929 280.629 187.626 269.725 188.656C264.018 189.192 260.296 193.219 257.89 198.98C256.84 201.488 257.406 203.259 259.391 204.905C259.459 204.963 259.531 205.005 259.595 205.068C260.3 205.746 261.358 206.271 260.938 207.638C260.549 208.895 259.513 209.131 258.5 209.173C256.433 209.263 254.823 208.274 253.747 206.229C252.214 203.322 251.852 200.174 252.937 197.025C255.059 190.874 258.297 185.738 263.592 182.789C266.442 181.202 269.539 180.928 272.637 181.223C283.224 182.227 291.428 187.915 297.054 198.413C299.804 203.543 302.124 208.958 302.685 215.071C303.557 224.607 300.057 231.925 293.486 237.224C289.113 240.751 284.468 240.23 280.059 236.95C278.788 236.009 277.657 234.816 276.373 233.654Z" fill="#121212"/>
<path d="M52.7914 56.7735C52.5834 61.778 52.407 66.7877 52.1628 71.7922C51.9547 76.0607 50.8196 80.0296 49.1192 83.7882C48.4046 85.3652 47.5273 86.753 45.6821 86.3272C45.5329 86.2957 45.361 86.3798 45.2027 86.4324C36.0809 89.4445 26.9546 92.4514 17.8373 95.4846C16.1414 96.047 14.4726 96.7357 12.7902 97.3612C11.9671 97.6661 11.1531 98.0026 10.3165 98.2444C5.4729 99.6269 2.07653 96.5044 2.38406 90.7167C2.6328 86.0013 3.27498 81.3228 3.59608 76.6127C4.17947 68.0966 4.71312 59.5754 5.14276 51.0488C5.37792 46.3861 6.74371 44.7407 10.6511 43.479C19.592 40.6036 28.75 39.1737 37.8628 37.439C41.3405 36.7766 44.8726 36.3771 48.391 36.1984C51.5387 36.0354 52.9678 37.8122 53.1622 41.4604C53.221 42.5539 53.2527 43.6578 53.221 44.7512C53.1125 48.7569 52.9723 52.7678 52.8457 56.7735C52.8321 56.7788 52.814 56.7788 52.7914 56.7735ZM11.7817 88.1671C12.2792 88.0935 12.641 88.0777 12.9847 87.9884C22.9974 85.36 33.0102 82.7211 43.0138 80.0611C43.2581 79.998 43.5927 79.6458 43.6334 79.3777C44.0224 76.6495 44.4972 73.9212 44.6826 71.1719C45.1665 63.9858 45.4921 56.784 45.9308 49.5927C46.0755 47.2377 46.3831 44.8984 46.6273 42.4592C46.2067 42.5065 45.9218 42.5013 45.6504 42.5696C41.0013 43.7787 36.3296 44.8826 31.7122 46.2336C26.2174 47.8422 20.7679 49.6663 15.3002 51.3958C14.4907 51.6534 13.9616 52.0266 13.9796 53.2409C14.1425 63.8229 13.0164 74.3049 12.0712 84.8028C11.9717 85.8699 11.8857 86.9475 11.7817 88.1671Z" fill="#121212"/>
<path d="M292.052 56.6736C290.596 59.1075 289.284 61.41 287.864 63.6284C286.888 65.1528 285.874 66.6931 284.681 67.9862C282.08 70.7986 278.747 70.1888 277.445 66.3619C276.423 63.3497 276.133 60.0012 275.532 56.7998C275.455 56.3897 275.446 55.9639 275.387 55.3384C274.862 55.6275 274.433 55.8535 274.008 56.0954C268.956 58.9919 263.882 61.8778 258.315 63.1658C256.537 63.5758 254.615 63.6652 252.824 63.3813C248.677 62.7242 246.366 58.8026 247.298 54.04C247.7 51.9793 248.334 49.8345 249.342 48.1103C251.156 45.0088 253.069 41.8757 255.402 39.3209C262.941 31.0677 271.52 24.5546 281.108 19.9233C282.912 19.0507 284.861 18.5513 286.765 17.9941C287.837 17.6787 288.886 17.8995 289.741 18.8614C289.936 19.0822 290.221 19.2399 290.487 19.3293C293.196 20.2282 295.435 22.0576 297.113 24.5703C299.749 28.5234 302.413 32.5081 304.607 36.7924C307.514 42.4697 308.582 48.7832 307.836 55.4067C307.732 56.3477 307.546 57.2939 307.284 58.1928C306.262 61.6939 303.693 63.5285 300.554 62.9713C297.38 62.4035 294.743 60.6951 292.758 57.7145C292.563 57.4148 292.36 57.1257 292.052 56.6736ZM282.257 60.6162C282.352 60.6425 282.446 60.6635 282.537 60.6898C282.826 60.2482 283.152 59.8382 283.405 59.3703C285.35 55.7221 287.281 52.0634 289.221 48.4099C290.112 46.733 291.283 45.5082 293.101 45.6501C294.96 45.792 296.009 47.2009 296.746 49.0407C297.212 50.2077 297.624 51.4273 298.243 52.4787C298.732 53.304 299.505 53.9085 300.152 54.6077C300.283 54.5131 300.414 54.4184 300.545 54.3238C300.545 53.3303 300.582 52.342 300.541 51.3485C300.364 47.2534 299.076 43.663 296.9 40.4564C293.314 35.1575 289.511 30.1005 285.151 25.6269C284.445 24.9015 283.993 24.7806 283.17 25.3431C275.993 30.2477 269.245 35.8199 263.176 42.4592C260.237 45.6764 257.555 49.1564 255.447 53.1831C255.054 53.9348 254.742 54.7444 254.272 55.801C255.058 55.801 255.588 55.8851 256.09 55.7852C257.378 55.5224 258.695 55.2963 259.938 54.839C265.578 52.7468 271.127 50.4653 275.839 46.0233C278.204 43.7945 281.126 45.2401 281.745 48.7148C281.904 49.598 281.949 50.5126 281.976 51.4168C282.026 53.1831 282.008 54.9494 282.058 56.7157C282.085 58.0088 282.184 59.3125 282.257 60.6162Z" fill="#121212"/>
<path d="M258.753 135.121C259.011 131.651 259.255 128.387 259.522 124.854C258.934 125.243 258.523 125.517 258.111 125.795C256.031 127.188 253.869 128.324 251.44 128.576C247.633 128.976 245.674 126.678 246.068 122.289C246.538 117.079 248.433 112.553 251.201 108.548C255.19 102.77 257.704 96.1995 259.346 89.1238C259.707 87.5678 259.916 85.9434 260.006 84.3349C260.101 82.5791 259.662 82.0902 258.183 82.4424C255.456 83.089 252.603 83.5148 250.088 84.7975C246.348 86.7057 242.803 89.1659 239.289 91.6155C237.181 93.0822 235.625 95.2953 234.73 98.0288C234.011 100.226 234.278 100.994 235.924 102.339C236.403 102.728 236.679 103.454 237.05 104.022C236.507 104.369 235.992 104.92 235.413 105.036C230.872 105.94 227.824 102.739 228.172 97.4033C228.435 93.3713 229.918 89.8703 232.432 87.1788C239.474 79.6458 247.696 75.0251 257.356 74.226C257.6 74.205 257.849 74.2155 258.097 74.2155C263.448 74.2365 266.717 77.9058 266.55 84.1509C266.478 86.8266 265.958 89.5601 265.27 92.1307C263.307 99.4744 260.449 106.298 256.352 112.427C254.787 114.766 253.742 117.584 252.503 120.213C252.259 120.733 252.187 121.364 251.956 122.242C252.671 122.005 253.218 121.968 253.629 121.669C255.529 120.27 257.415 118.841 259.251 117.337C259.947 116.764 260.508 115.97 261.128 115.271C262.389 113.852 263.583 113.494 264.786 114.172C266.012 114.861 266.446 116.296 266.292 118.341C265.745 125.469 265.216 132.603 264.764 139.742C264.569 142.827 262.846 144.541 260.291 143.705C253.453 141.466 246.818 142.475 240.392 145.503C233.807 148.605 227.779 152.878 222.343 158.23C221.57 158.992 220.864 159.854 220.027 160.785C220.511 161.121 220.846 161.352 221.176 161.578C220.715 163.634 218.657 164.543 216.957 163.402C215.446 162.393 214.727 160.742 215.03 158.813C215.274 157.257 215.736 155.612 216.509 154.334C217.653 152.442 218.965 150.555 220.538 149.167C228.24 142.375 236.562 137.019 246.267 135.126C249.898 134.416 253.534 134.285 257.188 134.9C257.65 134.989 258.134 135.042 258.753 135.121Z" fill="#121212"/>
<path d="M168.404 163.329C168.422 157.983 169.697 153.068 172.162 148.562C174.83 143.674 178.127 139.447 182.147 136.014C188.348 130.716 194.991 126.384 202.412 123.845C207.378 122.147 212.335 120.381 217.373 119.025C226.495 116.564 234.015 111.092 240.433 103.343C241.758 101.74 242.875 100.011 243.341 97.787C243.589 96.5937 244.2 95.7053 245.376 95.6633C246.57 95.6212 247.456 96.3782 247.651 97.6293C247.89 99.138 247.981 100.762 247.755 102.266C247.28 105.446 245.756 108.069 244.015 110.54C238.063 118.988 230.651 124.86 221.592 127.882C216.224 129.675 210.86 131.494 205.506 133.344C198.971 135.604 193.055 139.321 187.629 144.052C182.328 148.673 178.357 154.445 176.815 162.13C176.648 162.966 176.535 163.818 176.458 164.675C175.929 170.615 177.765 175.067 182.432 177.901C186.258 180.224 190.152 181.922 194.571 180.997C194.801 180.95 195.072 181.139 195.321 181.218C195.109 181.565 194.964 182.038 194.675 182.248C190.876 185.013 186.796 185.271 182.581 183.904C181.36 183.51 180.157 182.989 179 182.39C171.859 178.663 168.408 172.428 168.404 163.329Z" fill="#121212"/>
<path d="M93.48 89.4655C90.7846 90.5274 88.3063 91.5052 85.8235 92.4882C82.1919 93.9233 78.5106 95.3636 74.6304 94.6067C72.5681 94.2019 70.4426 93.4397 68.6291 92.2569C64.5046 89.5706 63.5503 84.7396 65.9156 79.9822C67.2542 77.2855 69.1627 75.1933 71.3154 73.3902C74.6032 70.6409 78.1308 68.3227 81.9749 66.8981C86.6963 65.1476 91.4856 63.5495 96.3382 62.3877C101.078 61.2523 105.894 61.3521 110.634 63.7072C111.194 60.6845 111.755 57.7723 112.271 54.8442C112.592 53.0201 112.841 51.1802 113.126 49.3509C113.297 48.2522 113.628 47.2587 114.776 47.2376C115.975 47.2166 116.554 48.2049 116.517 49.3666C116.427 52.3104 116.269 55.2595 115.925 58.1718C115.513 61.6676 114.88 65.1265 114.338 68.6013C113.953 71.0562 111.936 72.3651 110.322 70.888C107.115 67.9442 103.511 67.9494 99.8793 68.6749C90.9338 70.4674 82.6397 74.2103 75.3314 80.5973C74.255 81.5383 73.251 82.6212 72.3239 83.7619C71.2385 85.0971 71.3516 85.5387 72.7852 86.4061C74.8655 87.6677 77.1449 88.1461 79.3744 87.5573C84.4893 86.2063 89.5861 84.7186 94.6151 82.9996C97.306 82.0797 99.0652 83.2099 98.9793 86.527C98.9115 89.1028 98.6673 91.6681 98.5044 94.2387C98.4728 94.7539 98.4502 95.2743 98.414 96.0786C98.9522 95.7421 99.3411 95.5371 99.6939 95.2743C101.421 93.9864 103.113 92.6301 104.872 91.4C107.02 89.9018 108.951 90.6798 109.797 93.4134C110.322 95.1166 110.625 96.9091 111.077 98.6439C111.611 100.699 112.036 101.214 113.885 101.104C116.422 100.946 118.941 100.463 121.469 100.205C122.437 100.105 123.464 100.047 124.382 100.326C124.929 100.494 125.617 101.293 125.707 101.914C125.797 102.539 125.377 103.501 124.916 103.943C124.314 104.526 123.477 104.899 122.695 105.089C120.126 105.72 117.549 106.303 114.953 106.75C113.917 106.929 112.814 106.813 111.764 106.645C109.232 106.24 107.445 104.642 106.582 101.808C106.156 100.426 105.835 99.0014 105.41 97.377C104.442 98.1024 103.533 98.8016 102.606 99.464C101.381 100.337 100.187 101.293 98.8979 102.008C95.8678 103.69 93.272 101.956 93.1001 98.0288C93.0006 95.7106 93.2855 93.3661 93.3986 91.032C93.4121 90.6062 93.4393 90.1857 93.48 89.4655Z" fill="#121212"/>
<path d="M348.823 59.6332C348.972 58.2349 349.117 56.8733 349.27 55.5171C349.347 54.8547 349.388 54.1766 349.546 53.5405C349.822 52.4313 350.437 51.6586 351.496 51.7322C352.54 51.8058 353.232 52.6048 353.232 53.7718C353.232 56.2898 353.309 58.8604 352.925 61.3206C352.102 66.5721 351.021 71.7711 350.008 76.9806C349.858 77.7639 349.569 78.5208 349.252 79.241C349.112 79.5617 348.705 79.9875 348.488 79.9402C348.226 79.8824 347.873 79.3987 347.841 79.0623C347.715 77.7376 347.593 76.3971 347.665 75.0724C347.837 71.8815 348.117 68.6959 348.343 65.5103C348.366 65.1843 348.348 64.8584 348.348 64.359C347.751 64.501 347.213 64.6639 346.666 64.7585C341.306 65.6522 336.065 65.0897 331.054 62.7031C323.664 59.1811 320.689 52.2421 322.755 43.2793C323.343 40.7245 324.121 38.0855 325.36 35.8987C332.546 23.2298 342.36 15.986 355.828 17.2528C361.811 17.8153 367.035 20.4858 370.58 26.5626C375.103 34.3112 374.492 43.8155 368.74 50.3759C366.709 52.6889 364.226 54.4868 361.897 56.4318C361.291 56.9364 360.979 57.4095 360.78 58.2822C359.532 63.8123 358.198 69.3162 356.85 74.8148C356.674 75.5297 356.294 76.2026 355.909 76.8124C355.249 77.8585 354.286 77.7586 353.96 76.518C353.63 75.2616 353.359 73.8791 353.454 72.5964C353.933 66.1358 354.431 59.67 355.15 53.2409C355.593 49.2668 357.917 48.4309 360.595 51.1487C363.078 48.9198 365.628 46.7487 367.207 43.437C370.653 36.1931 367.926 27.2723 361.291 24.1393C357.022 22.1206 352.585 21.8631 348.235 23.4033C339.742 26.3997 333.261 32.3977 329.435 41.8442C328.648 43.7892 328.237 46.0128 327.992 48.1628C327.653 51.1487 328.689 53.6141 330.941 55.2069C331.986 55.9481 333.089 56.6525 334.247 57.0836C338.937 58.8184 343.785 59.4281 348.823 59.6332Z" fill="#121212"/>
<path d="M127.462 216.827C127.543 206.918 128.818 197.151 130.139 187.389C130.781 182.632 131.396 177.864 131.98 173.091C132.206 171.224 132.821 169.684 134.318 168.817C139.537 165.784 144.814 162.898 150.522 161.326C151.96 160.932 153.525 161.131 155.031 161.068C155.397 161.053 155.768 161.11 156.13 161.063C158.391 160.748 159.811 162.067 159.784 164.748C159.766 166.982 159.63 169.243 159.322 171.445C158.11 180.156 156.808 188.851 155.546 197.551C155.46 198.155 155.279 198.812 155.388 199.38C155.718 201.099 155.022 202.113 153.95 203.144C149.328 207.575 144.643 211.938 140.22 216.627C137.904 219.082 136.095 222.173 134.024 224.944C133.327 225.874 132.631 226.868 131.767 227.541C130.049 228.881 128.434 228.161 128.077 225.79C127.701 223.314 127.647 220.77 127.466 218.257C127.435 217.784 127.462 217.306 127.462 216.827ZM153.077 167.34C148.482 169.248 144.113 171.041 139.767 172.907C139.464 173.038 139.179 173.711 139.157 174.153C138.994 177.049 139.179 180.009 138.745 182.842C137.411 191.574 135.842 200.263 134.372 208.968C133.983 211.26 133.621 213.557 133.228 215.991C133.513 215.849 133.608 215.839 133.658 215.776C138.37 209.662 144.163 204.973 149.445 199.616C149.785 199.27 150.074 198.597 150.065 198.087C149.97 191.09 150.73 184.183 151.63 177.291C152.059 174.047 152.57 170.825 153.077 167.34Z" fill="#121212"/>
<path d="M106.559 0.0419978C100.969 11.9486 96.7677 24.2338 95.5783 37.7017C95.4969 38.6164 95.5693 39.5521 95.5693 40.4826C95.7637 40.6035 95.9537 40.7191 96.1481 40.84C96.5597 40.1934 96.935 39.5101 97.3873 38.9055C100.196 35.1732 102.475 31.0571 104.117 26.4732C106.152 20.7906 108.196 15.108 110.249 9.43064C110.439 8.90496 110.661 8.38454 110.941 7.91668C111.99 6.1504 113.673 5.4565 115.242 6.09257C116.752 6.70762 117.824 8.59481 117.598 10.6555C117.453 11.9592 117.083 13.2576 116.653 14.4824C115.789 16.9426 114.817 19.3555 113.817 21.9681C116.97 22.1889 119.936 22.0259 122.867 21.332C123.188 21.2532 123.5 20.6487 123.667 20.2071C126.042 14.0987 127.909 7.79052 129.094 1.22478C129.162 0.856802 129.266 0.499339 129.361 0.0998226C131.147 0.0998226 132.907 0.0998226 134.838 0.0998226C134.254 2.53898 133.825 4.92556 133.11 7.1965C131.365 12.7477 129.488 18.2463 127.656 23.7607C127.109 25.4166 126.033 26.2471 124.522 26.2682C120.669 26.3313 116.816 26.4259 112.963 26.3786C112.099 26.3681 111.922 26.878 111.692 27.5456C109.575 33.6908 106.64 39.2314 102.606 43.931C101.421 45.3083 100.16 46.6593 98.7576 47.7054C95.1351 50.4074 91.3136 48.8251 89.7986 44.1255C88.9122 41.371 88.867 38.4902 89.1836 35.6358C90.5493 23.2771 94.4025 11.9329 99.6304 1.14593C100.051 0.278554 100.562 -0.015827 101.399 0.0209706C103.104 0.0945657 104.813 0.0419978 106.559 0.0419978Z" fill="#121212"/>
<path d="M344.902 97.9868C346.846 95.3373 348.642 92.8193 350.514 90.3802C350.871 89.9176 351.599 89.4129 352.011 89.5443C352.504 89.7021 353.173 90.5326 353.164 91.0583C353.151 92.0413 352.879 93.1505 352.404 93.9653C351.346 95.7737 350.071 97.4138 348.927 99.159C348.031 100.526 347.203 101.95 346.349 103.354C345.001 105.578 343.029 105.551 341.55 103.48C338.909 99.7794 336.169 96.1732 333.433 92.5618C333.22 92.2831 332.704 92.1202 332.379 92.1885C323.289 94.1178 314.18 95.9471 305.131 98.0972C300.188 99.2694 295.349 101.02 290.456 102.466C289.103 102.865 287.724 103.223 286.34 103.359C285.35 103.459 284.242 103.422 283.346 102.997C281.067 101.908 280.533 98.4967 282.27 96.4413C282.795 95.821 283.514 95.2848 284.228 95.0377C290.053 93.0191 295.815 90.6062 301.753 89.2289C310.563 87.1893 319.503 85.9014 328.39 84.2928C329.81 84.0352 331.23 83.7776 332.646 83.4885C335.129 82.9839 336.589 83.8302 337.96 86.2431C340.18 90.1279 342.5 93.9338 344.902 97.9868Z" fill="#121212"/>
<path d="M205.899 30.4737C205.886 27.8663 205.556 25.5533 206.605 23.3244C207.491 21.4425 208.73 20.265 210.499 20.4227C212.226 20.5751 214.022 20.9589 215.613 21.7316C220.068 23.8764 223.849 27.2355 227.25 31.1781C227.593 31.5776 227.896 32.0507 228.145 32.5396C229.158 34.5162 228.778 36.4822 226.992 37.4862C225.151 38.5218 223.207 39.3104 221.289 40.1567C218.218 41.5077 215.125 42.7798 212.068 44.1571C211.159 44.5672 210.309 45.1769 209.472 45.771C208.043 46.7908 206.582 46.8381 205.451 45.813C204.321 44.7879 203.882 43.0847 204.497 41.2817C205.727 37.6965 206.035 33.9852 205.899 30.4737Z" fill="#121212"/>
<path d="M65.7755 24.7227C64.776 25.711 63.9032 26.6415 62.9715 27.4825C61.2937 29.007 59.6882 30.705 57.8566 31.9403C53.3658 34.963 48.7981 33.5804 46.252 28.3342C45.0761 25.916 44.3299 23.1825 43.5792 20.5225C43.0546 18.6669 43.7827 16.9847 45.0716 16.2645C46.3877 15.5338 48.0429 16.0017 48.9971 17.5787C49.6303 18.6196 50.0463 19.8339 50.5393 20.9851C51.0458 22.1837 51.4528 23.4453 52.0362 24.5861C52.7462 25.9844 53.5512 26.2893 54.7271 25.4429C56.1155 24.4441 57.3908 23.2298 58.6707 22.0418C60.4344 20.4016 62.067 18.5565 63.9077 17.0531C66.8789 14.6244 69.6331 15.455 71.2069 19.2714C72.0888 21.4109 72.6541 23.7292 73.3054 25.9896C74.0877 28.7179 74.9018 31.3673 76.765 33.4648C78.0494 34.9157 77.2263 37.2812 75.3314 37.8647C73.4546 38.443 71.718 37.8122 70.4833 36.2194C69.3799 34.7948 68.4844 33.0758 67.788 31.3305C66.9739 29.2751 66.4719 27.0515 65.7755 24.7227Z" fill="#121212"/>
<path d="M197.976 171.782C195.963 165.836 197.175 160.464 199.776 155.328C200.092 154.702 200.653 154.182 201.191 153.772C202.078 153.094 203.064 153.004 203.968 153.756C204.904 154.534 204.936 155.617 204.66 156.837C203.927 160.064 203.299 163.329 202.535 166.541C201.879 169.295 202.67 171.393 204.461 173.133C204.836 173.495 205.239 173.811 205.646 174.163C203.819 176.019 201.264 175.451 198.767 172.907C194.385 175.44 189.352 174.857 186.946 168.78C186.29 167.129 185.842 165.232 185.77 163.423C185.508 156.579 187.131 150.302 190.527 144.688C191.156 143.647 191.952 142.701 192.802 141.897C193.924 140.835 195.303 140.856 196.221 141.718C197.126 142.57 197.325 143.868 196.714 145.492C194.521 151.338 193.331 157.452 193.16 163.818C193.046 167.971 194.543 170.352 197.976 171.782Z" fill="#121212"/>
<path d="M228.38 74.0526C227.707 74.9673 226.929 76.1343 226.051 77.1909C225.16 78.258 224.084 79.0098 222.741 78.4788C221.429 77.9584 221.09 76.6337 220.9 75.1986C220.647 73.2641 220.258 71.3506 220.109 69.4108C220.041 68.4962 220.181 67.3554 220.611 66.63C221.357 65.3841 222.999 65.7048 223.691 67.1452C224.084 67.9652 224.288 68.9114 224.618 69.9365C224.771 69.5055 224.903 69.148 225.029 68.7958C226.051 65.9781 228.389 65.3578 230.429 67.3344C231.112 67.9968 231.836 68.6223 232.604 69.1322C232.903 69.3267 233.509 69.332 233.735 69.1007C233.938 68.8957 233.952 68.1755 233.807 67.8128C233.369 66.6931 232.966 65.484 232.283 64.5798C228.973 60.2009 225.201 56.6368 220.014 55.7064C218.209 55.3804 217.45 53.1148 218.702 51.4851C219.381 50.5967 220.484 49.8976 221.493 49.6558C224.432 48.9514 227.241 49.7031 229.719 51.6323C233.875 54.8705 236.941 59.2284 238.981 64.5378C239.329 65.4419 239.528 66.4407 239.668 67.4238C240.378 72.3599 237.19 76.2657 232.916 75.5666C231.415 75.3142 229.963 74.5888 228.38 74.0526Z" fill="#121212"/>
<path d="M21.5187 0.0473302C24.6075 0.0473302 27.4295 0.0315598 30.2515 0.0736142C30.5048 0.078871 30.853 0.383765 30.9932 0.657119C33.874 6.2083 35.2308 12.159 34.0685 18.6143C32.6756 26.3629 27.4069 31.4725 20.37 32.1559C17.0143 32.4818 13.8033 31.914 10.8095 30.0899C9.26279 29.149 8.0146 27.8243 7.91058 25.6164C7.87893 24.9383 7.95581 24.0867 8.28595 23.5873C8.69297 22.9775 9.40752 22.3362 10.0135 22.2994C10.5472 22.2678 11.1396 23.0195 11.6507 23.5032C12.1979 24.0236 12.5958 24.8804 13.2064 25.1801C16.345 26.7151 19.5785 26.8991 22.8392 25.6795C26.3351 24.3758 27.8682 21.2638 28.3521 17.3212C28.8405 13.347 27.927 9.74087 25.8602 6.54473C24.5216 4.45253 23.1015 2.40763 21.5187 0.0473302Z" fill="#121212"/>
<path d="M140.052 102.108C143.697 101.714 147.08 101.33 150.472 100.988C151.779 100.857 153.095 100.72 154.402 100.747C155.795 100.778 156.591 101.577 156.717 102.797C156.844 104.043 156.279 105.073 154.949 105.494C153.412 105.982 151.829 106.282 150.25 106.592C146.447 107.339 142.639 108.038 138.836 108.763C138.673 108.795 138.515 108.853 138.356 108.884C136.778 109.189 135.195 109.384 134.046 107.712C132.92 106.077 133.463 104.395 134.064 102.718C135.068 99.9003 136.041 97.0669 137.009 94.2334C137.203 93.6657 137.293 93.0559 137.492 92.1991C136.638 92.0519 135.892 91.8153 135.145 91.8101C133.092 91.789 131.043 91.9047 128.99 91.8889C128.135 91.8837 127.254 91.8311 126.44 91.563C125.268 91.1792 124.59 90.1594 124.518 88.7191C124.441 87.2156 125.074 86.1432 126.227 85.5387C126.702 85.2864 127.263 85.0866 127.769 85.1287C131.12 85.3757 134.471 85.6543 137.814 86.0276C138.605 86.1169 139.401 86.5217 140.138 86.9317C142.087 88.0146 143.123 89.9544 142.671 92.4093C142.169 95.1429 141.305 97.787 140.586 100.468C140.45 100.952 140.274 101.425 140.052 102.108Z" fill="#121212"/>
<path d="M341.514 41.3868C344.775 40.6246 347.932 39.5049 350.763 37.3864C351.197 37.0605 351.455 36.356 351.699 35.7725C352.68 33.407 354.856 32.9444 356.448 34.8053C357.718 36.293 358.98 37.7912 360.242 39.2893C360.5 39.5942 360.753 39.9149 360.961 40.2671C361.725 41.555 361.725 43.069 360.984 43.9679C360.201 44.9194 359.062 44.9299 357.845 43.9311C356.913 43.1636 356.018 42.3278 355.1 41.5235C350.143 45.5922 344.581 47.6109 338.72 48.6254C337.571 48.8252 336.318 48.7726 335.197 48.4519C332.886 47.7843 331.864 45.1402 332.813 42.5906C333.103 41.8126 333.519 41.0714 333.976 40.4143C336.915 36.1826 340.524 32.9496 344.843 30.8206C345.331 30.5788 345.901 30.2319 346.363 30.3423C347.1 30.5157 347.95 30.8469 348.434 31.4515C349.058 32.2347 348.764 33.3071 348.126 34.0325C347.249 35.0313 346.286 35.925 345.359 36.8712C344.011 38.2432 342.668 39.6153 341.32 40.9873C341.383 41.1082 341.451 41.2449 341.514 41.3868Z" fill="#121212"/>
<path d="M400.867 183.394C400.682 183.767 400.442 184.64 399.935 185.181C398.764 186.438 397.539 187.663 396.204 188.667C391.967 191.857 387.662 194.927 383.401 198.081C376.79 202.976 370.196 207.912 363.584 212.801C362.444 213.642 361.255 214.414 360.038 215.103C359.392 215.471 358.614 215.871 357.944 215.771C357.271 215.671 356.398 215.14 356.108 214.493C355.851 213.925 356.068 212.753 356.447 212.186C357.063 211.271 357.926 210.53 358.786 209.894C364.113 205.935 369.386 201.872 374.831 198.15C381.249 193.766 387.449 189.04 393.382 183.815C394.744 182.616 396.259 181.591 397.814 180.776C399.411 179.935 400.885 181.097 400.867 183.394Z" fill="#121212"/>
<path d="M53.8587 101.761C60.353 102.176 65.5945 105.504 69.9361 110.913C71.727 113.147 72.9526 115.807 73.4546 118.83C74.0153 122.184 73.0837 124.949 70.7501 127.036C69.8456 127.845 69.4522 127.656 68.9728 126.479C65.5674 118.02 60.2218 112.085 52.4342 109.32C51.6111 109.026 50.7699 108.779 49.9739 108.406C48.6036 107.764 47.8846 106.534 47.9795 105.152C48.079 103.685 48.9654 102.513 50.4398 102.182C51.5613 101.919 52.7191 101.887 53.8587 101.761Z" fill="#121212"/>
<path d="M247.312 25.9791C243.784 26.8623 240.569 27.593 237.385 28.4919C234.739 29.2384 233.491 28.0293 233.631 24.8542C233.762 21.8578 233.776 18.8562 232.813 15.9649C232.202 14.1303 233.179 12.5217 234.929 12.364C237.995 12.0907 241.061 11.8489 244.128 11.6176C245.326 11.5282 246.258 12.322 246.393 13.5048C246.534 14.677 245.837 15.7126 244.575 15.9124C242.626 16.2225 240.659 16.396 238.705 16.6378C238.429 16.6693 238.158 16.7745 237.819 16.8586C237.964 18.7037 238.099 20.4858 238.249 22.3677C240.998 21.8315 243.644 21.1008 246.317 20.8695C248.524 20.675 249.749 19.6552 250.201 17.1687C250.342 16.396 250.726 15.6706 251.056 14.9556C251.522 13.9516 252.232 13.3418 253.263 13.531C254.299 13.7255 254.891 14.5771 254.95 15.6916C255.018 16.9059 255.072 18.2622 254.697 19.3503C253.25 23.54 251.63 27.6561 250.061 31.7932C249.948 32.0928 249.781 32.4608 249.55 32.5817C248.926 32.9234 248.234 33.428 247.61 33.3597C246.71 33.2598 246.416 32.2295 246.475 31.278C246.543 30.0952 246.76 28.923 246.932 27.7507C247.004 27.2881 247.126 26.8465 247.312 25.9791Z" fill="#121212"/>
<path d="M297.547 179.388C297.769 178.305 298.112 176.492 298.501 174.694C298.963 172.57 299.478 170.462 299.948 168.339C300.346 166.541 301.387 165.279 302.974 165.353C304.281 165.41 305.692 165.742 306.845 166.43C309.355 167.934 311.752 169.705 314.158 171.435C315.46 172.371 316.234 173.748 316.066 175.619C315.899 177.506 314.809 178.458 313.421 179.22C310.725 180.708 308.084 182.322 305.421 183.888C304.801 184.256 304.209 184.708 303.566 185.003C300.396 186.48 297.461 184.098 297.547 179.388Z" fill="#121212"/>
<path d="M125.191 120.959C129.94 121.238 134.689 121.479 139.433 121.816C141.106 121.937 142.101 122.941 142.323 124.397C142.531 125.774 141.893 126.999 140.41 127.851C138.677 128.839 136.859 129.633 135.177 130.721C132.64 132.361 130.189 134.185 127.701 135.93C127.177 136.298 126.688 136.761 126.128 137.039C124.554 137.817 123.052 137.034 122.424 135.173C122.333 134.905 122.234 134.632 122.207 134.353C121.962 131.904 121.166 129.717 120.199 127.525C118.693 124.113 119.973 121.511 123.238 120.896C123.884 120.775 124.54 120.738 125.196 120.665C125.191 120.764 125.191 120.864 125.191 120.959Z" fill="#121212"/>
<path d="M215.184 13.1577C212.389 13.1577 209.599 13.1945 206.804 13.1315C205.958 13.1104 205.081 12.9264 204.276 12.6058C203.308 12.222 202.761 11.3126 202.743 10.0825C202.725 8.84717 203.236 7.89043 204.203 7.5172C205.121 7.16499 206.125 6.98101 207.093 6.95998C211.819 6.86536 216.541 6.8601 221.267 6.81279C222.13 6.80228 222.99 6.74445 223.853 6.73919C225.852 6.72868 227.223 8.15853 227.209 10.2087C227.195 12.2536 225.798 13.6256 223.804 13.6151C220.927 13.5941 218.056 13.6098 215.179 13.6098C215.184 13.4626 215.184 13.3102 215.184 13.1577Z" fill="#121212"/>
<path d="M213.569 197.882C211.634 197.861 209.978 197.162 209.06 195.043C208.093 192.804 208.59 190.696 209.685 188.682C210.051 188.015 210.331 187.284 210.648 186.58C210.684 186.495 210.702 186.401 210.734 186.312C212.262 182.327 218.693 180.823 221.384 183.83C222.872 185.491 223.139 187.563 222.664 189.781C221.75 194.039 217.341 197.934 213.569 197.882ZM213.018 193.434C215.188 193.477 217.649 191.311 218.295 189.103C218.684 187.778 218.291 187.174 217.133 187.636C215.645 188.235 214.157 188.992 212.864 190.012C212.366 190.401 212.308 191.705 212.262 192.609C212.249 192.935 212.877 193.293 213.018 193.434Z" fill="#121212"/>
<path d="M286.643 82.9628C285.549 82.9313 284.816 82.4477 284.595 81.2281C284.378 80.0453 284.911 78.9992 286.055 78.6365C288.348 77.9058 290.668 77.296 292.975 76.6179C298.542 74.983 304.105 73.3376 309.672 71.708C310.386 71.4978 311.119 71.3874 311.838 71.1981C313.19 70.8354 314.375 71.5293 314.687 72.8908C315.017 74.3259 314.262 75.6401 312.828 76.0239C308.754 77.1173 304.674 78.1844 300.6 79.2778C296.285 80.4343 291.971 81.6013 287.652 82.7578C287.299 82.8472 286.933 82.8998 286.643 82.9628Z" fill="#121212"/>
<path d="M374.008 82.1796C373.827 83.499 373.646 85.3915 373.262 87.2261C373.144 87.7781 372.534 88.4509 372.041 88.5981C369.956 89.2184 367.835 89.681 365.719 90.1594C364.633 90.4065 363.539 90.6588 362.44 90.7481C360.188 90.9374 358.917 88.7979 359.839 86.3955C360.554 84.5346 361.332 82.7 362.101 80.8654C362.508 79.8981 363.245 79.3041 364.104 79.6773C365.619 80.3397 367.007 79.772 368.432 79.404C369.273 79.1884 370.087 78.8625 370.928 78.6417C373.049 78.095 374.035 79.057 374.008 82.1796Z" fill="#121212"/>
<path d="M258.292 164.112C258.934 163.097 259.328 162.03 260.02 161.463C262.498 159.428 265.067 157.546 267.626 155.649C268.843 154.75 269.815 155.338 270.127 157.005C270.448 158.724 270.81 160.438 271.204 162.135C271.516 163.486 271.398 164.433 270.159 165.179C267.649 166.688 265.234 168.402 262.774 170.026C261.765 170.694 260.806 170.341 260.304 169.322C259.531 167.739 259.002 165.994 258.292 164.112Z" fill="#121212"/>
<path d="M18.4614 179.998C19.0086 176.282 19.4654 172.802 20.0533 169.348C20.4468 167.045 21.7673 165.852 23.3457 166.089C24.9919 166.336 26.2265 167.992 25.928 170.263C25.3446 174.678 24.5215 179.052 23.7165 183.426C23.5809 184.177 23.1241 184.903 22.6899 185.518C21.5457 187.137 20.094 187.026 19.4247 185.081C18.8639 183.452 18.7509 181.612 18.4614 179.998Z" fill="#121212"/>
<path d="M7.84724 13.2418C7.65277 14.6822 7.45831 16.1278 7.2548 17.5682C7.18696 18.036 7.12364 18.5144 6.99701 18.9665C6.73471 19.918 6.2282 20.5803 5.283 20.4174C4.41921 20.2702 4.02123 19.5605 3.9941 18.6038C3.95792 17.3159 3.9534 16.0279 3.98958 14.74C4.03933 12.8791 4.08455 11.0182 4.23379 9.16782C4.45539 6.39749 6.15131 5.3987 7.9603 7.15972C11.2888 10.4032 14.4862 13.8306 17.6791 17.2528C18.6785 18.3252 18.5971 19.8917 17.7062 20.8011C16.8379 21.6895 15.8294 21.4319 14.8118 20.2807C12.6456 17.8258 10.4205 15.4392 8.21807 13.0263C8.10049 13.0999 7.97387 13.1735 7.84724 13.2418Z" fill="#121212"/>
<path d="M78.9176 0.110352C80.808 0.110352 82.522 0.110352 84.3852 0.110352C84.0551 3.40111 83.7114 6.60776 83.4219 9.81966C83.2591 11.6175 83.1596 13.4258 83.0873 15.2342C82.9968 17.5156 81.4908 19.1715 79.6366 18.9612C77.7824 18.751 76.5478 16.7061 76.8689 14.5403C77.5111 10.2192 78.099 5.88757 78.7095 1.55597C78.7683 1.09337 78.8407 0.630775 78.9176 0.110352Z" fill="#121212"/>
<path d="M86.8229 156.19C87.049 155.601 87.3249 154.355 87.9354 153.393C89.0706 151.596 90.3821 149.934 91.6574 148.258C93.0684 146.402 94.5473 144.615 95.9583 142.754C96.8854 141.529 98.0522 141.119 99.1195 141.771C100.155 142.407 100.644 143.863 100.214 145.361C100.01 146.071 99.6938 146.775 99.314 147.38C96.8221 151.333 93.8327 154.729 90.5132 157.736C90.1288 158.088 89.7037 158.398 89.265 158.65C87.8721 159.444 86.7867 158.624 86.8229 156.19Z" fill="#121212"/>
<path d="M119.181 59.3125C119.751 55.7326 120.371 51.7952 121.004 47.8632C121.298 46.039 121.614 44.2149 121.926 42.3961C121.976 42.1175 122.035 41.8389 122.112 41.5655C122.555 40.0253 123.563 39.2683 124.708 39.61C125.766 39.9306 126.431 41.1713 126.214 42.6537C125.666 46.365 125.074 50.0657 124.482 53.7613C124.12 56.0112 123.785 58.2664 123.328 60.4847C123.016 62.0039 122.017 62.7451 120.895 62.5454C119.81 62.3561 119.127 61.2154 119.181 59.3125Z" fill="#121212"/>
<path d="M312.815 23.6661C312.81 26.4837 310.716 27.9977 308.821 26.7939C308.134 26.3576 307.551 25.5953 307.062 24.8594C304.955 21.6948 303.499 18.1359 302.481 14.3195C302.151 13.0789 302.201 11.9487 303.2 11.1234C304.086 10.3927 305.199 10.5451 306.135 11.5018C306.257 11.628 306.388 11.7542 306.479 11.9119C308.473 15.3446 310.477 18.772 312.435 22.2362C312.711 22.7304 312.747 23.4032 312.815 23.6661Z" fill="#121212"/>
<path d="M97.8667 72.2915C100.227 72.302 101.467 73.0853 101.684 74.3837C101.901 75.6979 101.159 76.6652 99.2641 77.4484C98.2963 77.8479 97.2923 78.1266 96.3336 78.5418C93.8417 79.6195 91.3362 80.6656 88.8895 81.8694C87.1755 82.7157 86.1941 82.7893 85.5339 81.7327C84.8645 80.6656 85.1404 79.1884 86.3524 77.7796C88.772 74.9567 91.897 73.7739 95.108 72.8435C96.1708 72.5386 97.2833 72.4072 97.8667 72.2915Z" fill="#121212"/>
<path d="M268.214 11.7175C265.768 11.5492 263.972 11.2075 262.928 8.89981C262.222 7.32802 262.254 5.90869 263.063 4.46832C265.053 0.92524 269.648 0.64663 271.954 3.91636C273.578 6.21884 273.13 9.32035 270.86 10.7134C269.915 11.2969 268.798 11.5072 268.214 11.7175Z" fill="#121212"/>
<path d="M-0.0625 131.578C0.00533666 130.71 0.0234248 130.185 0.0912614 129.669C0.444012 127.067 2.10375 125.28 4.12528 125.306C6.21917 125.333 8.14573 127.325 8.19548 129.948C8.22714 131.557 7.90604 133.265 7.39048 134.763C6.76639 136.572 5.40513 137.544 3.6459 137.36C1.88667 137.181 0.828422 135.909 0.312864 134.048C0.0686517 133.155 0.0279489 132.187 -0.0625 131.578Z" fill="#121212"/>
<path d="M323.664 77.4852C322.8 77.4852 321.936 77.5325 321.077 77.4747C319.286 77.3643 318.269 75.6663 319.006 73.7739C319.698 72.0023 320.562 70.2991 321.502 68.6853C322.357 67.2239 324.03 67.0557 325.048 68.2805C326.124 69.5789 327.11 70.993 328.064 72.4229C328.774 73.4847 328.887 74.678 328.291 75.9081C327.671 77.1855 326.748 77.6744 325.509 77.4904C324.899 77.4011 324.279 77.4168 323.664 77.38C323.669 77.4116 323.664 77.4484 323.664 77.4852Z" fill="#121212"/>
<path d="M311.698 13.0526C311.96 11.2074 312.711 9.97735 313.896 9.78284C315.117 9.57783 316.085 10.4557 316.501 12.1905C317.061 14.5245 317.622 16.8585 318.142 19.203C318.635 21.4214 318.242 22.9354 317.107 23.4505C315.935 23.9867 314.511 23.1456 313.814 21.0482C312.96 18.4513 312.39 15.723 311.698 13.0526Z" fill="#121212"/>
<path d="M210.413 64.1225C207.971 64.0016 206.202 62.0408 206.252 59.5018C206.302 57.0101 208.084 55.002 210.15 55.1071C212.403 55.2227 214.221 57.6093 214.139 60.3376C214.071 62.6138 212.489 64.2224 210.413 64.1225Z" fill="#121212"/>
<path d="M354.919 122.61C354.905 119.929 356.434 117.8 358.397 117.763C360.301 117.731 361.856 119.587 361.865 121.9C361.874 124.365 360.138 126.689 358.266 126.715C356.425 126.736 354.928 124.902 354.919 122.61Z" fill="#121212"/>
<path d="M366.153 36.2772C366.162 38.1854 364.593 39.2473 363.236 38.3116C362.49 37.7964 361.789 37.0131 361.327 36.1563C360.441 34.5214 359.686 32.7762 358.985 31.0204C358.614 30.0794 358.817 29.1122 359.64 28.5287C360.518 27.9136 361.364 28.208 361.942 29.0649C363.277 31.0414 364.543 33.0863 365.796 35.1312C366.031 35.4992 366.076 36.0143 366.153 36.2772Z" fill="#121212"/>
<path d="M268.468 103.002C268.463 100.883 269.829 99.18 271.552 99.159C273.32 99.138 275.193 101.104 275.211 103.002C275.233 105.189 273.551 107.186 271.715 107.149C269.802 107.107 268.477 105.415 268.468 103.002Z" fill="#121212"/>
<path d="M8.13672 0.0472591C10.71 0.0472591 13.0074 0.0262319 15.3003 0.0735431C15.5762 0.0787999 16.0239 0.399465 16.0962 0.678075C16.4987 2.27614 16.9329 3.88472 17.1183 5.52484C17.3037 7.18599 15.9606 8.15324 14.7576 7.21753C12.3019 5.30932 10.0995 3.05415 8.13672 0.0472591Z" fill="#121212"/>
<path d="M238.258 38.1171C237.009 38.0593 236.105 37.7123 235.838 36.3403C235.621 35.2206 236.195 34.2533 237.416 33.8696C238.357 33.5752 239.343 33.3755 240.315 33.3439C241.505 33.3071 242.341 34.164 242.387 35.2994C242.436 36.6136 241.767 37.3233 240.74 37.5967C239.867 37.8385 238.968 37.9752 238.258 38.1171Z" fill="#121212"/>
<path d="M158.576 151.175C158.517 149.477 159.191 148.641 160.688 148.557C161.832 148.494 162.741 149.524 162.814 150.981C162.891 152.505 161.954 154.03 160.851 153.909C159.481 153.761 158.45 153.404 158.576 151.175Z" fill="#121212"/>
<path d="M150.667 94.4279C150.662 95.5371 149.495 96.6042 148.288 96.6042C146.895 96.6042 145.9 95.5476 145.941 94.1177C145.981 92.8193 146.976 91.7837 148.184 91.789C149.455 91.789 150.676 93.0874 150.667 94.4279Z" fill="#121212"/>
<path d="M60.4976 11.2496C60.4705 12.4954 59.5931 13.3576 58.4037 13.2997C57.2053 13.2419 56.3822 12.3325 56.5405 11.034C56.6581 10.0668 56.5767 8.7526 57.8475 8.66323C59.2042 8.56861 60.5293 9.93012 60.4976 11.2496Z" fill="#121212"/>
<path d="M110.932 79.5932C109.801 79.6089 108.811 78.6312 108.811 77.4957C108.811 76.3392 109.639 75.3562 110.593 75.3825C111.561 75.4088 112.492 76.4811 112.515 77.5956C112.538 78.6522 111.796 79.5827 110.932 79.5932Z" fill="#121212"/>
<path d="M159.942 59.7856C159.006 59.7856 158.047 59.9486 157.143 59.7541C153.773 59.0339 151.327 55.4172 150.956 50.8333C150.739 48.1471 151.3 45.6185 152.105 43.1531C153.719 38.2222 156.225 33.9484 159.363 30.1688C159.815 29.6274 160.345 29.1385 160.905 28.7652C161.801 28.1712 162.732 28.166 163.51 29.0649C164.302 29.9796 164.238 31.0414 163.7 32.077C162.728 33.959 161.593 35.741 160.774 37.7071C159.458 40.8664 158.092 44.0468 157.201 47.3848C156.13 51.3853 157.179 55.0913 159.458 58.3085C159.662 58.5976 159.838 58.9077 160.028 59.2074C160.001 59.3966 159.969 59.5911 159.942 59.7856Z" fill="#121212"/>
<path d="M165.188 57.0415C164.207 57.3359 163.465 56.8049 162.954 55.9744C162.488 55.2121 162.036 54.329 161.9 53.4353C161.367 49.8922 161.652 46.4017 162.818 43.0531C163.348 41.5444 164.306 40.9241 165.396 41.1975C166.518 41.4814 167.282 42.6221 167.092 44.2517C166.73 47.3637 166.21 50.4495 165.745 53.5457C165.573 54.7075 165.378 55.8587 165.188 57.0415Z" fill="#121212"/>
</g>
</g>
<defs>
<clipPath id="clip0_1465_7991">
<rect width="361" height="184" fill="white"/>
</clipPath>
<clipPath id="clip1_1465_7991">
<rect width="582" height="470" fill="white" transform="translate(-83)"/>
</clipPath>
</defs>
</svg>
