<svg width="32" height="34" viewBox="0 0 32 34" fill="none" xmlns="http://www.w3.org/2000/svg">
<circle opacity="0.2" cx="16" cy="17" r="16" fill="#007DE8"/>
<path d="M22 17.75H10C9.59 17.75 9.25 17.41 9.25 17C9.25 16.59 9.59 16.25 10 16.25H22C22.41 16.25 22.75 16.59 22.75 17C22.75 17.41 22.41 17.75 22 17.75Z" fill="#007DE8"/>
<path d="M16 23.75C15.59 23.75 15.25 23.41 15.25 23V11C15.25 10.59 15.59 10.25 16 10.25C16.41 10.25 16.75 10.59 16.75 11V23C16.75 23.41 16.41 23.75 16 23.75Z" fill="#007DE8"/>
</svg>
