<svg width="384" height="488" viewBox="0 0 384 488" fill="none" xmlns="http://www.w3.org/2000/svg">
<g clip-path="url(#clip0_1465_8719)">
<rect width="384" height="488" rx="12" fill="#F2F2F2"/>
<g opacity="0.03" clip-path="url(#clip1_1465_8719)">
<path d="M361.283 520C364.567 509.735 367.658 499.388 368.421 488.442C369.08 478.933 367.36 469.947 362.752 461.764C360.843 458.379 358.522 455.407 355.781 452.819C347.126 444.624 337.054 439.704 326.135 436.598C315.053 433.446 303.757 431.8 292.446 430.183C279.44 428.322 266.434 426.42 253.778 422.389C246.342 420.022 239.214 416.876 232.677 412.211C227.918 408.815 223.766 404.697 220.257 399.742C214.912 392.198 212.857 383.579 213.139 374.122C213.395 365.503 215.628 357.494 219.106 349.869C224.236 338.615 231.233 329.054 240.291 321.429C254.897 309.134 271.125 300.875 289.277 297.606C296.771 296.257 304.327 295.629 311.774 297.804C314.488 298.595 317.203 299.857 319.572 301.521C324.843 305.22 326.652 311.297 324.869 317.951C323.138 324.401 319.498 329.409 315.09 333.829C314.525 334.393 313.981 335.009 313.343 335.451C312.956 335.719 312.344 335.905 311.963 335.748C311.675 335.632 311.377 334.864 311.445 334.457C311.78 332.444 312.099 330.409 312.679 328.478C313.72 325.029 315.132 321.708 316.057 318.224C317.757 311.798 316.329 309.076 310.53 307.087C306.66 305.761 302.67 305.54 298.674 305.807C275.146 307.383 255.054 317.771 238.152 335.742C230.381 344.001 224.859 354.045 222.061 365.735C220.785 371.063 220.586 376.472 221.313 381.921C221.935 386.592 223.75 390.657 226.276 394.391C231.129 401.562 237.451 406.692 244.621 410.612C253.742 415.602 263.484 418.475 273.436 420.331C285.94 422.669 298.517 424.553 311.053 426.693C321.643 428.502 332.076 431.02 342.012 435.615C348.371 438.552 354.207 442.501 359.557 447.311C368.724 455.552 373.274 466.487 374.43 479.346C375.303 489.07 373.63 498.504 371.716 507.903C370.984 511.503 370.037 515.056 369.195 518.633C369.09 519.081 369.054 519.552 368.986 520.012C366.418 520 363.85 520 361.283 520Z" fill="#121212"/>
<path d="M234.973 520C235.198 517.075 235.145 514.079 235.7 511.235C237.567 501.639 239.789 492.13 241.619 482.527C244.349 468.15 246.415 453.656 247.215 438.965C247.246 438.36 247.048 437.744 246.98 437.127C246.901 436.406 246.697 435.65 246.812 434.958C247.409 431.34 251.864 428.775 254.84 430.323C255.959 430.898 257.026 431.602 258.087 432.3C264.295 436.4 271.172 438.128 278.179 439.465C282.342 440.262 286.468 441.286 290.605 442.257C292.613 442.728 293.732 443.99 293.941 445.84C294.145 447.619 293.288 449.213 291.499 450.26C289.821 451.243 288.121 452.197 286.427 453.145C279.895 456.785 274.278 461.776 269.174 467.528C269.017 467.702 268.892 467.912 268.552 468.371C269.247 468.371 269.692 468.383 270.131 468.371C274.168 468.249 278.206 468.121 282.243 468.01C282.907 467.993 283.576 467.981 284.235 468.074C285.757 468.29 286.944 469.081 287.452 470.779C287.954 472.466 287.493 473.949 286.364 475.1C285.422 476.06 284.361 476.88 283.315 477.694C280.303 480.038 277.521 482.661 275.298 485.947C274.853 486.604 274.472 487.32 273.797 488.46C275.685 488.087 277.217 488.029 278.593 487.477C283.315 485.569 287.99 483.522 292.66 481.451C294.114 480.806 295.244 479.695 295.704 477.915C295.819 477.467 296.075 477.06 296.31 476.665C297.796 474.141 300.416 473.163 302.769 474.234C305.054 475.275 306.367 477.968 305.698 480.887C304.714 485.179 303.736 489.495 302.377 493.648C299.678 501.883 296.718 510.014 293.879 518.191C293.675 518.773 293.581 519.395 293.434 520C290.202 520 286.97 520 283.739 520C286.338 510.212 288.931 500.423 291.525 490.646C288.879 491.583 286.17 492.769 283.362 493.473C279.722 494.386 276.014 495.369 272.317 495.503C267.433 495.677 265.262 491.624 267.093 486.569C268.39 482.981 270.466 479.974 272.919 477.275C273.337 476.81 273.876 476.479 274.357 476.083C274.242 475.909 274.127 475.728 274.012 475.554C272.092 475.752 270.173 476.019 268.248 476.124C265.979 476.246 263.673 476.479 261.434 476.194C257.559 475.699 256.022 471.698 258.14 468.08C258.422 467.598 258.725 467.109 259.081 466.69C264.849 459.944 270.743 453.36 278.038 448.585C278.373 448.364 278.682 448.091 279.33 447.59C271.046 446.322 263.218 444.793 255.98 440.634C255.765 443.781 255.697 446.677 255.358 449.527C253.491 465.108 250.327 480.381 246.237 495.41C243.999 503.634 241.593 511.805 239.266 519.994C237.823 520 236.4 520 234.973 520Z" fill="#121212"/>
<path d="M323.075 520C325.685 509.956 328.279 499.911 330.915 489.879C332.096 485.377 333.362 480.905 334.648 476.199C333.958 476.199 333.472 476.205 332.98 476.199C328.765 476.141 324.508 476.455 320.346 475.92C315.555 475.304 313.714 471.616 315.289 466.504C316.083 463.928 317.333 461.52 318.384 459.036C318.845 457.949 319.326 456.879 319.943 455.477C318.855 455.39 318.024 455.198 317.208 455.273C312.166 455.744 307.193 456.471 302.769 459.577C300.986 460.828 299.317 460.711 298 459.461C296.488 458.024 296.174 456.146 296.729 454.128C297.529 451.202 299.495 449.353 301.812 447.992C306.827 445.055 312.224 444.054 317.83 444.665C319.415 444.839 321.02 445.345 322.495 446.014C327.981 448.503 329.759 453.546 327.259 459.507C326.297 461.799 325.089 463.963 323.996 466.19C323.708 466.777 323.421 467.371 323.013 468.197C325.016 468.197 326.799 468.307 328.566 468.168C330.883 467.987 333.216 467.755 335.496 467.278C337.096 466.946 338.665 466.289 340.171 465.574C341.923 464.742 343.643 464.439 345.4 465.358C348.271 466.859 348.925 470.918 346.556 473.443C345.081 475.019 344.208 476.851 343.57 478.916C339.507 492.048 335.438 505.181 331.385 518.319C331.218 518.854 331.166 519.436 331.061 519.994C328.399 520 325.737 520 323.075 520Z" fill="#121212"/>
<path d="M-57 370.039C-56.0168 369.411 -55.0075 368.835 -54.0557 368.155C-44.4595 361.321 -34.8527 354.511 -25.2983 347.607C-20.7747 344.338 -16.9728 340.127 -13.2702 335.771C-7.60138 329.1 -4.50024 321.19 -3.46478 312.176C-3.34973 311.187 -3.19285 310.181 -2.89476 309.244C-2.27244 307.296 -1.04872 306.046 0.875767 305.906C2.78456 305.766 4.3639 306.709 5.01759 308.61C5.69744 310.594 6.22563 312.792 6.18902 314.886C6.13673 317.753 5.69744 320.673 5.0542 323.459C3.569 329.88 0.865307 335.672 -2.92614 340.814C-7.28238 346.723 -12.0727 352.138 -17.7729 356.453C-23.7765 361.001 -29.8166 365.491 -35.883 369.94C-42.8958 375.088 -49.961 380.159 -57 385.26C-57 380.188 -57 375.111 -57 370.039Z" fill="#121212"/>
<path d="M381.244 520C376.443 501.022 377.981 482.138 382.138 463.358C382.923 459.821 384.471 456.454 385.94 453.156C386.63 451.609 387.87 450.301 389.041 449.097C390.035 448.079 391.363 447.8 392.608 448.672C393.811 449.51 393.994 450.888 393.763 452.319C393.57 453.511 393.298 454.692 392.989 455.855C390.113 466.772 389.031 477.997 388.445 489.297C387.985 498.161 387.765 507.03 388.963 515.853C389.151 517.255 389.517 518.622 389.805 520.006C386.944 520 384.094 520 381.244 520Z" fill="#121212"/>
<path d="M249.229 520C250.546 511.317 251.859 502.628 253.198 493.944C253.365 492.862 253.595 491.757 253.977 490.751C254.85 488.442 256.77 487.5 258.877 488.32C261.021 489.158 262.47 490.681 262.993 493.299C263.777 497.265 264.656 501.208 265.644 505.117C266.036 506.658 266.653 508.205 267.469 509.525C269.347 512.567 271.418 515.463 273.394 518.43C273.729 518.93 274.012 519.477 274.315 520C265.958 520 257.591 520 249.229 520Z" fill="#121212"/>
<path d="M84.9936 520C87.713 518.406 90.4376 516.807 93.157 515.213C93.2825 515.01 93.408 514.8 93.5388 514.597C93.0838 514.324 92.587 514.108 92.1739 513.771C89.9199 511.927 87.6607 510.089 85.4486 508.188C79.3143 502.913 79.4869 494.758 85.982 490.018C87.8333 488.669 90.0663 487.768 92.2366 487.209C93.408 486.907 94.9455 487.512 96.0856 488.192C97.2988 488.913 97.5917 490.46 97.1576 491.967C96.7759 493.293 95.9339 493.851 94.6213 494.06C92.0797 494.473 90.2128 496.23 89.0257 498.696C88.7433 499.283 88.9943 500.522 89.4074 501.104C90.1866 502.203 91.2848 503.017 92.2052 504.006C94.5533 506.524 97.0217 508.938 99.171 511.654C101.164 514.178 101.226 517.115 99.5371 519.994C94.6893 520 89.8415 520 84.9936 520Z" fill="#121212"/>
<path d="M1.45093 520C5.32082 510.939 9.18025 501.877 13.0763 492.827C13.8555 491.019 14.7393 489.262 15.6702 487.552C16.8521 485.371 18.6458 484.627 20.3402 485.476C21.9666 486.29 22.7301 488.268 21.9927 490.612C20.5964 495.043 19.0903 499.429 17.511 503.785C15.5447 509.217 13.4633 514.597 11.429 519.994C8.10296 520 4.77694 520 1.45093 520Z" fill="#121212"/>
<path d="M306.252 520C307.387 514.12 308.543 508.252 309.641 502.366C310.169 499.522 310.54 496.643 311.079 493.805C311.293 492.688 311.638 491.548 312.141 490.559C313.145 488.588 315.085 487.657 316.983 488.035C318.96 488.431 320.576 490.082 320.79 492.38C320.926 493.863 320.874 495.52 320.409 496.887C317.768 504.628 314.975 512.305 312.235 520C310.247 520 308.25 520 306.252 520Z" fill="#121212"/>
<path d="M75.7058 174.051C75.7058 173.295 75.711 172.684 75.7058 172.067C75.6692 169.27 75.5175 166.467 75.6117 163.669C75.7058 160.831 77.3374 158.83 79.5809 158.406C81.7983 157.987 84.0418 159.295 84.8942 161.913C85.5165 163.82 85.8564 165.891 86.0499 167.921C86.8501 176.365 85.9663 184.694 84.3189 192.935C84.0261 194.401 83.4247 195.838 82.7501 197.158C81.9238 198.78 80.585 199.717 78.8279 199.438C77.0864 199.158 75.8261 197.879 75.6326 196.064C75.3188 193.052 75.2456 189.975 75.4182 186.945C75.5175 185.223 75.1985 184.426 73.729 183.816C67.4535 181.21 61.0159 179.797 54.3168 180.419C44.4225 181.338 36.6356 186.48 31.0138 195.535C26.0039 203.602 28.4722 213.315 36.5153 217.514C40.7827 219.741 45.3586 220.404 50.0076 220.172C64.3419 219.451 77.2852 214.245 88.602 204.486C95.9548 198.146 101.916 190.434 104.725 180.285C106.586 173.556 107.559 166.658 106.367 159.644C104.971 151.391 101.278 144.72 94.8775 140.027C86.0447 133.548 76.5373 131.303 66.1984 134.286C63.1705 135.165 60.1635 136.171 57.1931 137.276C56.2204 137.636 55.4412 138.59 54.4946 139.09C53.8619 139.422 53.0356 139.672 52.3923 139.509C50.7346 139.09 49.7566 136.997 50.2953 135.118C50.5463 134.234 50.9856 133.356 51.5295 132.658C52.2355 131.751 53.0408 130.843 53.9664 130.256C65.8951 122.678 78.2422 119.473 91.5358 125.824C101.937 130.797 109.897 138.41 113.934 150.513C116.873 159.324 116.486 168.206 114.813 177.209C112.208 191.196 105.028 201.973 95.4109 210.825C82.2899 222.9 66.9986 229.355 50.0861 231.059C44.6787 231.606 39.3288 230.984 34.2718 228.646C25.3188 224.511 20.1311 216.985 18.7034 206.365C18.0654 201.624 19.1688 197.129 21.0619 192.871C28.2474 176.743 43.8001 167.362 59.8602 169.444C65.0322 170.113 70.0788 171.3 74.8325 173.76C75.0469 173.876 75.2822 173.917 75.7058 174.051Z" fill="#121212"/>
<path d="M125.392 199.199C126.762 198.274 128.227 197.489 129.477 196.396C131.94 194.238 134.288 191.929 136.667 189.655C139.852 186.613 143.188 183.827 147.168 182.17C149.239 181.303 151.326 181.024 153.391 182.176C155.755 183.496 156.88 185.811 157.429 188.55C158.203 192.389 157.591 196.163 156.686 199.827C154.913 207.004 152.874 214.1 151.038 221.259C149.25 228.239 148.078 235.363 147.665 242.604C147.524 245.105 147.675 247.682 148.062 250.153C148.559 253.346 150.28 255.586 153.203 256.487C153.616 256.615 153.993 256.877 154.364 257.296C152.931 258.325 151.409 258.668 149.814 258.372C146.86 257.831 144.846 255.836 143.528 252.957C141.641 248.827 140.872 244.372 140.851 239.778C140.819 231.344 142.305 223.185 144.695 215.217C146.154 210.36 147.806 205.568 149.213 200.694C149.95 198.141 150.363 195.477 150.907 192.854C150.991 192.447 150.996 192.011 150.996 191.592C150.981 188.98 150.452 188.492 148.476 189.824C145.605 191.76 142.849 193.93 140.129 196.122C137.478 198.263 135.041 200.735 132.311 202.73C130.559 204.009 128.519 204.957 126.49 205.568C123.279 206.533 120.79 204.806 119.729 201.276C118.745 198.007 119.023 194.698 119.645 191.411C120.895 184.781 123.693 178.907 127.06 173.364C129.743 168.944 132.787 164.792 135.412 160.331C139.224 153.863 140.072 146.616 139.214 139.067C139.005 137.235 138.351 135.77 136.719 134.775C134.711 133.554 134.058 131.349 134.748 129.407C135.449 127.424 137.337 126.475 139.638 126.958C139.873 127.005 140.108 127.051 140.333 127.139C153.961 132.466 165.812 140.37 172.966 155.044C175.309 159.854 176.998 164.949 178.237 170.235C178.321 170.584 178.425 170.927 178.671 171.835C179.022 171.189 179.178 170.817 179.403 170.509C185.124 162.802 191.933 156.69 200.29 152.84C213.364 146.814 226.433 140.777 239.507 134.758C244.093 132.646 248.617 130.425 252.063 126.266C253.12 124.992 254.097 123.602 254.903 122.125C255.907 120.281 255.583 118.822 253.81 117.955C252.283 117.205 250.552 116.611 248.91 116.606C244.475 116.594 240.108 117.222 236.055 119.531C235.48 119.863 234.392 119.956 233.995 119.572C233.571 119.165 233.373 117.908 233.624 117.304C234.052 116.257 234.743 115.053 235.611 114.57C241.51 111.325 247.665 109.766 254.192 111.97C255.217 112.319 256.21 112.93 257.094 113.616C260.43 116.204 261.55 120.235 259.541 124.161C258.088 127.005 256.116 129.599 254.061 131.972C251.096 135.403 247.351 137.689 243.445 139.55C233.143 144.459 222.798 149.257 212.486 154.142C208.38 156.091 204.254 158.004 200.254 160.208C191.74 164.896 184.983 171.782 180.188 180.937C179.44 182.368 179.074 184.054 178.546 185.625C178.201 186.66 177.997 187.776 177.521 188.724C176.715 190.336 175.162 191.028 173.635 190.661C172.108 190.301 170.926 188.969 170.775 187.148C170.68 186.008 170.775 184.822 170.942 183.688C171.528 179.756 171.292 175.929 170.189 172.114C167.328 162.192 162.7 153.526 155.577 146.657C153.805 144.947 151.817 143.516 149.877 141.917C147.085 153.235 141.07 162.163 135.219 171.183C130.915 177.819 127.055 184.711 125.377 192.802C124.969 194.756 124.948 196.809 124.754 198.815C124.969 198.967 125.183 199.083 125.392 199.199Z" fill="#121212"/>
<path d="M254.249 70.3449C254.976 70.6067 255.551 70.8393 256.142 71.0254C264.373 73.6136 270.942 79.133 276.652 85.9145C281.239 91.3641 283.535 98.0816 284.141 105.526C284.256 106.928 284.873 108.277 284.983 109.679C285.161 111.959 285.14 114.268 285.14 116.559C285.14 116.955 284.847 117.35 284.649 117.856C284.335 117.589 284.152 117.501 284.058 117.344C282.008 114.052 280.005 110.72 277.918 107.457C271.982 98.1398 264.007 93.6905 253.653 95.0514C247.43 95.8657 241.222 96.9359 234.978 97.5116C221.93 98.7097 210.666 93.8824 201.451 83.7567C194.412 76.0156 192.242 66.169 193.774 55.4384C195.144 45.8362 198.627 37.0714 203.961 29.3884C212.951 16.4478 231.16 5.60085 250.986 11.6553C264.101 15.6568 273.342 33.2619 268.724 48.8082C266.821 55.2233 263.709 60.7369 259.238 65.3024C257.638 66.9367 256.017 68.5594 254.249 70.3449ZM268.719 88.3339C265.88 85.1584 263.134 81.9537 259.499 79.9065C254.636 77.1671 249.595 75.3642 244.062 75.5852C242.843 75.6317 241.787 75.1257 241.52 73.5903C241.301 72.3166 242.001 71.1592 243.455 70.7113C244.815 70.2868 246.237 69.9669 247.644 69.8855C248.998 69.8041 250.055 69.2806 250.829 68.129C252.706 65.3432 254.573 62.5456 256.372 59.6958C258.673 56.0549 260.069 51.9837 260.791 47.6101C262.606 36.5654 257.429 26.1431 248.408 22.4615C232.002 15.7673 217.611 24.2587 209.709 36.0071C205.86 41.7359 203.412 48.2905 202.021 55.2872C200.499 62.912 201.65 70.1356 206.179 76.0388C211.999 83.6171 219.54 88.0955 228.666 88.8225C234.026 89.2529 239.266 88.1536 244.538 87.3859C252.623 86.1994 260.739 84.3383 268.719 88.3339Z" fill="#121212"/>
<path d="M125.371 325.506C129.089 324.005 132.828 322.819 135.924 320.213C136.976 319.329 137.77 317.788 138.225 316.363C139.046 313.781 138.837 311.071 138.278 308.488C137.619 308.395 137.028 308.419 136.521 308.215C135.265 307.709 134.397 306.726 134.382 305.179C134.366 303.684 135.203 302.76 136.4 302.224C138.937 301.09 141.656 302.422 142.932 305.563C144.433 309.25 144.527 313.135 143.931 317.061C143.241 321.621 141.096 325.233 137.42 327.292C133.236 329.635 128.917 331.735 124.519 333.521C118.008 336.167 111.304 338.22 104.824 340.948C100.044 342.96 95.4108 345.467 90.8611 348.072C86.7036 350.451 83.3619 354.016 80.8465 358.431C77.6198 364.09 79.2253 368.05 85.1766 369.202C87.9692 369.743 90.516 369.179 92.4143 366.672C92.8065 366.154 92.9686 365.113 92.8065 364.439C92.2783 362.223 92.5241 360.687 93.8158 359.757C95.0971 358.832 96.917 359.082 98.308 360.379C100.468 362.397 100.944 365.637 99.286 368.545C95.7978 374.663 90.7827 377.653 84.2405 376.885C82.1957 376.646 80.1039 376.012 78.2317 375.07C72.3066 372.087 69.7964 364.898 72.2438 358.21C74.4821 352.085 78.4984 347.526 83.2102 343.722C89.6949 338.487 96.9536 334.957 104.573 332.334C109.154 330.758 113.767 329.298 118.363 327.78C118.897 327.606 119.425 327.402 119.932 327.216C117.72 320.719 118.118 313.891 117.046 307.092C116.251 307.593 115.592 307.971 114.964 308.401C112.867 309.849 110.833 311.42 108.678 312.751C104.557 315.305 100.17 315.944 95.5887 314.607C89.1197 312.711 86.986 306.447 90.7147 300.259C92.932 296.577 96.0018 293.925 99.3801 291.692C104.835 288.086 110.828 286.044 116.957 284.48C124.053 282.665 131.228 281.415 138.508 281.013C143.894 280.717 149.234 281.182 154.51 282.462C154.918 282.56 155.326 282.63 155.886 282.741C155.996 279.844 156.084 277.064 156.215 274.284C156.288 272.65 156.32 271.004 156.566 269.399C156.947 266.944 158.595 265.421 160.571 265.45C162.585 265.485 164.19 267.171 164.546 269.66C164.645 270.335 164.745 271.027 164.729 271.708C164.509 282.369 164.326 293.035 163.965 303.69C163.913 305.208 163.15 306.819 162.386 308.157C161.612 309.518 160.242 310.076 158.752 309.716C157.251 309.355 156.351 308.221 156.016 306.61C155.781 305.487 155.661 304.312 155.645 303.161C155.609 299.305 155.598 295.449 155.687 291.593C155.718 290.302 155.373 289.918 154.217 289.784C143.957 288.568 133.906 290.04 124.006 292.896C119.007 294.338 114.086 296.176 109.233 298.136C105.514 299.636 102.188 302.044 99.1657 304.929C98.6741 305.4 98.0779 305.731 97.6543 306.307C100.018 307.692 102.173 307.721 104.233 306.697C106.043 305.795 107.732 304.592 109.478 303.527C111.602 302.242 113.646 300.747 115.874 299.735C119.472 298.095 122.192 299.66 122.871 303.923C123.541 308.122 123.729 312.414 124.142 316.66C124.377 319.068 124.623 321.481 124.9 323.883C124.953 324.389 125.178 324.866 125.371 325.506Z" fill="#121212"/>
<path d="M419.635 162.139C420.843 161.447 421.998 161.023 422.882 160.232C424.608 158.679 426.245 156.986 427.803 155.224C429.503 153.311 430.941 151.083 432.75 149.321C434.068 148.041 435.731 147.087 437.378 146.378C438.785 145.773 440.202 146.401 441.238 147.698C442.242 148.96 442.603 150.589 441.871 151.979C440.333 154.922 440.15 158.214 439.596 161.389C436.981 176.418 435.684 191.598 435.444 206.9C435.318 214.815 436.652 222.335 440.119 229.326C441.055 231.216 441.787 233.223 441.651 235.823C440.83 235.509 440.087 235.375 439.502 234.962C438.67 234.375 437.86 233.671 437.206 232.851C431.898 226.168 428.593 218.52 427.934 209.511C427.228 199.862 428.018 190.295 428.995 180.739C429.586 174.923 430.46 169.142 431.239 163.099C430.794 163.524 430.428 163.867 430.073 164.222C427.531 166.752 424.733 168.816 421.407 169.84C417.485 171.044 414.546 169.532 412.946 165.367C412.109 163.186 411.539 160.883 410.812 158.65C410.159 156.632 409.62 156.37 408.004 157.527C406.853 158.347 405.834 159.4 404.783 160.383C402.346 162.657 399.997 165.053 397.472 167.199C396.091 168.368 394.496 169.316 392.88 170.026C387.802 172.265 383.028 169.642 381.642 163.768C381.056 161.284 381.051 158.644 380.632 156.102C380.261 153.828 379.822 151.548 379.152 149.367C378.64 147.692 378.169 147.687 376.815 148.704C374.231 150.647 372.798 153.415 372.14 156.748C371.245 161.273 371.486 165.798 372.286 170.282C372.866 173.527 373.416 176.778 374.901 179.774C376.203 182.408 374.55 185.34 371.726 185.816C369.404 186.206 367.375 185.322 366.058 183.281C364.494 180.855 362.92 178.308 361.978 175.545C359.327 167.775 359.039 159.749 361.042 151.723C362.737 144.936 366.288 139.672 372.066 136.537C378.08 133.274 383.817 135.2 387.342 141.516C389.81 145.936 390.359 150.909 390.705 155.94C390.788 157.184 390.867 158.423 390.976 160.086C392.143 159.115 393.11 158.458 393.921 157.615C395.793 155.666 397.472 153.474 399.443 151.665C401.326 149.937 403.318 148.152 405.541 147.134C410.896 144.674 416.272 147.681 417.992 153.822C418.542 155.777 418.772 157.841 419.153 159.86C419.274 160.511 419.425 161.162 419.635 162.139Z" fill="#121212"/>
<path d="M358.563 258.511C358.119 259.878 357.779 261.204 357.272 262.449C354.772 268.561 349.448 271.713 344.234 270.201C341.316 269.352 339.214 267.287 337.624 264.531C335.511 260.872 334.356 256.813 333.65 252.567C333.582 252.166 333.503 251.77 333.388 251.16C332.834 251.538 332.415 251.846 331.976 252.113C329.225 253.771 326.579 255.737 323.693 257.011C312.449 261.966 301.864 255.283 299.704 242.046C298.742 236.154 299.417 230.478 301.535 224.993C303.668 219.474 306.754 214.699 310.681 210.599C315.963 205.085 321.784 200.339 327.85 195.954C329.612 194.68 331.124 194.657 332.348 195.733C333.477 196.727 333.943 198.839 333.44 200.682C332.98 202.351 331.741 202.898 330.465 201.875C329.874 201.398 329.476 201.281 328.854 201.752C317.286 210.447 309.458 221.829 307.878 237.719C307.779 238.713 307.784 239.719 307.758 240.726C307.533 249.839 315.508 253.655 320.916 251.52C322.856 250.752 324.744 249.642 326.443 248.345C328.431 246.827 330.292 245.053 331.992 243.151C333.163 241.842 333.969 240.127 334.915 238.574C335.208 238.097 335.381 237.527 335.679 237.056C336.96 235.014 339.141 234.363 340.929 235.462C342.66 236.521 343.413 238.888 342.514 241.109C340.108 247.03 340.908 252.858 342.796 258.656C343.162 259.773 343.748 260.867 344.438 261.774C346.222 264.124 349.187 264.048 350.583 261.407C351.435 259.796 351.896 257.778 352.047 255.894C352.277 253.067 352.037 250.194 352.089 247.344C352.126 245.303 353.198 243.762 354.73 243.261C356.304 242.75 357.92 243.372 359.013 244.966C359.358 245.466 359.625 246.03 359.913 246.577C360.462 247.629 360.864 248.81 361.56 249.717C363.307 251.991 364.991 254.417 367.056 256.284C370.32 259.238 373.912 258.802 376.961 255.591C383.451 248.752 385.287 239.051 381.788 229.902C375.915 214.559 363.484 207.586 350.876 208.726C344.276 209.319 339.972 213.774 337.19 220.149C335.977 222.923 336.631 224.883 338.926 226.703C339.005 226.767 339.088 226.814 339.162 226.883C339.977 227.634 341.201 228.215 340.715 229.728C340.265 231.118 339.068 231.379 337.896 231.426C335.506 231.525 333.644 230.431 332.4 228.169C330.627 224.953 330.209 221.469 331.464 217.985C333.916 211.18 337.661 205.498 343.785 202.235C347.079 200.479 350.662 200.176 354.244 200.502C366.486 201.613 375.973 207.906 382.478 219.52C385.658 225.197 388.341 231.187 388.989 237.951C389.998 248.502 385.951 256.598 378.352 262.46C373.295 266.363 367.924 265.787 362.826 262.158C361.356 261.117 360.049 259.796 358.563 258.511Z" fill="#121212"/>
<path d="M194.203 413.863C193.847 414.887 193.638 415.416 193.481 415.963C190.338 426.763 183.467 432.684 173.63 434.696C168.228 435.801 162.836 435.621 157.502 434.179C147.178 431.381 141.646 422.523 142.812 410.781C143.999 398.84 150.588 389.942 160.42 387.011C163.024 386.237 165.649 385.969 168.316 386.603C175.533 388.308 179.686 395.927 177.573 403.836C176.208 408.937 173.358 412.828 169.007 415.114C167.736 415.777 166.178 416.033 164.76 415.998C162.93 415.957 161.471 414.369 161.11 412.543C160.697 410.461 161.319 408.751 162.857 407.547C164.64 406.151 166.659 405.587 168.808 406.221C169.603 406.459 170.126 406.302 170.45 405.552C170.983 404.331 171.663 403.109 171.873 401.807C172.479 397.956 170.147 395.083 166.69 395.688C157.01 397.381 151.404 405.511 151.88 415.753C152.058 419.534 153.898 422.517 156.764 424.629C163.531 429.619 174.304 429.718 180.977 424.611C182.567 423.396 183.974 421.628 184.973 419.784C187.18 415.73 187.995 411.141 188.063 406.43C188.079 405.436 187.718 404.36 187.31 403.447C186.29 401.184 185.035 399.044 184.063 396.752C182.337 392.675 183.372 388.529 186.442 386.633C189.585 384.69 193.518 385.836 195.468 389.855C202.57 404.505 212.214 417.301 219.854 431.561C222.756 436.982 225.57 442.414 227.411 448.393C227.866 449.882 228.263 451.441 228.373 452.999C228.577 455.791 226.312 457.39 224.194 455.89C222.913 454.983 221.794 453.645 220.863 452.284C215.524 444.461 210.326 436.511 204.95 428.717C201.713 424.024 198.24 419.54 194.872 414.957C194.694 414.712 194.553 414.439 194.203 413.863Z" fill="#121212"/>
<path d="M350.044 361.257C352.356 361.257 354.39 361.31 356.424 361.211C356.806 361.193 357.418 360.594 357.486 360.181C358.522 353.789 359.515 347.392 360.441 340.977C360.87 338.005 362.036 336.254 363.95 336.097C365.88 335.94 367.438 337.586 367.977 340.604C368.688 344.565 368.217 348.514 367.485 352.399C366.847 355.755 366.052 359.076 365.247 362.391C364.991 363.444 364.572 364.497 364.033 365.41C362.899 367.341 361.047 367.777 359.149 366.864C358.49 366.544 357.695 366.393 356.974 366.433C346.169 366.992 335.506 368.556 325.057 371.825C323.238 372.395 321.177 372.564 319.315 372.261C316.141 371.749 315.247 368.545 317.271 365.741C318.578 363.927 320.34 362.787 322.328 362.42C326.579 361.635 330.862 361.007 335.151 360.519C337.3 360.274 339.496 360.478 341.682 360.478C341.886 356.453 342.08 352.574 342.278 348.567C341.766 348.567 341.212 348.503 340.673 348.578C331.568 349.782 322.464 350.98 313.369 352.254C312.538 352.37 311.649 352.824 310.985 353.4C307.779 356.168 304.317 358.268 300.264 358.989C293.387 360.216 289.292 357.11 287.812 349.561C287.755 349.259 287.697 348.95 287.603 348.456C286.881 348.631 286.207 348.776 285.543 348.95C281.003 350.149 276.454 351.277 271.737 350.445C271.454 350.393 271.172 350.37 270.889 350.311C262.909 348.642 259.656 341.099 263.469 333.108C264.949 330.002 267.171 327.78 270 326.285C273.295 324.546 276.783 323.459 280.412 323.226C281.919 323.127 283.555 323.499 284.962 324.128C285.914 324.552 286.813 325.657 287.31 326.704C288.163 328.513 287.044 330.211 285.234 330.025C281.118 329.6 277.521 331.148 274.32 333.765C273.081 334.777 272.092 336.347 271.35 337.877C270.529 339.569 270.973 340.546 272.631 341.169C274.242 341.773 275.92 342.436 277.588 342.5C280.752 342.628 283.927 342.407 287.091 342.181C287.671 342.14 288.356 341.512 288.738 340.942C289.658 339.581 290.715 338.522 292.247 338.156C293.868 337.772 295.495 338.464 296.394 339.912C297.309 341.39 297.346 343.262 296.274 344.798C294.898 346.769 294.977 348.904 295.448 351.126C295.782 352.69 296.781 353.632 298.146 353.295C299.778 352.894 301.535 352.364 302.837 351.294C304.599 349.846 306.079 347.915 307.502 346.031C308.506 344.699 309.51 343.786 311.152 343.664C318.065 343.146 324.979 342.599 331.882 341.942C335.239 341.622 338.571 340.959 341.928 340.639C343.22 340.517 343.56 339.947 343.727 338.644C344.266 334.515 344.909 330.403 345.552 326.291C345.672 325.518 345.897 324.744 346.201 324.04C347.064 322.022 348.784 320.905 350.677 321.045C352.617 321.19 354.322 322.61 354.803 324.808C355.112 326.221 355.211 327.739 355.159 329.199C354.782 339.546 353.051 349.648 350.478 359.582C350.369 359.972 350.269 360.367 350.044 361.257Z" fill="#121212"/>
<path d="M141.133 479.776C129.832 479.294 118.536 478.857 107.24 478.299C104.5 478.165 101.707 477.909 99.0663 477.153C97.0581 476.583 95.097 475.379 93.4026 474.018C90.9186 472.018 90.427 469.348 91.4677 466.114C92.545 462.77 94.6943 460.38 97.5654 459.176C101.278 457.623 105.106 456.25 108.987 455.39C124.555 451.941 140.302 451.377 156.095 452.656C165.947 453.453 175.774 454.575 185.611 455.599C191.279 456.186 196.948 456.797 202.602 457.53C203.987 457.71 205.41 458.21 206.649 458.926C209.583 460.618 210.89 463.532 210.885 467.132C210.875 470.599 209.107 472.844 206.393 474.205C202.418 476.199 198.198 477.165 193.905 477.88C176.375 480.812 158.757 480.509 141.133 479.776ZM202.586 467.237C202.607 467.01 202.628 466.783 202.654 466.556C201.728 465.992 200.844 465.294 199.861 464.893C195.427 463.102 190.924 462.043 186.123 461.921C176.056 461.671 166.005 460.828 155.943 460.357C140.573 459.63 125.246 460.159 110.054 463.003C106.576 463.654 103.177 464.94 99.8089 466.155C98.7943 466.522 98.0047 467.632 97.1104 468.406C97.1627 468.598 97.2202 468.796 97.2725 468.988C98.2295 469.395 99.1552 469.959 100.144 470.174C101.629 470.506 103.151 470.721 104.662 470.767C114.3 471.058 123.954 471.076 133.581 471.582C153.846 472.652 174.043 472.088 194.166 469.156C196.995 468.755 199.778 467.894 202.586 467.237Z" fill="#121212"/>
<path d="M-32.4313 448.847C-30.8154 443.67 -28.2843 439.256 -25.4551 434.981C-20.8478 428.025 -14.5148 424.181 -7.18815 422.122C-5.81277 421.738 -4.26482 421.895 -2.82668 422.075C-2.02656 422.18 -1.28395 422.849 -0.11253 423.489C-2.03179 424.786 -3.45423 425.926 -5.00742 426.763C-10.7809 429.881 -15.3306 434.458 -19.2057 440.14C-22.4376 444.874 -25.7322 449.475 -27.3325 455.268C-27.7299 456.71 -28.7393 457.076 -30.1094 457.146C-34.2565 457.35 -36.6464 454.651 -38.7434 451.237C-43.3298 443.758 -44.4332 435.621 -42.6238 426.879C-40.83 418.214 -36.8608 410.839 -31.6835 404.214C-26.4958 397.572 -20.6334 391.698 -14.4991 386.185C-5.11724 377.751 4.37968 369.481 13.7929 361.088C21.6582 354.08 28.6606 346.165 34.1255 336.673C35.1244 334.94 36.0552 333.218 35.867 330.956C35.8147 330.304 36.5468 329.193 37.1325 328.961C37.7967 328.699 39.0884 328.885 39.4283 329.414C40.2128 330.642 41.0233 332.194 41.0338 333.619C41.0495 335.835 40.7096 338.179 39.9983 340.25C37.5143 347.473 33.885 353.865 28.8698 359.373C21.3444 367.632 12.9667 374.756 4.87649 382.265C-2.12069 388.767 -9.24338 395.101 -16.1517 401.719C-21.6218 406.96 -26.1297 413.165 -29.7067 420.168C-33.5557 427.705 -34.8213 435.772 -33.6289 444.322C-33.4929 445.31 -33.2315 446.276 -32.9909 447.241C-32.8392 447.788 -32.6144 448.312 -32.4313 448.847Z" fill="#121212"/>
<path d="M100.023 62.8132C99.7828 68.35 99.5789 73.8927 99.2965 79.4296C99.0559 84.1522 97.7433 88.5433 95.777 92.7018C94.9507 94.4466 93.9362 95.982 91.8025 95.5109C91.6299 95.476 91.4312 95.5691 91.2482 95.6272C80.7001 98.9598 70.1468 102.287 59.604 105.642C57.6429 106.265 55.7132 107.027 53.7678 107.719C52.816 108.056 51.8746 108.428 50.9072 108.696C45.3063 110.225 41.3789 106.771 41.7345 100.367C42.0221 95.1503 42.7647 89.974 43.136 84.7629C43.8106 75.3409 44.4277 65.9131 44.9245 56.4795C45.1965 51.3207 46.7758 49.5003 51.2942 48.1044C61.633 44.923 72.2229 43.3411 82.7605 41.4218C86.7821 40.689 90.8664 40.247 94.935 40.0492C98.5748 39.8689 100.227 41.8347 100.452 45.8711C100.52 47.0808 100.557 48.3022 100.52 49.5119C100.395 53.9437 100.233 58.3813 100.086 62.8132C100.07 62.819 100.05 62.819 100.023 62.8132ZM52.6016 97.5465C53.1768 97.4651 53.5952 97.4476 53.9926 97.3488C65.5709 94.4408 77.1492 91.5211 88.717 88.5782C88.9994 88.5084 89.3864 88.1187 89.4335 87.8221C89.8832 84.8036 90.4323 81.7851 90.6467 78.7433C91.2063 70.7928 91.5828 62.8248 92.0901 54.8685C92.2575 52.2629 92.6131 49.6747 92.8955 46.9761C92.4091 47.0284 92.0797 47.0226 91.7659 47.0982C86.3899 48.4359 80.9877 49.6573 75.6483 51.152C69.2944 52.9317 62.9927 54.9499 56.6702 56.8634C55.7341 57.1483 55.1222 57.5613 55.1431 58.9048C55.3314 70.6125 54.0292 82.2096 52.9362 93.8243C52.8212 95.0049 52.7218 96.1972 52.6016 97.5465Z" fill="#121212"/>
<path d="M376.694 62.7027C375.011 65.3955 373.494 67.9429 371.852 70.3973C370.722 72.0839 369.551 73.788 368.17 75.2188C365.163 78.3304 361.309 77.6557 359.803 73.4216C358.621 70.089 358.286 66.3842 357.591 62.8423C357.502 62.3886 357.491 61.9175 357.423 61.2254C356.817 61.5453 356.32 61.7954 355.828 62.0629C349.987 65.2675 344.119 68.4606 337.682 69.8855C335.627 70.3391 333.404 70.438 331.333 70.1239C326.538 69.3969 323.865 65.0582 324.943 59.7888C325.408 57.509 326.14 55.136 327.306 53.2284C329.403 49.7969 331.615 46.3305 334.314 43.5039C343.032 34.3728 352.952 27.1667 364.039 22.0428C366.125 21.0773 368.379 20.5248 370.581 19.9083C371.82 19.5593 373.034 19.8036 374.022 20.8679C374.247 21.1122 374.576 21.2867 374.885 21.3856C378.018 22.3801 380.606 24.4041 382.546 27.1842C385.595 31.5578 388.675 35.9664 391.212 40.7064C394.574 46.9878 395.809 53.9728 394.946 61.301C394.825 62.3421 394.611 63.389 394.308 64.3835C393.126 68.257 390.155 70.2868 386.526 69.6703C382.855 69.0422 379.806 67.1519 377.51 63.8543C377.285 63.5227 377.05 63.2029 376.694 62.7027ZM365.367 67.0647C365.477 67.0938 365.587 67.117 365.691 67.1461C366.026 66.6576 366.403 66.2039 366.696 65.6863C368.944 61.65 371.177 57.602 373.421 53.5599C374.451 51.7046 375.805 50.3494 377.908 50.5065C380.057 50.6635 381.27 52.2222 382.123 54.2578C382.661 55.549 383.137 56.8983 383.854 58.0615C384.419 58.9746 385.313 59.6434 386.061 60.417C386.212 60.3123 386.364 60.2076 386.516 60.1029C386.516 59.0037 386.557 57.9103 386.51 56.811C386.306 52.2803 384.816 48.308 382.301 44.7602C378.154 38.8976 373.755 33.3026 368.714 28.3532C367.898 27.5506 367.375 27.4168 366.424 28.0391C358.124 33.4655 350.322 39.6305 343.304 46.9761C339.904 50.5355 336.803 54.3857 334.366 58.8408C333.911 59.6725 333.55 60.5682 333.007 61.7372C333.917 61.7372 334.528 61.8303 335.109 61.7198C336.599 61.429 338.121 61.1789 339.559 60.6729C346.08 58.3581 352.497 55.8339 357.946 50.9194C360.682 48.4534 364.06 50.0528 364.776 53.8972C364.959 54.8743 365.012 55.8863 365.043 56.8866C365.101 58.8408 365.08 60.795 365.137 62.7492C365.168 64.18 365.284 65.6223 365.367 67.0647Z" fill="#121212"/>
<path d="M338.189 149.495C338.487 145.657 338.769 142.045 339.078 138.137C338.398 138.567 337.922 138.869 337.446 139.178C335.041 140.719 332.541 141.975 329.733 142.254C325.329 142.696 323.065 140.155 323.52 135.298C324.064 129.535 326.255 124.527 329.456 120.095C334.068 113.703 336.976 106.433 338.874 98.605C339.292 96.8835 339.533 95.0863 339.638 93.3066C339.747 91.3641 339.24 90.8232 337.53 91.2129C334.377 91.9282 331.077 92.3993 328.169 93.8184C323.844 95.9297 319.744 98.6516 315.681 101.362C313.244 102.985 311.445 105.433 310.409 108.457C309.578 110.889 309.886 111.738 311.79 113.227C312.344 113.657 312.663 114.46 313.092 115.088C312.465 115.472 311.868 116.082 311.199 116.21C305.949 117.211 302.424 113.669 302.826 107.765C303.13 103.304 304.845 99.4309 307.753 96.4531C315.895 88.1187 325.403 83.0064 336.573 82.1224C336.855 82.0991 337.143 82.1108 337.431 82.1108C343.617 82.134 347.398 86.1936 347.205 93.1031C347.121 96.0634 346.52 99.0878 345.725 101.932C343.455 110.057 340.15 117.606 335.412 124.388C333.603 126.976 332.395 130.093 330.962 133.001C330.679 133.577 330.596 134.275 330.329 135.246C331.155 134.984 331.788 134.944 332.264 134.612C334.46 133.065 336.641 131.483 338.764 129.82C339.57 129.186 340.218 128.308 340.934 127.534C342.394 125.964 343.774 125.568 345.165 126.318C346.582 127.08 347.084 128.668 346.907 130.931C346.274 138.817 345.662 146.709 345.139 154.608C344.914 158.022 342.922 159.918 339.967 158.993C332.06 156.515 324.388 157.632 316.957 160.982C309.343 164.413 302.372 169.142 296.086 175.063C295.191 175.906 294.375 176.86 293.408 177.889C293.968 178.261 294.355 178.517 294.736 178.767C294.203 181.042 291.823 182.048 289.857 180.786C288.11 179.669 287.279 177.843 287.629 175.708C287.912 173.987 288.445 172.166 289.339 170.753C290.663 168.659 292.179 166.571 293.999 165.036C302.905 157.521 312.527 151.595 323.75 149.501C327.949 148.716 332.154 148.571 336.379 149.251C336.913 149.35 337.472 149.408 338.189 149.495Z" fill="#121212"/>
<path d="M134.999 391.913C134.999 392.722 134.994 393.338 134.999 393.955C135.166 407.384 134.941 420.796 133.775 434.173C133.582 436.377 133.388 438.616 132.865 440.733C132.489 442.257 131.783 443.833 130.847 445.008C128.896 447.439 125.586 446.741 124.629 443.665C124.121 442.036 123.964 440.099 124.189 438.395C126.841 418.464 127.369 398.416 127.134 378.316C127.118 377.048 126.935 375.786 126.93 374.524C126.914 371.97 128.305 370.086 130.329 369.783C132.29 369.493 134.068 370.842 134.648 373.261C135.114 375.198 135.297 377.216 135.783 379.141C136.202 380.805 136.787 382.439 137.457 383.998C138.079 385.452 139.266 385.94 140.689 385.679C143.199 385.213 144.783 383.597 145.442 380.875C146.337 377.193 145.777 373.529 145.296 369.871C145.024 367.783 144.611 365.695 144.564 363.595C144.47 358.983 146.797 356.151 150.939 356.023C161.523 355.685 171.789 353.51 181.798 349.753C185.438 348.386 188.811 346.502 191.536 343.396C195.72 338.639 195.636 333.172 191.144 328.751C185.904 323.592 179.869 322.604 173.3 324.983C172.866 325.14 172.464 325.425 171.899 325.733C172.228 326.343 172.505 326.815 172.741 327.309C173.515 328.943 173.07 329.897 171.412 330.211C167.323 330.99 164.049 326.454 165.508 322.016C166.141 320.097 167.323 318.643 168.892 317.66C182.447 309.186 197.215 318.969 200.123 330.642C201.383 335.696 200.672 340.389 197.869 344.623C194.998 348.962 191.144 351.905 186.714 353.917C178.593 357.605 170.157 360.088 161.528 361.804C158.631 362.38 155.729 362.961 152.821 363.461C151.765 363.642 151.378 364.148 151.456 365.346C151.655 368.295 151.927 371.255 151.875 374.204C151.828 376.931 151.681 379.723 151.09 382.352C149.223 390.756 141.159 394.374 134.999 391.913Z" fill="#121212"/>
<path d="M253.067 249.659C252.67 245.367 252.304 241.383 251.927 237.399C251.582 233.775 251.143 230.158 250.902 226.529C250.588 221.777 252.56 219.497 256.843 219.59C259.4 219.648 261.952 219.91 264.509 220.085C264.698 220.096 264.886 220.114 265.074 220.096C268.008 219.817 269.362 220.544 270.074 223.824C271.297 229.454 272.406 235.148 273.117 240.883C273.954 247.623 274.357 254.434 274.859 261.221C275.031 263.53 275 265.868 274.937 268.183C274.874 270.544 273.776 271.923 271.663 272.225C270.021 272.464 268.353 272.481 266.695 272.534C260.524 272.731 254.348 272.894 248.177 273.104C247.743 273.121 247.205 273.29 246.901 273.61C243.052 277.71 238.435 280.577 233.953 283.648C231.495 285.335 228.985 286.986 226.349 288.295C222.924 289.993 219.362 290.389 215.968 288.022C213.103 286.021 211.706 282.915 211.293 279.332C210.378 271.446 212.386 264.362 216.518 258.005C220.769 251.462 226.333 246.96 233.613 245.634C238.356 244.768 242.974 245.914 247.498 247.496C249.26 248.106 250.98 248.845 253.067 249.659ZM262.71 225.493C261.759 225.883 261.068 226.261 260.336 226.441C259.196 226.721 258.882 227.349 258.961 228.669C259.201 232.723 259.212 236.794 259.442 240.854C259.698 245.378 260.033 249.898 260.462 254.405C260.598 255.824 260.592 257.04 259.526 257.97C258.454 258.907 257.355 258.616 256.168 258.133C251.985 256.429 247.827 254.591 243.549 253.23C237.169 251.195 231.213 252.294 226.077 257.266C222.364 260.861 220.105 265.421 219.002 270.701C218.405 273.54 218.013 276.419 218.787 279.315C219.352 281.426 220.262 282.107 222.181 281.653C223.332 281.38 224.508 280.99 225.528 280.362C230.088 277.541 234.643 274.703 239.094 271.673C240.338 270.829 241.395 269.445 242.21 268.073C243.361 266.148 244.789 265.188 246.833 265.333C247.78 265.403 248.727 265.508 249.673 265.583C255.828 266.06 261.983 266.549 268.139 266.991C269.007 267.055 269.891 266.898 270.916 266.834C270.712 266.264 270.649 265.95 270.497 265.706C268.996 263.304 268.217 260.599 267.914 257.738C267.537 254.172 267.365 250.578 266.915 247.03C265.989 239.801 265.968 232.333 262.71 225.493Z" fill="#121212"/>
<path d="M233.712 180.704C233.733 174.789 235.208 169.351 238.058 164.367C241.144 158.958 244.956 154.282 249.605 150.484C256.775 144.622 264.457 139.829 273.039 137.02C278.781 135.141 284.513 133.187 290.338 131.687C300.886 128.965 309.583 122.91 317.004 114.337C318.536 112.564 319.828 110.65 320.367 108.19C320.654 106.87 321.36 105.887 322.72 105.84C324.1 105.794 325.125 106.631 325.35 108.015C325.627 109.685 325.732 111.482 325.471 113.145C324.921 116.664 323.159 119.566 321.146 122.3C314.264 131.646 305.692 138.142 295.217 141.487C289.01 143.47 282.808 145.482 276.616 147.53C269.059 150.03 262.219 154.142 255.943 159.377C249.814 164.489 245.223 170.875 243.439 179.378C243.246 180.303 243.115 181.245 243.026 182.193C242.414 188.765 244.538 193.691 249.935 196.826C254.359 199.397 258.861 201.276 263.971 200.252C264.237 200.2 264.551 200.409 264.839 200.496C264.593 200.88 264.426 201.403 264.091 201.636C259.698 204.695 254.981 204.98 250.107 203.468C248.695 203.032 247.304 202.456 245.965 201.793C237.708 197.67 233.718 190.772 233.712 180.704Z" fill="#121212"/>
<path d="M-2.91049 237.614C-4.38523 238.899 -5.65079 240.074 -6.98956 241.144C-8.41201 242.284 -9.83445 243.477 -11.3824 244.361C-15.3307 246.611 -19.0804 245.105 -20.9682 240.621C-22.2495 237.585 -22.5005 234.311 -22.5214 231.025C-22.5685 222.01 -21.5278 213.111 -20.074 204.259C-19.0019 197.71 -17.888 191.173 -16.8003 184.63C-16.3714 182.059 -14.7921 180.39 -12.7055 180.338C-10.6294 180.285 -8.75716 181.838 -8.40155 184.351C-8.14007 186.2 -8.12438 188.166 -8.38063 190.016C-9.72986 199.67 -11.2517 209.296 -12.6114 218.945C-13.2128 223.219 -13.6102 227.535 -14.0286 231.839C-14.1593 233.223 -14.0495 234.636 -14.0495 236.416C-13.2546 235.84 -12.7682 235.538 -12.329 235.166C-9.91813 233.107 -7.53867 231.001 -5.11214 228.966C-3.78906 227.855 -2.44506 226.744 -1.01738 225.808C2.32432 223.615 5.85952 225.633 6.04255 229.937C6.16806 232.932 5.90658 235.951 5.81245 238.958C5.34179 253.579 4.87113 268.201 4.39524 282.828C4.30633 285.585 4.11806 288.318 2.92572 290.825C1.98963 292.791 1.09537 292.872 -0.0551376 291.046C-1.87503 288.155 -2.13651 284.747 -2.54965 281.403C-4.17605 268.241 -3.78383 255.051 -2.99416 241.86C-2.92618 240.702 -2.86342 239.539 -2.81112 238.382C-2.81112 238.231 -2.85296 238.074 -2.91049 237.614Z" fill="#121212"/>
<path d="M147.074 98.9831C143.957 100.158 141.091 101.24 138.22 102.327C134.021 103.915 129.764 105.509 125.277 104.671C122.892 104.223 120.434 103.38 118.337 102.071C113.568 99.0994 112.464 93.7545 115.2 88.491C116.747 85.5073 118.954 83.1926 121.444 81.1977C125.246 78.1559 129.325 75.591 133.77 74.0148C139.229 72.0781 144.768 70.31 150.379 69.0247C155.859 67.7684 161.429 67.8789 166.91 70.4845C167.558 67.1403 168.207 63.9182 168.803 60.6787C169.174 58.6605 169.462 56.6249 169.791 54.6009C169.99 53.3854 170.372 52.2861 171.7 52.2629C173.086 52.2396 173.755 53.333 173.713 54.6184C173.609 57.8754 173.426 61.1381 173.028 64.3602C172.552 68.2279 171.82 72.0548 171.193 75.8992C170.748 78.6153 168.416 80.0635 166.549 78.4292C162.841 75.1722 158.673 75.1781 154.474 75.9807C144.13 77.9639 134.538 82.105 126.087 89.1714C124.843 90.2125 123.682 91.4106 122.61 92.6727C121.355 94.15 121.485 94.6385 123.143 95.5982C125.549 96.994 128.185 97.5233 130.763 96.8719C136.677 95.3771 142.571 93.7312 148.386 91.8294C151.498 90.8116 153.532 92.062 153.433 95.7319C153.355 98.5818 153.072 101.42 152.884 104.264C152.847 104.834 152.821 105.41 152.779 106.3C153.402 105.927 153.851 105.701 154.259 105.41C156.257 103.985 158.213 102.484 160.247 101.123C162.731 99.4658 164.964 100.327 165.942 103.351C166.549 105.235 166.899 107.219 167.422 109.138C168.039 111.412 168.531 111.982 170.67 111.86C173.603 111.685 176.516 111.15 179.44 110.865C180.559 110.755 181.746 110.691 182.808 110.999C183.44 111.185 184.235 112.069 184.34 112.755C184.444 113.448 183.958 114.512 183.425 115C182.729 115.646 181.762 116.059 180.857 116.268C177.886 116.966 174.906 117.612 171.904 118.106C170.706 118.304 169.43 118.176 168.217 117.99C165.288 117.542 163.223 115.774 162.224 112.639C161.732 111.11 161.361 109.533 160.869 107.736C159.75 108.539 158.699 109.312 157.627 110.045C156.21 111.011 154.829 112.069 153.339 112.86C149.835 114.721 146.833 112.802 146.635 108.457C146.519 105.893 146.849 103.299 146.98 100.716C146.995 100.245 147.027 99.7799 147.074 98.9831Z" fill="#121212"/>
<path d="M186.369 239.894C186.463 228.931 187.938 218.125 189.465 207.324C190.207 202.061 190.919 196.786 191.593 191.505C191.855 189.44 192.566 187.736 194.297 186.776C200.332 183.42 206.435 180.227 213.035 178.488C214.698 178.052 216.507 178.273 218.248 178.203C218.672 178.186 219.101 178.25 219.519 178.197C222.134 177.849 223.776 179.308 223.745 182.275C223.724 184.746 223.567 187.247 223.211 189.684C221.81 199.321 220.304 208.941 218.845 218.567C218.745 219.235 218.536 219.962 218.662 220.591C219.043 222.492 218.238 223.615 216.999 224.755C211.654 229.658 206.236 234.485 201.122 239.673C198.444 242.389 196.352 245.809 193.957 248.874C193.152 249.903 192.346 251.003 191.348 251.747C189.36 253.23 187.493 252.433 187.08 249.81C186.646 247.071 186.583 244.256 186.374 241.476C186.338 240.952 186.369 240.423 186.369 239.894ZM215.989 185.142C210.676 187.253 205.624 189.236 200.599 191.301C200.248 191.446 199.919 192.191 199.893 192.679C199.704 195.884 199.919 199.158 199.417 202.293C197.874 211.954 196.059 221.568 194.36 231.199C193.91 233.735 193.492 236.276 193.037 238.969C193.366 238.812 193.476 238.801 193.533 238.731C198.983 231.967 205.682 226.779 211.79 220.852C212.182 220.468 212.517 219.724 212.506 219.16C212.397 211.419 213.275 203.776 214.316 196.152C214.813 192.563 215.404 188.998 215.989 185.142Z" fill="#121212"/>
<path d="M162.198 0.0465097C155.734 13.2198 150.876 26.8119 149.5 41.7126C149.406 42.7246 149.49 43.7598 149.49 44.7893C149.715 44.923 149.934 45.051 150.159 45.1847C150.635 44.4694 151.069 43.7133 151.592 43.0444C154.84 38.9151 157.476 34.3611 159.374 29.2895C161.727 23.0024 164.091 16.7153 166.465 10.4339C166.685 9.85234 166.941 9.27656 167.265 8.75893C168.479 6.80474 170.424 6.03702 172.239 6.74076C173.985 7.42124 175.225 9.5092 174.963 11.7891C174.796 13.2315 174.367 14.668 173.87 16.0232C172.871 18.7451 171.747 21.4146 170.591 24.3052C174.236 24.5495 177.667 24.3692 181.056 23.6014C181.427 23.5142 181.788 22.8454 181.981 22.3568C184.727 15.5986 186.887 8.61934 188.257 1.35512C188.335 0.947995 188.456 0.552505 188.565 0.110486C190.631 0.110486 192.665 0.110486 194.898 0.110486C194.224 2.80913 193.727 5.4496 192.901 7.96213C190.882 14.1039 188.712 20.1874 186.594 26.2885C185.961 28.1205 184.716 29.0394 182.97 29.0627C178.514 29.1325 174.059 29.2372 169.603 29.1848C168.604 29.1732 168.4 29.7374 168.133 30.476C165.686 37.2749 162.292 43.405 157.627 48.6046C156.257 50.1284 154.798 51.6231 153.177 52.7805C148.988 55.7699 144.569 54.0193 142.817 48.8198C141.792 45.7722 141.74 42.585 142.106 39.4269C143.685 25.7534 148.141 13.2024 154.186 1.26788C154.672 0.308231 155.263 -0.0174666 156.231 0.0232456C158.202 0.10467 160.179 0.0465097 162.198 0.0465097Z" fill="#121212"/>
<path d="M93.6852 242.814C93.0943 243.064 92.6184 243.244 92.1582 243.465C80.0883 249.287 68.0237 255.132 55.9433 260.931C53.3704 262.164 50.7451 263.257 48.1199 264.356C45.981 265.252 44.4644 264.996 43.6643 263.734C42.8328 262.425 43.1466 260.308 44.5533 258.505C46.7968 255.632 49.5005 253.352 52.5912 251.794C56.6493 249.741 60.7807 247.833 64.9539 246.088C74.0743 242.273 83.1999 238.492 91.8183 233.392C93.1413 232.606 94.4226 231.647 95.5417 230.536C98.6376 227.471 103.093 228.541 104.448 232.909C104.897 234.363 105.018 236.026 104.955 237.579C104.599 246.263 105.426 254.766 107.627 263.123C108.056 264.758 108.302 266.59 108.108 268.253C107.653 272.109 103.81 273.61 101.211 271.01C100.28 270.079 99.558 268.829 98.9252 267.607C96.1536 262.228 95.0815 256.278 94.3807 250.223C94.114 247.827 93.931 245.419 93.6852 242.814Z" fill="#121212"/>
<path d="M27.7768 452.127C28.4044 452.127 29.1522 451.888 29.6333 452.179C30.5067 452.708 31.0035 453.54 30.7524 454.884C29.2725 462.916 21.5745 470.523 14.1851 470.884C8.16588 471.18 3.85671 467.824 0.907224 462.235C-1.48792 457.699 -2.31943 452.639 -2.173 447.451C-1.93244 438.971 0.645743 431.335 5.13795 424.524C7.28208 421.273 10.1113 419.022 13.8086 418.411C16.3763 417.993 17.5478 418.975 19.1898 421.191C20.7692 423.32 20.8633 425.67 21.1352 428.112C21.9667 435.569 23.0545 442.961 26.072 449.8C26.4851 450.737 27.0133 451.609 27.4892 452.511C27.5938 452.383 27.6879 452.255 27.7768 452.127ZM24.3044 457.326C24.3044 457.181 24.3044 457.041 24.3044 456.896C19.4775 455.093 17.3752 450.789 16.2822 445.805C15.5344 442.391 15.0951 438.855 14.8336 435.348C14.593 432.131 14.7813 428.874 14.7813 425.635C14.5617 425.53 14.342 425.425 14.1224 425.321C12.9457 426.775 11.6279 428.118 10.629 429.712C8.96601 432.358 8.31754 435.464 7.86779 438.616C7.0206 444.583 7.77889 450.312 10.0694 455.762C11.7847 459.851 14.661 461.241 18.51 459.88C20.4868 459.182 22.3799 458.187 24.3044 457.326Z" fill="#121212"/>
<path d="M272.474 384.044C271.287 385.469 270.262 386.859 269.085 388.075C267.982 389.215 266.81 390.355 265.503 391.163C261.952 393.356 258.056 392.35 255.436 388.755C253.622 386.266 252.874 383.265 252.084 380.264C251.608 378.455 251.017 376.675 250.358 374.942C249.684 373.163 249.433 371.383 250.039 369.557C251.446 365.352 256.299 364.165 259.128 367.591C260.451 369.19 261.178 371.441 261.994 373.488C262.501 374.756 262.658 376.199 262.972 377.559C263.134 377.693 263.301 377.821 263.464 377.955C263.793 377.385 264.034 376.699 264.473 376.263C266.178 374.593 267.799 372.732 269.718 371.447C274.273 368.399 278.891 370.266 280.847 375.751C281.417 377.356 281.767 379.06 282.285 380.95C282.823 380.514 283.346 380.194 283.76 379.74C285.611 377.693 287.415 375.594 289.271 373.552C294.496 367.806 298.439 367.946 303.423 373.954C305.546 376.513 307.727 379.019 309.934 381.491C310.697 382.346 311.633 383.003 312.454 383.794C312.82 384.149 313.432 384.713 313.354 384.992C313.223 385.487 312.716 385.999 312.255 386.231C309.573 387.575 306.843 387.47 304.291 385.94C301.791 384.44 299.37 382.753 297.032 380.962C296.065 380.217 295.584 380.264 294.815 381.165C292.984 383.306 291.149 385.469 289.136 387.389C287.64 388.819 285.972 390.134 284.194 391.064C280.549 392.972 276.998 391.809 274.644 388.162C273.855 386.935 273.259 385.551 272.474 384.044Z" fill="#121212"/>
<path d="M437.807 108.411C440.056 105.48 442.132 102.694 444.297 99.9951C444.71 99.4833 445.552 98.9249 446.028 99.0703C446.598 99.2448 447.372 100.164 447.362 100.745C447.346 101.833 447.032 103.06 446.483 103.962C445.259 105.962 443.785 107.777 442.462 109.708C441.426 111.22 440.469 112.796 439.481 114.349C437.922 116.809 435.642 116.78 433.932 114.489C430.878 110.394 427.709 106.404 424.545 102.409C424.299 102.1 423.703 101.92 423.327 101.996C412.815 104.13 402.283 106.154 391.818 108.533C386.102 109.83 380.507 111.767 374.848 113.366C373.285 113.808 371.69 114.204 370.089 114.355C368.944 114.465 367.663 114.425 366.627 113.954C363.992 112.75 363.375 108.975 365.383 106.701C365.989 106.015 366.821 105.421 367.647 105.148C374.383 102.915 381.045 100.245 387.912 98.7214C398.099 96.4648 408.438 95.0398 418.714 93.2601C420.356 92.9751 421.998 92.6901 423.635 92.3703C426.506 91.8119 428.195 92.7483 429.78 95.4179C432.348 99.7159 435.03 103.927 437.807 108.411Z" fill="#121212"/>
<path d="M367.464 418.423C365.89 419.685 364.311 420.918 362.763 422.203C360.462 424.117 358.098 425.844 355.148 426.275C348.857 427.194 343.089 421.25 343.471 414.218C343.575 412.322 344.444 410.984 345.882 410.496C347.33 410.001 348.925 410.629 349.84 412.211C350.4 413.183 350.766 414.288 351.263 415.306C352.272 417.382 353.7 417.911 355.525 416.701C356.864 415.817 358.04 414.631 359.348 413.671C361.481 412.113 363.552 410.356 365.853 409.175C369.917 407.088 373.316 408.582 375.366 413.031C376.015 414.433 376.522 415.916 377.186 417.597C377.625 417.167 377.991 416.812 378.357 416.457C380.036 414.823 381.6 413.014 383.409 411.589C387.551 408.338 391.646 409.344 394.391 414.078C395.767 416.457 396.394 416.568 398.334 414.648C399.328 413.665 400.212 412.543 401.216 411.583C403.852 409.071 406.921 409.065 409.437 411.735C412.695 415.201 414.991 419.354 415.932 424.32C416.246 425.961 415.843 426.397 414.394 425.99C411.199 425.094 408.684 422.989 406.409 420.429C404.934 418.766 404.96 418.9 403.198 420.098C401.263 421.412 399.297 422.756 397.2 423.657C394.281 424.908 391.369 424.338 388.759 422.436C387.875 421.79 387.305 421.866 386.516 422.547C384.826 423.995 383.116 425.437 381.312 426.705C377.066 429.694 373.494 428.927 370.576 424.355C369.446 422.564 368.578 420.563 367.464 418.423Z" fill="#121212"/>
<path d="M333.278 400.312C334.345 398.986 335.192 397.776 336.181 396.729C338.069 394.734 339.915 392.646 342.006 390.948C344.789 388.686 347.565 389.238 349.861 392.105C350.081 392.379 350.29 392.67 350.494 392.96C352.382 395.607 353.386 395.99 356.247 394.763C357.742 394.124 359.149 393.205 360.577 392.379C362.36 391.349 364.169 390.872 365.974 392.204C367.778 393.536 368.238 395.641 367.914 397.799C367.637 399.637 366.941 401.411 366.34 403.173C366.042 404.04 365.367 404.203 364.745 403.54C363.929 402.673 363.186 401.713 362.276 400.643C361.811 400.917 361.246 401.26 360.676 401.591C357.983 403.167 355.169 404.168 352.068 403.813C348.533 403.412 345.986 401.353 344.151 397.729C343.241 398.718 342.404 399.544 341.656 400.457C340.124 402.336 338.728 404.348 337.127 406.151C333.942 409.734 330.287 409.716 327.144 406.087C325.868 404.616 324.791 402.906 323.745 401.219C323.065 400.126 322.49 400.085 321.559 400.818C319.702 402.283 317.867 403.836 315.859 405.011C313.526 406.372 311.094 407.698 308.563 408.443C304.312 409.687 300.311 407.687 298.402 403.301C297.137 400.393 296.31 397.194 295.646 394.03C295.071 391.297 297.775 389.128 300.097 390.448C301.195 391.07 302.105 392.332 302.826 393.507C303.674 394.891 304.218 396.502 304.918 397.997C305.509 399.247 306.44 399.614 307.533 398.904C309.123 397.869 310.692 396.764 312.203 395.595C314.269 394.001 316.178 392.129 318.327 390.704C323.478 387.284 327.85 388.662 330.763 394.502C331.668 396.287 332.374 398.201 333.278 400.312Z" fill="#121212"/>
<path d="M17.9085 284.427C19.5662 284.945 20.6906 285.288 21.815 285.649C22.6778 285.928 23.5721 286.137 24.3931 286.527C26.5373 287.556 27.6093 289.586 27.191 292.134C26.9138 293.832 26.4798 295.548 25.8417 297.118C23.6819 302.411 23.1694 307.965 23.342 313.682C23.4466 317.218 23.4832 320.76 23.4204 324.296C23.3995 325.419 23.0962 326.605 22.6569 327.623C21.9509 329.275 21.0619 329.339 20.1415 327.85C19.6133 326.995 19.1426 326.018 18.9073 325.023C16.4337 314.421 16.3396 304.027 21.3077 294.129C21.7208 293.308 22.0555 292.442 22.5471 291.314C21.4594 291.203 20.5808 291.133 19.7022 291.029C18.3321 290.866 16.9462 290.796 15.6022 290.493C12.088 289.697 10.2419 286.521 10.9427 282.601C11.4865 279.565 12.8306 276.96 14.6295 274.662C16.5331 272.237 18.6563 270.009 20.4814 267.514C22.1183 265.275 23.593 262.867 24.9004 260.378C25.392 259.447 25.2142 258.075 25.3397 256.906C24.3827 256.97 23.3786 256.859 22.4739 257.139C19.9689 257.895 17.4587 258.604 15.4663 260.756C14.0595 262.274 11.9258 262.198 10.2994 261.012C8.5789 259.762 7.79969 257.348 8.36972 255.004C8.84038 253.067 9.93336 251.607 11.4029 250.549C15.8376 247.362 20.7534 246.059 25.9568 246.809C31.4269 247.6 34.6588 253.312 33.1736 259.738C32.5147 262.588 31.3171 265.426 29.8319 267.875C27.8237 271.184 25.2822 274.092 23.0021 277.204C21.3809 279.449 19.8068 281.746 17.9085 284.427Z" fill="#121212"/>
<path d="M113.092 496.806C115.445 495.043 117.799 493.293 120.142 491.513C121.004 490.856 121.81 490.111 122.662 489.443C123.875 488.5 125.188 488.186 126.553 488.971C127.928 489.762 128.404 491.158 128.41 492.798C128.41 493.159 128.41 493.525 128.708 494.06C129.272 493.025 129.968 492.054 130.381 490.949C131.495 487.989 133.456 487.093 136.259 487.07C150.51 486.953 164.76 486.668 179.011 486.447C181.291 486.412 183.571 486.372 185.851 486.395C186.604 486.401 187.373 486.523 188.1 486.738C189.486 487.145 190.401 488.436 190.485 489.937C190.563 491.437 189.821 492.845 188.45 493.403C187.572 493.758 186.61 493.973 185.673 494.02C179.696 494.322 173.719 494.689 167.736 494.787C157.857 494.95 147.973 494.962 138.089 494.95C136.704 494.95 135.788 495.404 134.962 496.614C133.817 498.295 132.551 499.882 131.275 501.441C130.674 502.174 129.973 502.849 129.225 503.395C126.977 505.024 124.456 504.332 123.128 501.732C122.667 500.83 122.375 499.824 121.972 498.783C120.471 499.801 119.075 500.918 117.553 501.738C115.513 502.837 113.442 504.018 111.262 504.605C107.041 505.745 104.369 502.465 105.812 497.94C106.853 494.671 108.312 491.565 109.62 488.401C109.813 487.936 110.143 487.512 110.483 487.157C111.408 486.186 112.506 485.982 113.641 486.61C114.739 487.221 115.226 488.349 115.006 489.652C114.818 490.774 114.394 491.862 114.023 492.938C113.62 494.107 113.155 495.253 112.721 496.404C112.846 496.538 112.967 496.672 113.092 496.806Z" fill="#121212"/>
<path d="M15.6388 60.0622C19.1374 60.3821 23.5355 60.7427 27.9283 61.2196C28.9428 61.3301 29.9731 61.7314 30.9144 62.2025C32.75 63.1272 33.6704 65.0814 33.2939 66.9251C32.8964 68.8735 31.4897 69.8913 29.3037 69.9204C23.7499 69.9843 18.1856 69.8506 12.6527 70.2228C6.62299 70.6299 0.671732 71.8106 -4.99714 74.2882C-7.54917 75.4049 -9.90771 76.8473 -11.4714 79.4936C-12.8363 81.7967 -12.7735 82.5063 -10.5353 83.6055C-7.80542 84.9432 -4.9553 85.9726 -2.17316 87.1765C-1.11679 87.6302 -0.0185776 88.0606 0.912289 88.7469C2.12032 89.6309 2.60145 91.0268 2.21446 92.632C1.84316 94.1674 0.844303 95.0631 -0.546764 95.2201C-1.5247 95.3306 -2.5863 95.3771 -3.51194 95.0805C-7.47596 93.8126 -11.5027 92.6843 -15.3203 90.9802C-21.1199 88.3979 -22.9712 83.2216 -20.8375 76.6728C-19.0542 71.1999 -15.587 67.4602 -10.9275 65.0174C-5.65084 62.2432 0.0128021 61.1789 5.76011 60.6205C8.73574 60.3297 11.7323 60.2716 15.6388 60.0622Z" fill="#121212"/>
<path d="M102.042 426.711C102.607 420.935 103.146 415.399 103.689 409.769C103.674 409.769 103.36 409.716 103.057 409.775C96.1745 411.101 89.2976 412.462 82.4103 413.747C81.3068 413.95 80.878 414.538 80.5172 415.678C79.4399 419.057 78.2423 422.389 76.9767 425.687C76.5584 426.781 75.8576 427.775 75.1673 428.7C74.4038 429.718 73.3579 430.113 72.2178 429.52C71.1458 428.956 70.7222 427.857 70.8947 426.618C71.0935 425.222 71.3759 423.814 71.7994 422.483C72.6048 419.941 73.5514 417.463 74.3881 414.933C74.5764 414.369 74.6757 413.689 74.5868 413.101C74.2051 410.571 74.7542 409.007 76.9401 408.024C78.8176 407.181 80.8153 406.541 82.8077 406.169C89.0362 405.017 95.3012 404.075 101.54 402.97C103.459 402.632 105.342 402.033 107.235 401.539C108.882 401.109 110.472 401.027 111.722 402.574C112.967 404.104 112.747 405.825 112.261 407.64C110.849 412.898 109.494 418.179 108.176 423.465C108.046 424.001 108.271 424.669 108.412 425.251C109.191 428.56 110.028 431.852 110.76 435.179C110.922 435.918 110.796 436.755 110.718 437.534C110.603 438.698 110.002 439.733 108.982 439.692C108.176 439.663 107.204 439.052 106.655 438.355C106.022 437.558 105.713 436.412 105.384 435.371C105.075 434.394 104.673 434.173 103.71 434.347C97.5185 435.458 91.3163 436.476 85.114 437.488C84.2302 437.633 83.3045 437.651 82.4155 437.564C80.6165 437.383 79.3928 436.063 79.2568 434.301C79.1156 432.515 80.0726 430.951 81.8873 430.544C86.4946 429.508 91.1175 428.578 95.7457 427.676C97.9317 427.263 100.144 427.002 102.042 426.711Z" fill="#121212"/>
<path d="M-16.361 157.289C-9.07093 157.644 -1.84888 156.858 5.33657 155.561C6.13146 155.416 6.94205 155.306 7.74218 155.323C9.29013 155.352 10.4145 156.411 10.5818 157.859C10.744 159.272 9.9909 160.61 8.49001 160.988C5.77586 161.662 3.03555 162.273 0.274334 162.663C-7.87335 163.809 -16.0315 164.861 -24.1896 165.856C-25.4238 166.007 -25.7324 166.525 -25.8317 167.798C-26.8358 180.768 -29.3303 193.453 -31.9347 206.114C-32.1752 207.272 -32.5988 208.458 -33.2002 209.435C-34.4135 211.407 -36.5681 211.151 -37.3159 208.918C-37.7343 207.667 -37.9487 206.219 -37.8545 204.893C-37.3368 197.164 -36.7616 189.434 -36.0817 181.722C-35.5954 176.208 -34.926 170.712 -34.3037 165.216C-33.7179 160.022 -31.328 157.498 -26.6109 157.318C-23.2013 157.184 -19.7811 157.289 -16.361 157.289Z" fill="#121212"/>
<path d="M-1.26302 0.139465C1.24195 0.139465 3.6894 0.139465 6.21006 0.139465C6.92128 3.41389 6.64934 6.68832 6.15253 9.88132C5.03863 17.0001 3.72078 24.0841 2.47614 31.1796C2.21466 32.6802 2.00024 34.204 1.59756 35.6638C0.881111 38.2752 -0.970158 39.6013 -3.28686 39.7001C-6.4926 39.8339 -9.71402 39.9967 -12.8988 40.4388C-19.1586 41.3112 -25.3975 42.3988 -31.6469 43.3817C-33.5504 43.6783 -34.8997 41.9451 -34.4133 39.7641C-33.9217 37.554 -32.6353 35.9372 -30.7317 35.2683C-28.6242 34.5297 -26.4225 34.0353 -24.2261 33.6922C-18.8239 32.843 -13.4061 32.1451 -7.99349 31.3774C-7.2352 31.2727 -6.56058 31.168 -6.3514 30.0397C-4.88712 21.9729 -3.33393 13.9235 -1.87487 5.85081C-1.54018 3.9955 -1.46697 2.09365 -1.26302 0.139465Z" fill="#121212"/>
<path d="M77.6459 273.9C76.166 274.575 74.8533 275.145 73.5616 275.773C65.9787 279.431 58.4167 283.136 50.8182 286.742C49.0819 287.568 47.2464 288.179 45.4108 288.696C44.4224 288.976 43.3294 288.987 42.3096 288.859C40.861 288.679 39.7942 287.411 39.6635 285.969C39.517 284.346 40.2178 283.235 41.4834 282.531C41.9488 282.275 42.4456 282.078 42.9319 281.874C46.2214 280.49 49.4951 279.065 52.8002 277.745C61.68 274.191 70.1781 269.783 78.1846 264.205C81.4426 261.937 84.3921 263.007 86.008 266.898C87.5246 270.55 88.0266 274.482 88.377 278.431C88.581 280.746 88.7222 283.066 88.8268 285.387C88.8686 286.271 88.8372 287.202 88.6437 288.057C88.1783 290.121 86.9912 291.5 85.0719 291.901C83.1579 292.302 81.5054 291.558 80.5117 289.755C79.8633 288.586 79.4972 287.143 79.2932 285.771C78.8173 282.595 78.5193 279.385 78.127 276.198C78.0277 275.482 77.829 274.79 77.6459 273.9Z" fill="#121212"/>
<path d="M277.071 33.7155C277.055 30.8308 276.673 28.2717 277.887 25.8057C278.912 23.7236 280.344 22.4208 282.389 22.5953C284.387 22.7639 286.463 23.1885 288.304 24.0435C293.455 26.4164 297.827 30.1329 301.76 34.4949C302.157 34.9369 302.507 35.4604 302.795 36.0012C303.966 38.1881 303.527 40.3633 301.461 41.4741C299.333 42.6199 297.084 43.4923 294.867 44.4287C291.316 45.9234 287.739 47.3309 284.204 48.8547C283.153 49.3083 282.17 49.983 281.202 50.6402C279.55 51.7685 277.86 51.8209 276.553 50.6867C275.246 49.5526 274.738 47.6682 275.45 45.6733C276.872 41.7068 277.228 37.6007 277.071 33.7155Z" fill="#121212"/>
<path d="M115.038 27.3528C113.882 28.4462 112.872 29.4757 111.795 30.4062C109.855 32.0929 107.998 33.9715 105.881 35.3382C100.688 38.6825 95.4056 37.1528 92.4614 31.3484C91.1017 28.6731 90.2388 25.6487 89.3707 22.7058C88.7641 20.6527 89.606 18.7916 91.0965 17.9948C92.6183 17.1864 94.5323 17.704 95.6357 19.4488C96.3679 20.6004 96.849 21.9439 97.419 23.2176C98.0048 24.5437 98.4754 25.9395 99.15 27.2016C99.9711 28.7487 100.902 29.086 102.262 28.1496C103.867 27.0446 105.342 25.7011 106.822 24.3866C108.861 22.572 110.749 20.5306 112.878 18.8672C116.314 16.1802 119.498 17.0991 121.318 21.3216C122.338 23.6887 122.992 26.2536 123.745 28.7545C124.649 31.773 125.591 34.7043 127.745 37.0249C129.231 38.6301 128.279 41.2473 126.088 41.8929C123.917 42.5327 121.909 41.8347 120.482 40.0725C119.205 38.4963 118.17 36.5945 117.365 34.6636C116.423 32.3895 115.843 29.9293 115.038 27.3528Z" fill="#121212"/>
<path d="M267.908 190.056C265.581 183.478 266.983 177.534 269.99 171.852C270.356 171.16 271.004 170.584 271.627 170.131C272.652 169.38 273.792 169.281 274.838 170.113C275.92 170.974 275.957 172.172 275.638 173.521C274.791 177.092 274.064 180.704 273.18 184.258C272.422 187.305 273.337 189.626 275.408 191.551C275.842 191.952 276.307 192.301 276.778 192.691C274.665 194.744 271.71 194.116 268.824 191.301C263.756 194.104 257.936 193.459 255.154 186.735C254.395 184.909 253.878 182.81 253.794 180.809C253.491 173.236 255.368 166.292 259.295 160.081C260.022 158.929 260.943 157.882 261.926 156.992C263.223 155.817 264.818 155.841 265.879 156.794C266.925 157.737 267.155 159.173 266.449 160.97C263.913 167.438 262.538 174.202 262.339 181.245C262.208 185.84 263.939 188.474 267.908 190.056Z" fill="#121212"/>
<path d="M205.807 299.34C200.714 299.258 197.064 296.467 194.6 291.703C191.536 285.777 191.212 279.373 192.347 272.813C194.135 262.449 198.659 253.672 204.997 245.943C205.719 245.059 206.2 243.924 206.921 243.046C207.805 241.976 208.71 240.825 209.813 240.109C211.638 238.928 213.725 240.4 213.667 242.75C213.641 243.709 213.364 244.756 212.93 245.588C211.806 247.728 210.603 249.822 209.306 251.84C204.244 259.709 200.494 268.218 198.915 277.809C198.125 282.595 198.695 287.143 200.594 291.523C201.88 294.489 203.961 296.42 206.602 297.746C207.068 297.979 207.434 298.456 207.847 298.816C207.308 298.991 206.77 299.171 206.226 299.334C206.1 299.369 205.949 299.34 205.807 299.34Z" fill="#121212"/>
<path d="M303.067 81.9305C302.288 82.9425 301.388 84.2336 300.374 85.4027C299.344 86.5833 298.099 87.415 296.546 86.8276C295.029 86.2518 294.637 84.7862 294.417 83.1984C294.125 81.0581 293.675 78.941 293.502 76.7949C293.424 75.7829 293.586 74.5209 294.083 73.7183C294.946 72.3398 296.844 72.6946 297.644 74.2882C298.099 75.1955 298.334 76.2424 298.716 77.3765C298.894 76.8996 299.046 76.5041 299.192 76.1145C300.374 72.9971 303.078 72.3108 305.436 74.4976C306.226 75.2304 307.063 75.9225 307.952 76.4867C308.297 76.7019 308.998 76.7077 309.259 76.4518C309.494 76.225 309.51 75.4282 309.343 75.0269C308.835 73.788 308.37 72.4504 307.58 71.45C303.752 66.6052 299.391 62.662 293.392 61.6325C291.306 61.2719 290.427 58.7652 291.876 56.9622C292.66 55.9793 293.936 55.2058 295.103 54.9383C298.502 54.1589 301.749 54.9906 304.615 57.1251C309.421 60.7078 312.967 65.5293 315.325 71.4035C315.728 72.4038 315.958 73.5089 316.12 74.5965C316.941 80.0577 313.254 84.379 308.312 83.6055C306.576 83.3263 304.898 82.5237 303.067 81.9305Z" fill="#121212"/>
<path d="M25.9779 19.9432C31.72 20.0304 36.8868 24.6309 38.0478 30.7028C38.5812 33.5004 38.0687 36.1583 36.6619 38.4091C35.3231 40.5494 33.8275 42.7653 31.9553 44.2426C28.7653 46.7493 25.2614 48.7733 21.8151 50.8554C20.6228 51.5708 19.2736 51.3439 18.3009 50.1226C17.3282 48.907 17.4275 47.5228 18.008 46.127C18.1492 45.7896 18.3532 45.4756 18.4211 45.1208C18.8657 42.7071 19.4775 40.3051 19.6396 37.8682C19.8122 35.315 18.8238 33.1747 16.7738 31.7206C15.9476 31.1332 15.1579 30.3946 14.5251 29.5629C13.3014 27.9577 13.6675 26.2419 15.1788 24.9624C17.8093 22.7407 20.4816 20.6818 23.8651 20.1874C24.5607 20.0886 25.2719 20.0246 25.9779 19.9432ZM25.0418 42.3465C27.5258 40.6657 29.6804 38.9965 31.3644 36.6759C33.9582 33.1165 33.3307 29.6036 29.7118 27.3644C27.9965 26.3001 26.14 26.0035 24.2103 26.2361C23.3736 26.335 22.5421 26.5502 21.47 26.7538C25.7269 31.2379 25.6693 36.5712 25.0418 42.3465Z" fill="#121212"/>
<path d="M80.9146 479.782C80.9146 481.789 80.8519 483.801 80.9303 485.802C81.0401 488.564 79.9576 490.856 78.5561 492.915C78.0383 493.677 76.8983 494.235 76.004 494.299C72.9866 494.514 70.0318 493.985 67.2445 492.595C62.4018 490.181 60.4041 485.243 62.1822 479.654C64.1538 473.466 68.3845 469.709 73.6036 467.121C74.1214 466.865 74.66 466.655 75.1725 466.382C77.3323 465.225 79.4869 466.173 80.1302 468.761C80.5067 470.273 80.5538 471.884 80.7316 473.448C80.7786 473.867 80.7839 474.292 80.7891 474.716C80.7943 476.403 80.7891 478.095 80.7891 479.782C80.8362 479.782 80.8728 479.782 80.9146 479.782ZM72.9604 475.914C70.947 478.13 69.216 480.207 68.5519 483.033C68.3688 483.813 68.5519 485.162 69.033 485.581C70.0841 486.494 71.4386 486.977 72.9552 487.785C72.9604 483.563 72.9604 479.916 72.9604 475.914Z" fill="#121212"/>
<path d="M-18.1024 482.236C-18.1599 478.439 -15.3621 476.793 -12.3969 478.014C-9.34284 479.27 -6.18418 480.253 -3.00982 481.085C-1.09056 481.585 0.938519 481.597 2.92053 481.765C5.04897 481.946 6.5394 484.452 5.40981 486.436C2.46032 491.6 -0.604212 496.689 -3.79426 501.674C-5.08597 503.692 -6.17895 503.703 -8.2917 502.953C-10.7287 502.087 -12.2243 500.161 -13.1134 497.695C-14.562 493.682 -15.8275 489.588 -17.1506 485.517C-17.5585 484.278 -17.8828 483.01 -18.1024 482.236Z" fill="#121212"/>
<path d="M63.8608 0.0523075C67.4326 0.0523075 70.6959 0.0348594 73.9591 0.0813877C74.252 0.0872037 74.6546 0.424534 74.8168 0.726967C78.148 6.8687 79.7169 13.4524 78.3729 20.5945C76.7622 29.1674 70.6697 34.8206 62.5325 35.5766C58.6521 35.9372 54.9391 35.3091 51.4771 33.2909C49.6886 32.2499 48.2453 30.7842 48.125 28.3415C48.0884 27.5912 48.1773 26.649 48.559 26.0965C49.0297 25.4218 49.856 24.7123 50.5567 24.6716C51.1738 24.6367 51.8589 25.4684 52.4498 26.0034C53.0826 26.5792 53.5428 27.5272 54.2488 27.8588C57.8781 29.557 61.6173 29.7606 65.3878 28.4113C69.4303 26.9689 71.2031 23.5258 71.7627 19.1638C72.3275 14.7669 71.2711 10.7771 68.8812 7.24092C67.3332 4.92614 65.6911 2.66371 63.8608 0.0523075Z" fill="#121212"/>
<path d="M200.928 112.971C205.143 112.534 209.055 112.11 212.977 111.732C214.489 111.586 216.01 111.435 217.522 111.464C219.132 111.499 220.053 112.383 220.199 113.733C220.346 115.111 219.692 116.251 218.154 116.716C216.376 117.257 214.546 117.589 212.721 117.932C208.323 118.758 203.92 119.531 199.521 120.334C199.333 120.369 199.15 120.433 198.967 120.468C197.142 120.805 195.312 121.02 193.983 119.171C192.681 117.362 193.309 115.501 194.004 113.645C195.165 110.528 196.29 107.393 197.409 104.258C197.634 103.63 197.738 102.955 197.968 102.007C196.98 101.845 196.117 101.583 195.254 101.577C192.88 101.554 190.511 101.682 188.137 101.664C187.148 101.658 186.128 101.6 185.187 101.304C183.833 100.879 183.048 99.7508 182.965 98.1572C182.876 96.4938 183.608 95.3073 184.941 94.6385C185.49 94.3593 186.139 94.1383 186.725 94.1848C190.6 94.4582 194.475 94.7664 198.34 95.1794C199.255 95.2783 200.175 95.7261 201.028 96.1797C203.282 97.3778 204.479 99.524 203.956 102.24C203.376 105.264 202.377 108.19 201.545 111.156C201.388 111.691 201.184 112.215 200.928 112.971Z" fill="#121212"/>
<path d="M402.058 377.705C402.058 379.38 402.147 381.712 402.021 384.027C401.953 385.318 401.729 386.691 401.227 387.836C399.924 390.82 396.525 391.663 394.219 389.465C391.907 387.255 389.319 385.719 386.542 384.417C383.19 382.84 382.311 379.618 384.387 376.332C385.574 374.46 387.023 372.779 388.451 371.115C389.988 369.324 391.646 367.661 393.236 365.927C394.595 364.45 395.84 362.734 398.12 363.7C401.148 364.979 402.513 366.817 402.466 369.946C402.44 372.313 402.231 374.681 402.058 377.705Z" fill="#121212"/>
<path d="M55.8335 312.356C56.1159 307.546 56.55 303.789 58.2496 300.363C59.9701 296.897 62.8097 295.507 66.8627 296.141C69.6709 296.583 72.1654 299.055 72.6466 302.533C73.5774 309.25 71.9719 315.299 67.6053 320.091C64.0858 323.953 59.0445 322.72 57.0781 317.666C56.3146 315.729 56.095 313.531 55.8335 312.356Z" fill="#121212"/>
<path d="M31.4218 88.5375C31.3172 94.8712 29.9 100.961 28.4828 107.038C27.0655 113.116 25.528 119.159 23.933 125.179C23.567 126.551 22.9133 127.929 22.087 129.023C21.0515 130.39 19.5663 130.035 19.1166 128.313C18.7453 126.883 18.557 125.277 18.7244 123.812C19.6709 115.6 20.7848 107.411 21.7628 99.2041C22.2857 94.8188 22.7041 90.4103 23.0388 86.0017C23.2636 83.0472 24.707 81.0348 26.9923 80.9185C29.2933 80.8022 31.1655 82.7971 31.4113 85.6993C31.4898 86.6298 31.4218 87.5837 31.4218 88.5375Z" fill="#121212"/>
<path d="M101.258 112.587C108.767 113.046 114.828 116.728 119.849 122.713C121.92 125.184 123.337 128.127 123.917 131.471C124.566 135.182 123.489 138.241 120.79 140.55C119.744 141.446 119.289 141.237 118.735 139.934C114.797 130.576 108.616 124.009 99.6103 120.95C98.6585 120.625 97.6858 120.351 96.7654 119.938C95.1808 119.229 94.3493 117.868 94.4591 116.338C94.5742 114.715 95.5992 113.418 97.304 113.052C98.6009 112.761 99.9397 112.726 101.258 112.587Z" fill="#121212"/>
<path d="M37.5456 396.659C37.5822 404.162 36.5311 411.409 33.3881 418.132C32.8076 419.377 32.0493 420.575 31.1864 421.593C30.3497 422.576 29.1992 423.093 27.9389 422.5C26.6785 421.907 26.2445 420.627 26.2393 419.272C26.2393 417.917 26.4432 416.544 26.6681 415.201C27.7663 408.507 29.0528 401.841 29.9679 395.118C30.6007 390.448 30.1353 385.737 29.2829 381.096C29.1103 380.165 28.9377 379.223 28.8907 378.281C28.8279 376.984 29.2201 375.855 30.3811 375.309C31.5996 374.739 32.6926 375.175 33.4299 376.268C34.1045 377.269 34.6641 378.403 35.0877 379.566C37.1116 385.039 37.5195 390.82 37.5456 396.659Z" fill="#121212"/>
<path d="M324.958 28.7428C320.879 29.7199 317.161 30.5284 313.479 31.5229C310.42 32.3488 308.977 31.0111 309.139 27.4982C309.29 24.1831 309.306 20.8621 308.192 17.6633C307.486 15.6335 308.616 13.8538 310.64 13.6793C314.185 13.3769 317.731 13.1093 321.277 12.8534C322.662 12.7546 323.74 13.6328 323.897 14.9414C324.059 16.2384 323.253 17.3841 321.794 17.6051C319.54 17.9483 317.265 18.1402 315.006 18.4077C314.687 18.4426 314.373 18.559 313.981 18.652C314.149 20.6934 314.305 22.6651 314.478 24.7472C317.658 24.154 320.717 23.3456 323.808 23.0897C326.36 22.8745 327.777 21.7461 328.3 18.9952C328.462 18.1402 328.906 17.3376 329.288 16.5466C329.827 15.4358 330.648 14.7611 331.84 14.9705C333.038 15.1857 333.723 16.1279 333.791 17.3609C333.869 18.7044 333.932 20.2049 333.498 21.4088C331.825 26.0442 329.952 30.5982 328.138 35.1754C328.007 35.5069 327.814 35.914 327.547 36.0478C326.825 36.4258 326.025 36.9842 325.303 36.9086C324.263 36.798 323.923 35.6581 323.991 34.6054C324.069 33.2968 324.32 31.9998 324.519 30.7028C324.603 30.191 324.744 29.7025 324.958 28.7428Z" fill="#121212"/>
<path d="M-2.89466 124.603C1.13212 124.603 5.1589 124.545 9.18568 124.649C10.1427 124.672 11.1259 125.155 12.0306 125.591C13.1445 126.132 13.9237 127.057 13.7459 128.552C13.5681 130.035 12.5378 130.477 11.403 130.669C6.10023 131.57 0.807886 132.606 -4.51583 133.292C-10.0278 134.001 -15.5712 134.403 -21.1041 134.845C-22.1709 134.932 -23.3005 134.763 -24.3359 134.443C-27.0501 133.606 -27.8136 130.343 -25.6538 128.331C-24.5504 127.296 -23.0181 126.452 -21.6061 126.266C-16.1935 125.551 -10.7443 125.126 -5.31073 124.614C-4.51583 124.539 -3.70001 124.603 -2.89466 124.603Z" fill="#121212"/>
<path d="M383.048 198.472C383.305 197.274 383.702 195.268 384.152 193.278C384.685 190.929 385.281 188.597 385.825 186.247C386.285 184.258 387.488 182.862 389.324 182.943C390.835 183.007 392.467 183.374 393.8 184.136C396.703 185.799 399.474 187.759 402.256 189.673C403.763 190.708 404.657 192.232 404.463 194.302C404.27 196.39 403.01 197.443 401.404 198.286C398.287 199.932 395.233 201.718 392.153 203.451C391.436 203.858 390.751 204.358 390.009 204.684C386.343 206.318 382.949 203.683 383.048 198.472Z" fill="#121212"/>
<path d="M374.388 290.482C368.609 290.43 363.772 288.295 360.111 283.346C358.736 281.484 357.748 279.379 357.481 276.942C357.23 274.668 358.056 272.743 359.63 271.824C361.189 270.917 363.108 271.26 364.645 272.76C365.142 273.249 365.634 273.767 366.021 274.36C370.508 281.211 376.626 283.026 383.796 281.403C385.444 281.031 387.007 280.193 388.618 279.594C389.073 279.426 389.559 279.356 390.03 279.239C390.046 279.792 390.187 280.385 390.056 280.897C389.334 283.735 387.629 285.753 385.464 287.324C382.065 289.796 378.211 290.302 374.388 290.482Z" fill="#121212"/>
<path d="M183.744 133.827C189.235 134.135 194.726 134.403 200.212 134.775C202.147 134.909 203.297 136.02 203.553 137.631C203.794 139.154 203.057 140.51 201.341 141.452C199.338 142.545 197.236 143.423 195.291 144.627C192.357 146.442 189.522 148.46 186.646 150.391C186.04 150.798 185.475 151.31 184.826 151.618C183.006 152.479 181.27 151.612 180.543 149.554C180.439 149.257 180.324 148.954 180.292 148.646C180.01 145.936 179.089 143.516 177.97 141.091C176.229 137.317 177.709 134.438 181.485 133.757C182.232 133.623 182.991 133.583 183.749 133.501C183.744 133.612 183.744 133.722 183.744 133.827Z" fill="#121212"/>
<path d="M-15.4248 121.037C-20.0268 121.037 -24.6341 121.043 -29.2361 121.032C-29.9003 121.032 -30.5644 120.968 -31.2234 120.857C-32.9753 120.566 -33.629 118.868 -32.3739 117.466C-31.5476 116.548 -30.3709 115.768 -29.2413 115.483C-26.1925 114.727 -23.1018 114 -19.9955 113.744C-12.1406 113.099 -4.27011 112.686 3.59518 112.249C5.05423 112.168 6.53944 112.343 7.99849 112.523C9.6092 112.726 10.5348 113.692 10.676 115.088C10.8225 116.518 10.1688 117.827 8.57897 118.205C5.06469 119.037 1.51904 119.834 -2.05276 120.194C-6.49268 120.648 -10.964 120.654 -15.4248 120.851C-15.4248 120.91 -15.4248 120.974 -15.4248 121.037Z" fill="#121212"/>
<path d="M114.081 366.811C114.112 376.798 107.402 386.609 98.7213 389.151C97.5603 389.488 96.2739 389.564 95.0763 389.418C93.6225 389.244 92.6811 387.97 92.5399 386.429C92.3935 384.841 92.9845 383.608 94.2396 382.899C94.9874 382.474 95.8346 382.224 96.6608 382.009C106.163 379.554 111.743 366.015 103.899 356.325C102.732 354.883 102.591 353.458 103.444 352.353C104.28 351.265 105.562 351.19 107.078 352.138C111.508 354.918 114.06 360.268 114.081 366.811Z" fill="#121212"/>
<path d="M221.078 481.562C220.058 483.068 219.279 484.255 218.463 485.4C218.055 485.976 217.621 486.564 217.098 486.988C216.214 487.704 215.205 487.75 214.306 487.029C213.416 486.314 213.014 485.214 213.437 484.086C215.012 479.91 216.502 475.67 218.358 471.651C219.922 468.255 223.829 467.877 225.973 470.884C227.176 472.564 228.059 474.681 228.598 476.758C229.497 480.247 230.062 483.848 230.658 487.424C231.098 490.053 229.932 492.199 227.939 492.793C225.952 493.38 223.923 492.205 223.107 489.728C222.474 487.802 222.098 485.773 221.611 483.789C221.465 483.196 221.324 482.597 221.078 481.562Z" fill="#121212"/>
<path d="M61.4553 380.27C61.4082 383.492 60.88 385.818 59.536 387.848C57.099 391.53 52.9154 392.233 49.5894 389.546C45.8973 386.563 44.6317 380.345 46.7968 375.879C47.0687 375.32 47.3354 374.768 47.5917 374.198C49.5161 369.9 53.9508 368.638 57.4546 371.47C60.3518 373.802 61.3193 377.199 61.4553 380.27ZM54.16 383.87C55.4569 381.869 55.2269 378.583 53.8776 377.222C53.1507 376.495 52.5598 376.786 52.4709 377.728C52.2564 379.938 52.7794 381.951 54.16 383.87Z" fill="#121212"/>
<path d="M189.418 373.779C186.285 373.779 183.148 373.808 180.015 373.762C179.126 373.75 178.2 373.639 177.359 373.343C176.286 372.965 175.643 372.034 175.586 370.731C175.523 369.365 176.067 368.295 177.186 367.835C178.195 367.422 179.293 367.207 180.371 367.114C186.432 366.585 192.503 366.154 198.559 365.59C199.187 365.532 199.893 364.921 200.337 364.351C201.388 362.996 202.277 361.49 203.276 360.082C203.977 359.094 204.913 358.512 206.022 359.105C207.052 359.658 207.057 360.757 206.832 361.862C206.074 365.584 204.469 368.894 202.392 371.842C201.781 372.709 200.337 373.168 199.25 373.226C195.981 373.401 192.697 373.29 189.418 373.29C189.418 373.453 189.418 373.616 189.418 373.779Z" fill="#121212"/>
<path d="M360.603 303.585C351.875 303.201 346.614 297.729 345.181 288.574C344.878 286.626 345.244 284.771 346.53 283.287C347.503 282.165 348.727 281.729 350.044 282.27C351.284 282.781 352.058 283.712 352.345 285.358C352.596 286.8 353.506 288.091 354.066 289.476C356.649 295.85 361.356 298.293 367.339 298.386C367.72 298.392 368.113 298.333 368.473 298.421C368.845 298.514 369.19 298.752 369.546 298.927C369.357 299.316 369.247 299.817 368.965 300.078C366.465 302.399 363.537 303.452 360.603 303.585Z" fill="#121212"/>
<path d="M-2.09997 212.803C-5.2691 212.849 -6.75953 210.692 -6.15813 207.952C-5.5515 205.19 -4.81936 202.456 -4.18658 199.699C-3.81528 198.065 -3.50673 196.413 -3.20865 194.762C-2.97855 193.482 -2.45036 192.476 -1.29985 192.04C-0.149341 191.603 0.734459 192.133 1.69147 192.906C5.63981 196.111 6.86876 201.188 8.92921 205.678C9.62997 207.208 9.02334 208.993 7.61658 209.528C4.17029 210.831 0.650785 211.89 -2.09997 212.803Z" fill="#121212"/>
<path d="M130.873 218.136C130.371 219.398 130.203 220.596 129.576 221.254C126.773 224.167 125.073 227.884 123.196 231.49C122.934 231.99 122.683 232.502 122.39 232.979C121.669 234.154 120.685 234.84 119.373 234.619C118.065 234.398 117.302 233.444 116.92 232.071C116.24 229.658 115.607 227.221 114.839 224.842C114.53 223.882 113.997 222.964 113.411 222.161C112.7 221.195 112.25 220.224 112.6 218.98C112.967 217.677 113.84 216.95 115.017 216.857C118.139 216.607 121.266 216.391 124.393 216.269C125.983 216.205 127.604 216.229 129.173 216.508C129.774 216.612 130.266 217.531 130.873 218.136Z" fill="#121212"/>
<path d="M63.9025 337.301C61.5911 337.173 59.5202 336.719 58.4533 334.201C57.7682 332.59 58.1395 332.351 59.6404 331.875C64.7445 330.252 69.6237 328.071 73.0543 323.226C73.525 322.557 73.7289 321.615 73.9381 320.766C74.5343 318.381 76.0352 317.079 77.9283 317.387C79.8162 317.695 81.0295 319.609 80.8987 322.069C80.6948 325.971 79.1782 329.158 76.5686 331.706C72.9184 335.26 68.5517 336.807 63.9025 337.301Z" fill="#121212"/>
<path d="M287.807 14.5575C284.575 14.5575 281.349 14.5982 278.117 14.5284C277.139 14.5052 276.124 14.3016 275.193 13.9468C274.074 13.5223 273.442 12.5161 273.421 11.1551C273.4 9.78838 273.991 8.72986 275.11 8.31692C276.171 7.92725 277.332 7.72369 278.452 7.70042C283.916 7.59573 289.376 7.58992 294.841 7.53757C295.84 7.52594 296.833 7.46196 297.832 7.45615C300.144 7.44452 301.728 9.02648 301.713 11.2947C301.697 13.5572 300.081 15.0752 297.775 15.0635C294.449 15.0403 291.128 15.0577 287.802 15.0577C287.807 14.8949 287.807 14.7262 287.807 14.5575Z" fill="#121212"/>
<path d="M285.94 218.933C283.702 218.91 281.788 218.136 280.726 215.792C279.607 213.315 280.182 210.982 281.448 208.755C281.872 208.016 282.196 207.208 282.562 206.429C282.604 206.335 282.625 206.231 282.661 206.132C284.429 201.723 291.865 200.06 294.977 203.387C296.698 205.225 297.006 207.516 296.457 209.97C295.401 214.681 290.302 218.991 285.94 218.933ZM285.302 214.013C287.812 214.059 290.657 211.663 291.405 209.22C291.855 207.755 291.4 207.086 290.061 207.598C288.341 208.261 286.62 209.098 285.124 210.226C284.549 210.657 284.481 212.099 284.429 213.099C284.413 213.46 285.14 213.856 285.302 214.013Z" fill="#121212"/>
<path d="M218.886 308.372C221.627 308.413 223.781 309.5 224.869 312.507C225.471 314.159 225.533 315.438 224.247 317.038C222.087 319.725 219.629 321.859 216.92 323.726C214.112 325.663 210.519 323.936 209.787 320.33C208.568 314.322 213.123 308.331 218.886 308.372Z" fill="#121212"/>
<path d="M370.44 91.7887C369.174 91.7538 368.327 91.2187 368.071 89.8694C367.82 88.5608 368.437 87.4034 369.76 87.0021C372.411 86.1936 375.094 85.519 377.761 84.7687C384.199 82.9599 390.631 81.1395 397.069 79.3365C397.895 79.1039 398.742 78.9817 399.574 78.7724C401.138 78.3711 402.508 79.1388 402.869 80.6451C403.25 82.2329 402.377 83.6869 400.719 84.1115C396.007 85.3212 391.29 86.5019 386.578 87.7116C381.589 88.9911 376.6 90.2823 371.606 91.5618C371.198 91.6607 370.774 91.7189 370.44 91.7887Z" fill="#121212"/>
<path d="M156.728 235.782C157.083 234.206 157.293 232.56 157.826 231.059C159.191 227.244 162.423 225.534 165.791 226.686C169.321 227.89 171.297 231.414 170.576 235.392C169.969 238.737 168.212 241.121 165.351 242.401C160.974 244.355 156.822 241.104 156.728 235.782Z" fill="#121212"/>
<path d="M134.377 236.777C134.173 237.8 133.969 239.714 133.409 241.488C132.18 245.367 130.81 249.2 129.409 253.009C129.079 253.905 128.504 254.777 127.855 255.429C126.198 257.098 124.121 256.324 123.63 253.887C123.468 253.085 123.415 252.16 123.609 251.386C125.01 245.739 126.417 240.098 127.981 234.503C128.608 232.258 130.13 231.31 131.73 231.647C133.441 232.002 134.413 233.56 134.377 236.777Z" fill="#121212"/>
<path d="M20.3245 96.1565C20.2095 100.309 17.5058 103.147 13.8399 103.101C10.5818 103.06 6.81654 99.4251 7.0571 95.2085C7.29766 90.986 10.0275 88.0838 13.8869 88.2118C17.4849 88.3223 20.4396 91.9748 20.3245 96.1565Z" fill="#121212"/>
<path d="M95.7926 441.367C96.577 441.484 97.4817 441.379 98.1406 441.774C98.8048 442.176 99.5474 443.019 99.652 443.775C99.7461 444.444 99.1656 445.555 98.5956 445.927C97.6909 446.52 96.5665 446.788 95.4997 446.962C89.5327 447.934 83.5606 448.847 77.5884 449.754C76.8406 449.864 76.0614 449.963 75.324 449.841C73.98 449.62 73.07 448.759 72.8766 447.177C72.704 445.729 73.4727 444.426 74.822 443.886C75.2665 443.711 75.7371 443.571 76.2026 443.519C82.7186 442.792 89.2399 442.083 95.7926 441.367Z" fill="#121212"/>
<path d="M337.656 181.571C338.398 180.448 338.853 179.268 339.653 178.639C342.519 176.389 345.489 174.307 348.449 172.207C349.856 171.212 350.981 171.864 351.341 173.707C351.713 175.609 352.131 177.505 352.586 179.384C352.947 180.879 352.811 181.926 351.378 182.751C348.476 184.421 345.683 186.317 342.838 188.114C341.672 188.852 340.563 188.463 339.983 187.334C339.088 185.584 338.477 183.653 337.656 181.571Z" fill="#121212"/>
<path d="M3.06181 413.474C0.922915 413.142 -1.02772 412.985 -2.91037 412.502C-5.33689 411.88 -7.39734 410.49 -8.67336 407.983C-9.7402 405.889 -9.53102 403.662 -8.2027 402.307C-6.95283 401.033 -5.14863 400.934 -3.36011 402.371C0.216924 405.25 4.32738 406.669 8.49012 407.948C9.28502 408.193 10.1688 408.082 11.0108 408.163C11.3612 408.198 11.7063 408.297 12.0567 408.361C11.9626 408.786 11.9573 409.274 11.7586 409.629C10.7545 411.455 9.18042 412.427 7.37622 412.863C5.90671 413.218 4.3849 413.293 3.06181 413.474Z" fill="#121212"/>
<path d="M293.209 279.519C293.058 281.194 292.299 282.252 291.091 282.293C289.936 282.334 289.057 281.397 288.916 279.868C288.142 271.213 287.373 262.553 286.636 253.893C286.568 253.12 286.494 252.189 286.808 251.578C287.185 250.851 287.943 250.008 288.607 249.932C289.266 249.857 290.082 250.566 290.694 251.119C290.997 251.392 291.097 252.067 291.138 252.573C291.844 261.559 292.524 270.539 293.209 279.519Z" fill="#121212"/>
<path d="M60.3257 199.147C60.9585 195.035 61.4866 191.185 62.1665 187.364C62.6215 184.816 64.1485 183.496 65.9736 183.758C67.8772 184.031 69.3049 185.863 68.9597 188.376C68.2851 193.261 67.3333 198.1 66.4025 202.939C66.2456 203.771 65.7174 204.573 65.2153 205.254C63.8923 207.045 62.2136 206.923 61.4396 204.771C60.7911 202.968 60.6604 200.932 60.3257 199.147Z" fill="#121212"/>
<path d="M48.0517 14.6506C47.8269 16.2442 47.602 17.8436 47.3667 19.4372C47.2882 19.9548 47.215 20.4841 47.0686 20.9842C46.7652 22.0369 46.1795 22.7698 45.0866 22.5895C44.0877 22.4266 43.6275 21.6415 43.5961 20.5829C43.5543 19.158 43.5491 17.7331 43.5909 16.3082C43.6484 14.2493 43.7007 12.1904 43.8733 10.1432C44.1295 7.07811 46.0906 5.97306 48.1825 7.92143C52.0314 11.5099 55.7287 15.302 59.4208 19.0882C60.5766 20.2747 60.4824 22.0079 59.4522 23.014C58.4481 23.9969 57.2819 23.712 56.1053 22.4383C53.6003 19.7222 51.0274 17.0817 48.4806 14.4121C48.3446 14.4936 48.1982 14.575 48.0517 14.6506Z" fill="#121212"/>
<path d="M145.662 330.025C147.246 330.077 148.224 330.74 148.711 332.101C149.218 333.526 148.951 334.87 147.874 335.824C146.99 336.603 146.002 337.278 144.982 337.824C141.138 339.889 137.263 341.896 133.393 343.896C132.452 344.385 131.469 345.03 130.48 345.094C129.675 345.147 128.608 344.658 128.064 343.995C127.327 343.099 127.646 341.907 128.383 340.982C128.572 340.75 128.786 340.517 129.027 340.36C134.11 337.068 139.193 333.776 144.292 330.519C144.768 330.217 145.359 330.13 145.662 330.025Z" fill="#121212"/>
<path d="M130.235 0.12204C132.421 0.12204 134.403 0.12204 136.557 0.12204C136.175 3.76288 135.778 7.31066 135.443 10.8643C135.255 12.8533 135.14 14.8541 135.056 16.8548C134.952 19.3789 133.21 21.211 131.066 20.9783C128.922 20.7457 127.494 18.4833 127.866 16.0871C128.608 11.3063 129.288 6.51386 129.994 1.72145C130.062 1.20964 130.146 0.697827 130.235 0.12204Z" fill="#121212"/>
<path d="M172.746 288.871C172.746 286.445 172.715 284.02 172.762 281.601C172.777 280.827 172.892 280.007 173.143 279.292C173.572 278.059 174.451 277.372 175.674 277.372C176.893 277.372 177.792 278.024 178.211 279.274C178.467 280.048 178.593 280.909 178.619 281.74C178.765 286.376 178.875 291.017 178.98 295.652C178.99 296.228 178.943 296.815 178.844 297.38C178.519 299.217 177.254 300.416 175.685 300.421C174.064 300.427 172.62 299.165 172.516 297.24C172.369 294.46 172.479 291.662 172.479 288.871C172.568 288.871 172.657 288.871 172.746 288.871Z" fill="#121212"/>
<path d="M139.376 172.806C139.637 172.155 139.956 170.776 140.662 169.712C141.975 167.723 143.492 165.885 144.966 164.03C146.598 161.977 148.308 159.999 149.94 157.94C151.012 156.585 152.361 156.131 153.595 156.853C154.793 157.556 155.358 159.167 154.861 160.825C154.625 161.61 154.259 162.389 153.82 163.058C150.939 167.432 147.482 171.189 143.643 174.516C143.199 174.906 142.707 175.249 142.2 175.528C140.589 176.406 139.334 175.499 139.376 172.806Z" fill="#121212"/>
<path d="M176.794 65.6223C177.452 61.6616 178.169 57.3054 178.901 52.955C179.241 50.9368 179.607 48.9187 179.968 46.9063C180.025 46.5981 180.093 46.2898 180.182 45.9874C180.695 44.2833 181.861 43.4458 183.184 43.8238C184.408 44.1786 185.176 45.5512 184.925 47.1913C184.293 51.2974 183.608 55.3919 182.923 59.4806C182.504 61.9698 182.117 64.4649 181.589 66.9193C181.228 68.6001 180.072 69.4202 178.776 69.1992C177.52 68.9898 176.731 67.7277 176.794 65.6223Z" fill="#121212"/>
<path d="M152.147 79.9821C154.876 79.9937 156.309 80.8603 156.56 82.2969C156.811 83.7509 155.954 84.821 153.763 85.6876C152.643 86.1297 151.482 86.4379 150.374 86.8974C147.492 88.0897 144.595 89.2471 141.766 90.5789C139.784 91.5153 138.649 91.5967 137.885 90.4277C137.111 89.247 137.43 87.6127 138.832 86.054C141.63 82.9308 145.243 81.6222 148.956 80.5928C150.185 80.2555 151.472 80.1101 152.147 79.9821Z" fill="#121212"/>
<path d="M121.083 431.84C121.01 432.789 121.125 433.818 120.816 434.655C120.513 435.481 119.864 436.511 119.206 436.691C118.672 436.831 117.809 435.929 117.26 435.301C116.857 434.842 116.711 434.091 116.476 433.457C115.257 430.142 114.039 426.821 112.841 423.495C112.595 422.814 112.355 422.11 112.24 421.389C111.931 419.441 112.899 417.58 114.483 416.94C116.115 416.283 117.846 416.981 118.787 418.702C119.007 419.103 119.216 419.545 119.3 419.999C120.006 423.919 120.686 427.845 121.371 431.771C121.266 431.794 121.177 431.817 121.083 431.84Z" fill="#121212"/>
<path d="M118.222 358.32C118.259 354.633 116.162 351.405 113.212 350.166C112.857 350.015 112.486 349.922 112.135 349.765C111.162 349.323 110.582 348.537 110.645 347.334C110.713 346.077 111.366 345.193 112.449 345.013C113.359 344.862 114.389 344.827 115.236 345.158C120.079 347.043 122.976 350.905 123.944 356.465C124.142 357.593 123.907 358.89 123.609 360.03C123.201 361.594 121.909 362.496 120.722 362.356C119.42 362.205 118.473 361.03 118.275 359.303C118.222 358.826 118.222 358.349 118.222 358.32Z" fill="#121212"/>
<path d="M359.531 490.46C359.186 491.827 359.045 492.95 358.616 493.915C358.14 494.997 357.256 495.485 356.106 495.078C354.124 494.38 352.131 493.712 350.144 493.025C349.736 492.886 349.323 492.752 348.931 492.566C346.75 491.525 346.232 489.698 347.953 487.884C349.793 485.941 351.917 484.278 354.061 482.748C355.441 481.765 357.146 482.487 357.737 484.179C358.48 486.267 358.977 488.465 359.531 490.46Z" fill="#121212"/>
<path d="M8.13965 189.609C6.4871 189.545 5.21109 188.794 4.41096 187.276C3.2866 185.136 2.23022 182.949 1.2 180.745C0.922829 180.152 0.77117 179.448 0.692726 178.779C0.373722 176.005 2.55969 174.08 4.89731 175.109C5.54055 175.394 6.18379 175.859 6.64922 176.424C8.19195 178.291 9.70852 180.187 11.1205 182.17C12.2083 183.694 12.3704 185.462 11.5493 187.236C10.8277 188.783 9.60916 189.486 8.13965 189.609Z" fill="#121212"/>
<path d="M349.129 12.964C346.3 12.7778 344.224 12.3998 343.016 9.84655C342.2 8.10756 342.237 6.53723 343.173 4.94364C345.474 1.02363 350.787 0.71538 353.454 4.33295C355.331 6.88038 354.814 10.3118 352.189 11.8531C351.096 12.4987 349.804 12.7313 349.129 12.964Z" fill="#121212"/>
<path d="M38.9053 145.575C38.9837 144.616 39.0046 144.034 39.0831 143.464C39.491 140.585 41.4102 138.608 43.7478 138.637C46.1691 138.666 48.3969 140.87 48.4545 143.772C48.4911 145.552 48.1198 147.442 47.5236 149.1C46.8019 151.101 45.2278 152.177 43.1935 151.973C41.1592 151.775 39.9355 150.368 39.3393 148.309C39.0569 147.32 39.0099 146.25 38.9053 145.575Z" fill="#121212"/>
<path d="M45.5416 422.081C42.8483 422.122 40.631 419.819 40.4532 417.056C40.2754 414.369 43.9936 410.397 45.9181 410.42C48.5067 410.455 50.9489 412.904 50.996 415.753C51.0588 419.272 48.6741 422.035 45.5416 422.081Z" fill="#121212"/>
<path d="M14.9014 403.319C10.9321 403.179 6.4033 398.236 6.24118 393.967C6.16797 392.123 6.92626 390.721 8.27549 390.203C9.66656 389.668 11.2564 390.227 12.0199 391.902C13.5312 395.229 14.9432 398.614 16.2349 402.051C16.7997 403.569 15.5289 403.232 14.9014 403.319Z" fill="#121212"/>
<path d="M282.29 70.944C279.466 70.8102 277.421 68.6408 277.479 65.8317C277.536 63.0749 279.597 60.8532 281.987 60.9695C284.591 61.0974 286.693 63.7379 286.599 66.7564C286.521 69.2748 284.69 71.0545 282.29 70.944Z" fill="#121212"/>
<path d="M348.591 222.202C348.936 221.172 349.223 219.573 349.95 218.282C351.158 216.13 353.25 216.229 354.882 218.002C358.234 221.649 356.54 224.813 353.993 227.785C353.109 228.814 351.864 228.849 350.902 227.866C349.579 226.511 348.847 224.749 348.591 222.202Z" fill="#121212"/>
<path d="M229.832 311.623C229.184 311.036 228.321 310.629 228.08 309.948C227.84 309.256 228.127 308.267 228.347 307.465C228.457 307.075 228.912 306.767 229.267 306.511C231.505 304.911 233.738 303.306 236.019 301.782C236.651 301.364 237.42 301.073 238.152 300.991C239.852 300.805 240.903 302.463 240.307 304.243C240.26 304.388 240.202 304.551 240.113 304.661C237.373 308.087 233.707 309.762 229.832 311.623Z" fill="#121212"/>
<path d="M300.923 274.459C300.808 276.244 300.74 278.036 300.557 279.809C300.415 281.159 299.877 282.258 298.454 282.316C297.262 282.363 296.342 281.397 296.248 279.751C296.154 278.076 296.258 276.384 296.316 274.703C296.373 272.865 296.504 271.027 296.541 269.184C296.567 267.904 297.048 267.02 298.177 266.77C299.328 266.514 300.253 267.194 300.468 268.358C300.829 270.347 300.907 272.4 301.101 274.424C301.038 274.435 300.98 274.447 300.923 274.459Z" fill="#121212"/>
<path d="M349.422 113.959C349.417 111.616 350.996 109.731 352.989 109.708C355.034 109.685 357.199 111.86 357.22 113.959C357.246 116.379 355.3 118.589 353.177 118.548C350.965 118.502 349.433 116.629 349.422 113.959Z" fill="#121212"/>
<path d="M48.3865 0.0523016C51.3621 0.0523016 54.0187 0.0290374 56.6701 0.0813817C56.9891 0.0871978 57.5069 0.441976 57.5905 0.750226C58.056 2.5183 58.558 4.29801 58.7724 6.11261C58.9868 7.95047 57.4336 9.02062 56.0426 7.98537C53.2029 5.87415 50.6561 3.37907 48.3865 0.0523016Z" fill="#121212"/>
<path d="M61.9729 358.721C61.9363 361.216 60.7545 362.711 58.8457 362.688C56.9055 362.665 55.0176 360.524 55.049 358.39C55.0751 356.668 57.0362 354.772 58.7777 354.778C60.6917 354.79 62.0095 356.418 61.9729 358.721Z" fill="#121212"/>
<path d="M314.489 42.1721C313.045 42.1081 311.999 41.7242 311.691 40.2062C311.44 38.9674 312.104 37.8973 313.516 37.4727C314.604 37.147 315.744 36.926 316.868 36.8911C318.243 36.8504 319.211 37.7984 319.263 39.0547C319.321 40.5087 318.547 41.2938 317.36 41.5963C316.35 41.8638 315.31 42.015 314.489 42.1721Z" fill="#121212"/>
<path d="M31.9186 446.829C30.1772 446.829 28.9535 445.485 28.9483 443.577C28.943 441.693 30.2243 440.216 31.8663 440.227C33.5659 440.239 35.0825 441.908 35.0668 443.746C35.0511 445.532 33.7281 446.829 31.9186 446.829Z" fill="#121212"/>
<path d="M170.529 343.792C170.539 341.96 171.695 340.581 173.217 340.587C174.833 340.593 176.208 342.041 176.192 343.722C176.177 345.467 174.843 346.926 173.274 346.915C171.684 346.903 170.523 345.583 170.529 343.792Z" fill="#121212"/>
<path d="M247.043 294.902C248.967 294.879 250.248 295.862 250.285 297.403C250.327 298.962 248.643 300.642 246.996 300.683C245.421 300.724 244.182 299.497 244.14 297.857C244.098 296.205 245.359 294.925 247.043 294.902Z" fill="#121212"/>
<path d="M222.349 167.258C222.281 165.379 223.06 164.454 224.791 164.361C226.114 164.291 227.165 165.431 227.249 167.042C227.338 168.729 226.255 170.416 224.979 170.282C223.395 170.119 222.202 169.724 222.349 167.258Z" fill="#121212"/>
<path d="M201.639 488.82C201.645 490.594 200.238 492.176 198.674 492.164C197.362 492.159 196.462 491.216 196.483 489.861C196.504 488.076 197.905 486.395 199.38 486.377C200.688 486.366 201.634 487.384 201.639 488.82Z" fill="#121212"/>
<path d="M213.202 104.473C213.197 105.701 211.847 106.881 210.451 106.881C208.84 106.881 207.69 105.712 207.737 104.13C207.784 102.694 208.935 101.548 210.331 101.554C211.8 101.554 213.212 102.99 213.202 104.473Z" fill="#121212"/>
<path d="M236.719 441.943C235.396 441.902 234.078 440.733 234.073 439.593C234.068 437.965 235.192 436.65 236.536 436.709C237.948 436.767 239.015 437.953 238.989 439.425C238.968 440.844 237.938 441.984 236.719 441.943Z" fill="#121212"/>
<path d="M108.935 12.4463C108.903 13.8247 107.889 14.7785 106.513 14.7146C105.127 14.6506 104.176 13.6444 104.359 12.2079C104.495 11.1377 104.401 9.6837 105.87 9.58483C107.439 9.48014 108.971 10.9865 108.935 12.4463Z" fill="#121212"/>
<path d="M167.255 88.0606C165.948 88.078 164.802 86.9962 164.802 85.74C164.802 84.4605 165.759 83.3729 166.863 83.4019C167.982 83.431 169.059 84.6175 169.085 85.8505C169.111 87.0195 168.254 88.049 167.255 88.0606Z" fill="#121212"/>
<path d="M21.1926 394.158C22.3797 394.199 23.2164 395.2 23.1066 396.363C22.9915 397.59 22.3274 398.253 21.2187 398.259C20.1623 398.265 19.3308 397.247 19.4407 396.078C19.5609 394.845 20.246 394.246 21.1926 394.158Z" fill="#121212"/>
<path d="M223.928 66.1458C222.845 66.1458 221.737 66.3261 220.691 66.1109C216.795 65.3141 213.966 61.3127 213.537 56.2411C213.286 53.2691 213.934 50.4716 214.865 47.7438C216.732 42.2884 219.629 37.56 223.259 33.3782C223.782 32.7792 224.393 32.2383 225.042 31.8253C226.077 31.1681 227.155 31.1623 228.054 32.1569C228.969 33.1688 228.896 34.3437 228.274 35.4894C227.149 37.5716 225.837 39.5432 224.89 41.7184C223.368 45.2139 221.789 48.7326 220.759 52.4257C219.519 56.8518 220.733 60.9521 223.368 64.5115C223.604 64.8314 223.808 65.1745 224.027 65.506C223.996 65.7154 223.959 65.9306 223.928 66.1458Z" fill="#121212"/>
<path d="M229.994 63.1098C228.859 63.4355 228.002 62.8481 227.411 61.9291C226.872 61.0858 226.349 60.1087 226.192 59.12C225.575 55.2 225.905 51.3381 227.254 47.6333C227.866 45.9641 228.974 45.2778 230.235 45.5803C231.532 45.8943 232.416 47.1564 232.196 48.9594C231.778 52.4025 231.176 55.8165 230.637 59.2421C230.439 60.5275 230.214 61.8012 229.994 63.1098Z" fill="#121212"/>
<path d="M230.732 268.683C232.039 268.776 233.043 268.823 234.037 268.928C234.429 268.968 234.805 269.154 235.192 269.277C235.015 269.724 234.952 270.364 234.643 270.585C233.142 271.65 231.678 272.958 230.015 273.516C226.684 274.639 223.844 271.801 224.325 267.962C224.948 262.972 227.61 259.541 231.553 257.301C232.044 257.022 233.006 257.063 233.378 257.429C233.817 257.854 234.11 258.848 234 259.5C233.791 260.721 233.257 261.879 232.834 263.048C232.217 264.746 231.568 266.444 230.732 268.683Z" fill="#121212"/>
</g>
<rect x="-90" y="136" width="563" height="447"/>
</g>
<defs>
<clipPath id="clip0_1465_8719">
<rect width="384" height="488" fill="white"/>
</clipPath>
<clipPath id="clip1_1465_8719">
<rect width="673" height="520" fill="white" transform="translate(-57)"/>
</clipPath>
</defs>
</svg>
