<svg width="128" height="32" viewBox="0 0 128 32" fill="none" xmlns="http://www.w3.org/2000/svg">
<path d="M50.2899 24.7977H37.3335V21.7388L45.7438 12.0082H37.7597V8.94932H50.091V12.0082L41.6523 21.7388H50.2899V24.7977ZM56.7965 25.0878C55.8305 25.0878 54.9497 24.9295 54.1825 24.6395C53.4154 24.3494 52.7619 23.9275 52.2504 23.3737C51.7106 22.8463 51.3128 22.1871 51.0571 21.4223C50.7729 20.6576 50.6309 19.7874 50.6309 18.8381C50.6309 17.8888 50.7729 17.0449 51.0287 16.2802C51.2844 15.5155 51.6822 14.8562 52.1936 14.3024C52.705 13.775 53.3301 13.3531 54.0973 13.0367C54.836 12.7466 55.6884 12.6148 56.6545 12.6148C57.7342 12.6148 58.6434 12.773 59.3822 13.1158C60.1493 13.4322 60.7744 13.8805 61.2574 14.4343C61.7404 15.0144 62.0814 15.6473 62.3087 16.3857C62.536 17.124 62.6213 17.8888 62.6213 18.6799V19.6819H54.3814V19.8665C54.3814 20.6576 54.6087 21.2641 55.0633 21.7388C55.518 22.1871 56.2567 22.4244 57.2227 22.4244C57.9615 22.4244 58.5866 22.2662 59.0696 22.0025C59.5242 21.7124 59.9788 21.396 60.3766 21.0004L62.1951 23.0836C61.6268 23.7165 60.8881 24.1912 59.9504 24.5604C59.0412 24.9032 57.9899 25.0878 56.7965 25.0878ZM56.7397 15.0935C56.001 15.0935 55.4327 15.3045 55.0065 15.7528C54.5803 16.2011 54.3814 16.7812 54.3814 17.5459V17.7042H58.8991V17.5196C58.8991 16.7812 58.7002 16.2011 58.3593 15.7528C58.0183 15.3045 57.4785 15.0935 56.7397 15.0935ZM71.7135 22.7936H71.5998C71.5146 23.11 71.3441 23.4265 71.1452 23.6902C70.9179 23.9802 70.6622 24.2176 70.3781 24.4285C70.0655 24.6395 69.7246 24.7977 69.3268 24.9032C68.9574 25.0087 68.5596 25.0878 68.1618 25.0878C66.5139 25.0878 65.2921 24.534 64.4681 23.4792C63.6157 22.398 63.2179 20.8686 63.2179 18.8381C63.2179 16.8076 63.6157 15.2518 64.4681 14.197C65.2921 13.1422 66.5139 12.6148 68.1618 12.6148C68.9858 12.6148 69.7246 12.8257 70.3781 13.2476C71.0032 13.6696 71.4294 14.197 71.5998 14.8826H71.7135V8H75.3504V24.7977H71.7135V22.7936ZM69.3552 22.3453C70.0371 22.3453 70.6054 22.1871 71.06 21.8706C71.4862 21.5806 71.7135 21.1323 71.7135 20.6049V17.0713C71.7135 16.5439 71.4862 16.0956 71.06 15.8055C70.6054 15.4891 70.0371 15.3309 69.3552 15.3309C68.6733 15.3309 68.105 15.5418 67.6504 15.9901C67.1958 16.4384 66.9685 17.0449 66.9685 17.8096V19.8665C66.9685 20.6312 67.1958 21.2377 67.6504 21.686C68.105 22.1343 68.6733 22.3453 69.3552 22.3453ZM85.2382 22.7936H85.1245C85.0393 23.11 84.8688 23.4265 84.6699 23.6902C84.4426 23.9802 84.1869 24.2176 83.8743 24.4285C83.5902 24.6395 83.2493 24.7977 82.8515 24.9032C82.4821 25.0087 82.0843 25.0878 81.6865 25.0878C80.0386 25.0878 78.8168 24.534 77.9644 23.4792C77.1404 22.398 76.7426 20.8686 76.7426 18.8381C76.7426 16.8076 77.1404 15.2518 77.9644 14.197C78.8168 13.1422 80.0386 12.6148 81.6865 12.6148C82.5105 12.6148 83.2493 12.8257 83.8743 13.2476C84.5278 13.6696 84.954 14.197 85.1245 14.8826H85.2382V8H88.8751V24.7977H85.2382V22.7936ZM82.8799 22.3453C83.5618 22.3453 84.1301 22.1871 84.5847 21.8706C85.0109 21.5806 85.2382 21.1323 85.2382 20.6049V17.0713C85.2382 16.5439 85.0109 16.0956 84.5847 15.8055C84.1301 15.4891 83.5618 15.3309 82.8799 15.3309C82.198 15.3309 81.6297 15.5418 81.1751 15.9901C80.7205 16.4384 80.4932 17.0449 80.4932 17.8096V19.8665C80.4932 20.6312 80.7205 21.2377 81.1751 21.686C81.6297 22.1343 82.198 22.3453 82.8799 22.3453ZM90.8924 12.8785H94.5009V14.8826H94.643C94.8134 14.197 95.2112 13.6696 95.8647 13.2476C96.5182 12.8257 97.257 12.6148 98.081 12.6148C99.7005 12.6148 100.951 13.1422 101.775 14.197C102.599 15.2518 103.025 16.8076 103.025 18.8381C103.025 20.8686 102.599 22.398 101.775 23.4792C100.951 24.534 99.7005 25.0878 98.081 25.0878C97.6548 25.0878 97.257 25.0087 96.8876 24.9032C96.5182 24.7977 96.1773 24.6395 95.8647 24.4285C95.5522 24.2176 95.2965 23.9802 95.0976 23.6902C94.8703 23.4265 94.7282 23.11 94.643 22.7936H94.5009V29.3333H90.8924V12.8785ZM96.8876 22.3453C97.5695 22.3453 98.1378 22.1343 98.5924 21.686C99.0186 21.2377 99.2459 20.6312 99.2459 19.8665V17.8096C99.2459 17.0449 99.0186 16.4384 98.5924 15.9901C98.1378 15.5418 97.5695 15.3309 96.8876 15.3309C96.2057 15.3309 95.6374 15.4891 95.1828 15.8055C94.7282 16.0956 94.5009 16.5439 94.5009 17.0713V20.6049C94.5009 21.1323 94.7282 21.5806 95.1828 21.8706C95.6374 22.1871 96.2057 22.3453 96.8876 22.3453ZM113.907 24.7977C113.254 24.7977 112.714 24.6131 112.288 24.2439C111.833 23.8484 111.577 23.3473 111.464 22.7145H111.322C111.123 23.4792 110.668 24.0593 110.015 24.4813C109.333 24.8768 108.509 25.0878 107.543 25.0878C106.264 25.0878 105.269 24.745 104.588 24.1121C103.906 23.4792 103.565 22.6617 103.565 21.6069C103.565 20.3675 104.048 19.4182 105.042 18.8117C106.008 18.2052 107.372 17.8888 109.048 17.8888H111.094V17.1504C111.094 16.5703 110.924 16.122 110.611 15.7792C110.27 15.4363 109.73 15.2518 108.963 15.2518C108.253 15.2518 107.685 15.41 107.258 15.7C106.832 15.9901 106.463 16.3066 106.207 16.6757L104.048 14.8826C104.559 14.1706 105.213 13.6168 106.008 13.2213C106.804 12.7993 107.884 12.6148 109.219 12.6148C111.066 12.6148 112.43 12.9839 113.339 13.7223C114.248 14.4607 114.703 15.5418 114.703 16.9658V22.1871H115.924V24.7977H113.907ZM108.878 22.7408C109.503 22.7408 110.015 22.609 110.441 22.3717C110.867 22.1343 111.094 21.7388 111.094 21.2114V19.8138H109.333C107.912 19.8138 107.202 20.2357 107.202 21.1323V21.4751C107.202 21.897 107.344 22.2398 107.628 22.4244C107.94 22.6354 108.338 22.7408 108.878 22.7408ZM124.619 12.8785H128L123.056 26.6436C122.715 27.5665 122.261 28.2522 121.664 28.6741C121.067 29.1224 120.215 29.3333 119.107 29.3333H116.862V26.7227H119.277L119.703 25.4042L115.214 12.8785H118.823L120.698 18.4425L121.636 21.897H121.778L122.715 18.4425L124.619 12.8785Z" fill="#121212"/>
<rect opacity="0.1" width="32" height="32" rx="4" fill="white"/>
<path d="M7.76114 17.829L10.3869 15.3207L10.1426 15.2278H10.1223C10.0408 15.1814 8.55497 14.6007 8.55497 14.6007C4.76903 13.4859 4.70797 6.65781 9.18596 5.33398H22.5996C26.9961 5.79848 28.1156 10.5828 24.5332 14.2291C23.4748 15.2743 22.2739 16.2497 21.4801 16.9929C23.5359 17.8058 26.5076 18.2471 26.2837 22.5204C26.1616 24.7965 24.9607 26.3061 23.4748 26.5848L10.4072 26.608C5.52215 27.3048 3.2628 21.7076 7.76114 17.829ZM12.3816 13.4163L18.1826 7.88873H9.20631C6.11243 10.9776 9.79659 13.2072 12.3816 13.4163ZM19.4039 18.8509C17.4295 20.6624 15.2719 22.6133 13.5622 24.123L23.312 23.9836C24.7978 23.6585 24.8385 21.0805 23.8005 20.616C22.3553 19.9889 20.8694 19.4315 19.4039 18.8509ZM10.4276 24.0068L23.4952 11.1402C24.9403 9.60737 22.4774 6.82038 20.9712 8.30678L8.16823 20.5231C6.29562 22.8224 8.90099 25.4003 10.4276 24.0068Z" fill="#007DE8"/>
</svg>
